<mxfile host="Electron" modified="2023-09-19T16:29:30.461Z" agent="Mozilla/5.0 (X11; Linux x86_64) AppleWebKit/537.36 (KHTML, like Gecko) draw.io/21.7.5 Chrome/114.0.5735.289 Electron/25.8.1 Safari/537.36" etag="yfyAtVLUDtXTOsMbmUYs" version="21.7.5" type="device">
  <diagram name="Page-1" id="3OoMhgIXCs6EGG-MqaUl">
    <mxGraphModel dx="3312" dy="2132" grid="1" gridSize="10" guides="1" tooltips="1" connect="1" arrows="1" fold="1" page="1" pageScale="1" pageWidth="850" pageHeight="1100" math="0" shadow="0">
      <root>
        <mxCell id="0" />
        <mxCell id="1" parent="0" />
        <mxCell id="23ATxNzAXolhElHc7mPV-1" value="SYMMIO Smart Contract" style="shape=image;imageAspect=0;aspect=fixed;verticalLabelPosition=bottom;verticalAlign=top;image=data:image/png,iVBORw0KGgoAAAANSUhEUgAAAPwAAAEuCAYAAACqKn/3AAAsMElEQVR42u1dCZgU1bUGBTXuGrMhUWImYIZhZnq6qhrQqElceWpeEvEZ9akhxi2IS4gS5Dkao8Yg4hIlw0xVN24EjEElaFAIu8i+yib7MmwCs3T3bN3jO2e4bZpmpqq6q6q7q/v/v+//equu5db5627nntOpEwAAQA6jS0lJyeVer3cI8XFJkkYTK8rKyl4ljqf3bxPfo9+m0OsH9DqVOJ04g36fRZxH7+ebodh2DpP/y/sQnE6fP2Ly/sVxphAn03fv0uskPg96fYs4gc+LXt8gjiP66bNKr5VMPnd6HcMU16GK7Xj7ibwvse+p4thz4s5rqtjuUY/HI8E0gJwCGXoBGfda4hfg0aQHxt8KCwuPg6UAuYBjyahXQtj6pIfiH2EqgOtBzfgfQtCmeICKqyssBnA1yJAfhpjNsZQAiwFcDeqfPgkxmxb8QFgM4HbB/xliNs27YTGAq1FWVvYchGx6tP4BWAzgdsE/AzGb5lBYDOD2QbvHIWTT/C0sBnC74H8PIZvmg7AYwO2Ddg9ByOjDA5nDMcSu3bp1O7GgoODU3r17n1lYWPjN0tLSHsTveTyeQup3F/OccHFxcRn7etNnL3/Hv4ltutF/TjZZww+DmE17291vpky7d+/+lZ49e55F96d7UVHRd0tKSnryvaHPRfzap0+f8+l9L3o9j+7TOfT72fT563TvTqfXk4Qb7zGQgstAN7I33eB7xUIOXmiynribGCQ2EJuILXGM2mykIT4mnUOJTg3/CMRsmvd1VI4sUnFvG20+ZjTOPthewuz1R9xBXC0WGgW4pUbvr+SHBpSXRnDNyqO5QtxZYaj04PHo1PCPQsjWBd+rV69TsuQcI2Ll3x1mW3lAakI/jvt4VNj7srApWqBTwz8GIVsXPDfhs9H/n12nqWt4PBRqI6jJ3I8KdlW2Gir1I7+hU8M/ASFbFzz3w7P4vNfT+SlQqnV0Fa6p0Ww2VB4I0hH8UxCydcFTGX8ny8+9ifr3v4ZkUwSPnlNTeaYLjDRCp9tZR/B/gpCtC55H3l1yDY9Cvck34b+WzU34BNYYTMuNhJCtT8vxTIiL/An+DBWbBM+xUqEtcJGh7tC7HiyesUfw1FyWc9GnIO/BwRJTLORDHLCRnq6viVp1KE+dkKHcSK/XcABJ6gf+iD5fQp9/QDXGRfyev6P3l/Lv9N8B9P5a+v1nxOuJN9N3g+i7u7i5yU40YtT9KXGMF2ibcoPreQFitu5px45RvBCJ7sXTIsbAE+JeDGNx8T2i11/yPaP319H9vJrvKb2/mF4vZNI++tPvfZn8nu8/fX8F3296f5vYz9M87y6Cf+6yMr9P+7oKitZvyl+bZKFu55vOHlZ6/ehMgs7vLxCzacE/lG33jz30WLjiAb8myWvaw/+HstsBz2VSAW0yWZDsSTfEDZFORShnCNoc/y/b7yc7WdF5vklsNdm0Hw91t18TDjJZgFvYT9pFXZSxELJpPuGi1uiPTTqBtXIXAgo/Ep3Zb9lE4e0uKir6tsvGJF6GkM2RRPQHN91b7krSedeauLZ/QeLJj8C28iCLC8clnoWYTY9sD3fhIPOtZmzXTa3SdDTnzQR6fN2lsw4IgJHb6+E7m0w08ico/T+iWGniCVnk0pmHX0DMpsNU3+TGe8xTgSaubx2U3qnNZfIMI195KtCFbr0+DtAAMZtiKz0cz3XjPea1FCI2gu41ckAO9N9LSy/LhekagxrgIwjakG+5vJU6yUQL5sa8Fzx7N5koqEvcfI0cEouu4xOIukNOcXskGTN2zG7W6L+bcEzhlXM5cKmdec00GfY9YuSe86yPi+VcF2G6XhauuKMS3EgfF5FzRvCrcCl9XLiXPili37Mn2CjOOy/28XIsdzvvP5a/XbgevyFyv0/gmlXkhJ8kcsRPFmzLU2+GHeSYnyDy3r8mjs33+XlxvsNFOfyc49Hlgh1Ts95n4sE2GYI/bFxGWUUBIKshQq8Zed+tgeC93qUGhbQa5gS4xJZ3oPIyLqRtBv2eeTAlwCW2PNdoBR1t1iXfC6kGbolAjtjyRBMD0KfneyEZxaubBFMC3AAzS6E56Uk+l1FXE+6Wb8OUAJcI/kkTC4TOzdsCEiObOe2QAeRVa/VhCF4H55133mkQPJArMON8A8FD8ECOgPMcmshh0B2Ch+CBHAB7D5oQfP7GuEMfHsglSJJ0J6bldNCjR48TIHggV0C2eruRPXPehXwuoy4QPJBHNXxrpywNp57Op2IrBA/kAkwM2jWgGeT1tkDwQI7Y8m+NsiOhkOipB8EDOWLLRgFLq1FIh7PIOCV4DjrRm0ML8c0QecNGCZ/nF9gVkviIyCl2C+eg41xzHKiCPktgbpMTRHDOOZFnsD+npOaB5FSNjfMMGiVRgeCNA/knLfhevXqdIiLC7EL4KDBJtpAw36eHQGEKffinDfb9GQTv9R60U/Ait/w6GC5okZ9T7X92krb8vME+10LwXu9+OwWP1E6gjZlw/piM7Yn4gXr7XAnBe717bBb8WhgraBOTCr5CD4hXDfa3FIL3eqsheDBLOSdJ23vLYH8LIHj7Bf8iDBW0ieOSbNK/Z9BF+BiCt1nwYgXeDBgraJGNnNU4ScF/AMGnWfACx4p59Vn0/4gdec9E7rD9IsruWhFeewFxPkfWFceazmmlRGqp6eLB00bx+xzelv9Hr4vodQlxBb3/lF7XEzeJ/fN04j72zBLHbTIR+w+05x5vEok6vMkaHQl+GgSfGcEfMSfPzhX0tL6NnWw4NXUsOwvdgJdiDjicDYXeD+EHBX0ewM43nPxPLGc8JkuK65jCwsLjunXrdmJBQcGpfG6clYfXWHM6Kw6uQL+fQ9/3YPL503UVMDnDCzuWxMjzzJyRl0m/F9P2pfS+jK+bHVLYESXOKeUS4ZB0Of12pSifq+m3a+nzz+j1Onq9nr6/gZ2cOJsql6Mo80G8ioy+u4O+u4vXjNN3g2PkMmfHp3jSdw8ShybwwYRthsT2wfvk/fNx+Hji2Hwe14vz4/O8kq+Dr09ccwGXV8+ePc/iZJBcSVi9OeKhDsFnUvAAkC6I1hsED8EDeSL4jyF4CB7IH1ueD8FD8ED+2PInEDwED+SPLS+A4CF4IH/68AsheAgeyB/BL4LgIXggf2x5MQQPwQMQPAQPwQM5aMtLIHgIHsgfW14GwUPwQP7Y8goIHoIH8seWV0HwEDyQP7a8BoKH4IH8seV1EDwED+QJSNAbIHgIHsgfW94IwUPwQP7Y8mYIHoIH8seWt0HwEDyQP7a8A4KH4IH8seVdEDwED+SPLe+B4CF4IH9seT8ED8ED+WPLByB4CB7IH1uugeAheCB/bLnewJbno5AgeCB3bDkEwUPwQP7YciMED8ED+WPLLRA8BA/kjy1HIXgIHsgPdDaRgx6CzyLBH5V7/fzzz/8q516n77+ZmH9dL/d6Yv71RMbyseuBc7XTPiQj8nalJsDH7Oh8mHy+idfA1xW7RiZfcyz3fIxcHlwuMXI5cXnFyOXHOdgTyXntuYwTyWVP/zs5nnxPevTocYJd5P3xfvl4fH5McezjLdjPsRB85gR/jCRJg+i/fuKHIm/3CrFemRc47BVOEjyN0mSiKQbmB1vFircx/PBK0ua6QvAZEDzX0vSfyTBe0CJ3FRUVfcOs3XHrAILPgOBp+5EwVtAOUsvwObN2x90ECD79gueBk4MwVtAmwW9IomV5MgSfGcG3wFhBu5r1STTpT4XgM9Oknw5DBW3iO2btrk+fPmdA8BkQvMfj6Uf/icBYQYsMlZSUeMzaHU/hQvAZmpYrLS39iVGMcBDU4RKuOJKsaL4GwWfY8YYdR+hGXEW8jh4CN0qSdAO9/jd/Rw+EK+NJvw2g7a+Okba5lreNkbb5Ge8nRvp8Pe8vRt4/fXdzPGm7W+j72+Ip/ANuTyRtfwdtf1c8aft7aPvBiaTth9D29yeSvn+QOFSP9P+H6HWYWdJ+h9PrCCco9t3hscW5Jl7DgwnXPITLhMuKy4zLkcuTy5nLW9yDtnvP90zcR763/0Wvl9K9vpCosHMSOxYRTkvF1ngKD4J3l6cdAKQM9iqE4CF4IE/w/e9//1sQPAQP5Al4DQEED8EDeYKSkpKzIXgIHsgTFBUVfRuCh+CBPAEvE4bgIXggf/rw50LwEDyQJ+BgIBA8BA/kCYqLi78DwUPwAAQPwUPwAJr0EDwED7gWGLSD4IE8AqblIHgAgofgIXggFwFPOwgeyCNwHHsIHoIH8gQmF898AsFD8AAED8FD8ICbYDIABgQPwQM50of/OgQPwQN5ApNhqiF4CB7IBXC0WwgeggfyBCZzy0HwEDyQC+jRo8cJEDwED+QPuprIRrvIqYMvrvB2DWnesqAm3xzy+/7QEFAqwwFlctivTCfOCvmVqSFVmcTfhzT58aAq3xaukpTqCu+JEDwAJI/OJmr4pXYe8GCF95yw6rs/rCrTSNRB4hcpsDnklxeENemZ+irPRTPKO3WB4AHAnC0bJTFdYvUYEwd2OpbEeR3X2CTWaIoi1+O+oOZ7IThWLoXgAUDflpsMmvQzrQidhPhLaqZ/5oDIOyJ1BaQBEDwAtG/LQQNbrkxlv3VV0gUkvuVpFPqRVOW5IdUjQfAAcKQtH9CzZc5anMz+9qu9TmlQfWNJdK0ZE/t/GAkFlJcsD/JB8EAOCb5DW5Yk6YNk9hUaK8skss1ZIPQEymuDqqcEgu/U6RhilxgLCwuP47nZeHbr1u1EdtDQY0FBwamlpaWnO0Het9Hx+RwTz5vJ1xN/fXE8BlI/DOqjb+loOq5Pnz5nmBa7qtxF4mrKPrELBpT6UJV8TTYJvjMV8vXEZ+j/fuIE4mT6/BG9ziEu4BFT4irieuIm4nbiLuJu4l7RPDtErCWGiA2CPDDTIhg1MRWTr4zGlVOMTXHlGCOXbX0Ca0XZx5Pvx/52uFfcs1S4V+y7TuxrO9XE08hOfkMPx+NTsOV17Yj9Y37Qmh2Yo2bzK1kr9CNF31Kvytdng+C78H8gONAKWajdu3f/SpK2vCLRs4597M38d8dz3b8S8ivvuELscaJPuqa3W/B0o4bDYEE7SLX9Q0na8oK4/2/s3bv3mWb+d2h06ekkoNmuEvt/GExqBN9uwYumOQwWtIMLkrS92eJ/NR6Pp9DMf2qrep8Z9stLXCr2NlLLZHv9mOKvZ0rwTTBU0CauT7J1yWNEDST2S/NF7HGcXl5uYgDXAcF/AkMFbWKytjeKRN/XzLY1r/Q5I6zJS3NE7LGafnjaBV9SUnI5/acVxgpanWUoLS3t78T03YEXC04lcSzMJbELNgUrvH3SPi1HN+pGMeUCwwVTIdvOrU6Ifc/I4pPSM0AnbwwFlLfCqjIqFPA9SnyiQZMr6LeZFlbWmanlec1/50w43nSlvtRFxLtoH8MkSXqM3v+B3j9K/D1/l07yiC+9Ds0UxfG/PB8xmzEijo9yGTHp/ePEJ2Kk756ksns6RuHfMDKOo2ib0XqkbV6g/72kR94m4T+jEo4zko8dOw8+Lz5Xcc58X0fwdcWV9YP0+X7a9l6qBO6hz7fT+1u4QqDX66g1eDX3t7kmp9cSzgBrds48FfDUm1jK6ozINXlbUPP9vkaVztM7j9XlhcfxopiwpkzgqTW7zyOo6Tws4VoL5AM+e7HgeKph33dI7PtCVfI9HAQj2fOqqfB+N6QpE+0etefrheCBvBW7iD7jRBP6HdNTYnruvFXyNXSO+207L9X3GwgeyDtsKe9xgkM1eyv3zXX7y0niUJXnXHqAfGqTF95n7U7TQfBAroKXkpIoP3JiqSrHpHPinOv+cv5Xw355pT21vHQVBA/kBfa9XHhyWJNnOCD25voq70Anzz2kerqR6HfZUMu/2Z7gd0HwQC6hzTdelec6Ifaw6vt5Oq6BA1raEDMvyF0aCB7IWdRrnq854i6b6nJUCwhq8vPWp+jKrkgU/E4IHsgFhCuLu4c0ZY0DNXuU+uw3ZaSl4lcOWDt339MQPJBzYGcXh0JStYY07+2Zui5OamHRGWhGouB3QPCAy5vxhbYMcrUn9o7ms9PYarHYl/88UfDbIXjArQhVSR72dHMmPLTv/qzoqviVeVaug5cBxwt+GwQPuFLshyPLHnSiZg9q0gNZc52a9EdLA3fxK+hI0FsheMB9A3RlfcmYa5wQO/HerLpWTbrOyjXVV0qXfLmzjkL7QvBA1opd8/pCfqXWidH4kOa9O+uut0pSrPn7x6WrIkFvhuABl/XZnWjGR2jfg7Lxmg8PSton+I0Ggp8IMwOyAXWq1MuRAbqA0pKJeXaz4EwzlvrwldJl8YL/zCBU8N9gakDGm7VjSs4m493qiLss9ZGz+dpZsNYW0cSFsRaZX/QSAoyHuQGZRNtCGL+yzIkYcCFN+knWP+xU3/1WrvPQmNIe8YJfa9CkfwMmB2QKvKbboYwwDbbnXndq3MLve9tKC2ZGeVsOwsOgGvxTA8G/DrMDMmbsqvKYA2IPB1Xv5W64fl7TT+dbZ+FaNxyxQxL0aoMm/aswOyCDfdeo7WKPH8TK/gferyz13zVlYqLgVxrU8ONgekC60bbMVVP22t2MP2q5aBaDg2JyDW1phD6gHJmfj2rw5Qaj9BrMD0h7zcYx3e0We5V8pZvKwOpgHbOuSrogsYZfalDDj4X5AWk1dIuupO0NXIW0sqvdVAZ1Fd7z6bxDFq+75ogBO1HDLzIQ/BiYIJAutCWLsHe+PZLuSDVWcTjwhbzW+mo/+egp9YSc2u0N2r0EMwTS1pTX5BH2rmdXfuWm6+cYdJwJ1paote35GJCo5xv04UfDDIF0gJM8kqEesi3lkqo86Kbr5+a3fT4HcnW7mXCoBp9n0KQfCVME0oGgKg+zL7+a/Lybrp0djMIB32v2ZcSRyts9EAl6joHg/wRTBJzGxIGdjrUrTFVIU/7RbtaV7EVnqtnH2Jj+qvaIKDcJNfxMgz78H2GOgON9d86malO6ZPZOc9O1hzXfs7bmu1OVxzo8GIn63waCL4c5As4bvTLBjn5rqML7LXc96CxGpW0nc6zuA0+SpGkGg3aPwBwBJyE8ymosT79VeS5y1ZiFX3nY9my2at9rdQ9Kop5q0Id/OJWLKSkpuZD++zK1EBaK7DZ7ifuJB4iHxHe8NHcZcS5xhuB0+s9H9PohPWw+oNcp9Pldep3EpO/e5ig8/Cq+nyKuYQYPQAq/glViFSDvf5MI1LlDh9s41JcI97VJxAjg/64Vi4tWiPNcIqYxeWZjvhjw5DGQOfR+Vtw1fEnx/ZxEiv/yfhaIc14ijsHHWiWO++U1iHOLXQeX3e64Mo0vV2YtsV4wRGwQbCK2CEbbudfRuN9jbBb/DYn9HhLH2ivOYZc4r89iZcXXI+4FX/t0j8dzqZ6t1GvyxZYNPSA/5Sqxa9ID9gfy8L1meGAhKj3BJzu10YVX2BnsE8wjkvCv0W3WBnyPWmzKbzwqh1o2d1/8yr0iWKadUXs+26/2OsXw4HRD/mlww4YkczH8gICRg/GkGr6fruA15R/WpuC8t5oSGgeDVJVR1M+dGtbkpfTfWUG/PJoj4Katz65Jd9oudr8SDFaWFZs6Aarh3zO4YUlF8aSn+ccwcjCepaWl3zOo8TZbqNnqjWr3mlf6nNGgKh/oD3bJH9ZUFn/HUbEfXupqt9gj9BD7aTI18jsGN+vXSQp+A4wcjGefPn3O6Mhe2LuszWgtzLkbiT0UUBaZy8Om7DVdUybbZ1fl2xxY2/9F0qmwxCCYXv/rl0k26T+EkYNxbGHHkg5r98PBKS0YvNxhhcTOJ1T7LU5yn5sPVnhPs3eAznurE2I/KjOsSYG+ZTAt97/J7I9aBANh5GAc9+iO0FdJRdb85T0lHYo9xTzxdo74c6x7Z2p25UW9B6me4CcYDLj8IoV9DhHTODB4jNB/ajiQZmE1XHtOJlbEHsu4yq6+NvXZ7Re7X/lrSmIX4nzToA8/MJX99u7d+0z67020j1Ec+Zb4L54vF9OAk8Rx/fS5gtfcJ1J8X8kko1F52ziOo99fY/K+OZR2jOIB9laMossyKUYxdz9ZcAqfjzinqTz/HyPPH5uZU4+bT4/nAjEX3S7j5tzt4hKdYy1IPL8O/Adi/g+xezRFDOjGfB8miPLlezlO3BO+Vy/wAiva5kl6fZQ4lO77PVRR3EKv/1VcXNxLz07qVO+FqRp+gya/74DYD+djo5aHNbHLv3ZC7HTNFSmLXQj+dYMn9E87AYBTc9Kp1vCqPDdx3rlN7Ien2ywLq171/tDi1JsTA3QvWxK7GFV/1YrTBABYG71OKY3SdE5OcURL4S/nf9XOZBVHZGtJ3oPO7qm3L4Ka7wXLYhc1vN+gD38VzBJwrIZPcpSenWY4DJaTYucYeHtGFp+UdM3uV4Y7EEOfI88+Z4vYRQ2vGvThL4NZAk5BLJxpNdtnT3SyqavwnkW/LbfZTXVy0mIPyE85IXb2DLS1wMXAmF4N/2OYJeAkeEmn8VSZ76O0iJ3775p8cRKn35mb264QO0OMhnco+JKSkh/CJAEn0eBXphh4032c2GdvS1ThV1Y4kDr6TbPn3RaDTlNUJ8QeCiiv2NaMT6jhxxjU8BfBJAFna3jdIBAr2D32aLHLKx2oUddziGgz59yW801T3nNG7LLmWIguXrNuUMNfCJMEnESdJvfvaNlrYgQbp8TO3YqDFd5zTJ3v4UHCec404+Xxdjj96A3avWQwaNcfJgk4CRHAsjpRgEfkNXeyZvcr+zjTi5lzPVTlOdeWJBHtu8tOOipTjAM1/IsG8/B9YZKA4816TXkkfgFL4lLV+jHFX2/QlNUO1Oy1ocoyr5lzZJ8B2n6nE2Ln5bufvVhwvOMFTaJ+3qBJr8AcAafR1iemPnTILy9IbMYHK4u+4YTYOXeb2Th4nMWF19470oz3K9MTfQucbNI/Z9Ckl2GOQFpqedXTbXV54XFpE7sJ91kePBPpr6IO9dnnJs5AOF3Dj0IND2QjHBW7VvYjw8G5Cu9ZDX7lnw7V6hxlZwGn10profJKJz3BFxcX+2B6QCbETv3lTzMhdq7Vg5r0C46A45TYOTCH2SlAWyFJ0p8xaAdkldhflr8Z0pQ16RQ7HzOolV0RUpUnnRqFj/ct4Km9jBQuCfoZKxFHAcCtYq+rki6gZvXfE6cEnSS3WnjGIWMFzMkiMQ8PZMWgXYX3Ww7VrkeJPah6L6fvm9IldMF1/EDLaCFTDf40BA/ksNiD9ZXSJUcca6ws0/d16RU7XduYkrMzXtAk6qfgWgtkVOyqpxvXfg4Ira6usuwH8ceq1zyF4YCyP801+/KMNuMTBu2exGo5INfEzh507KMffyx21Q0FlB3pFDunr05c/JNRcP53A8FfAbMEHBO7qqx3QGiHEtNH1ajSeZYy3KTiLutX/plWpxqbBH81TBNwkdgPch89/li8MMYpH3idmn2M4wthUuzDP2EwD/8zmCdgJ9ri2Dkj9s9DVZIn/ljBsXKpow407eR6C2q+oVlb+CYE/z8wUcA2sVcWd+fUxk4scU3MC8fNeq7x0yb2gLKfp/uy+gaYEPzNMFMgy8W+JzFxhBB7OqfepvP1Zf1NMBK8JEmDYKpA9opdrq6vLPt+/LH4cxprdn6o3OtYSKp0C97j8dwLcwWyUew8xVbrPzL3PK8+49BYaRB6azjge+2AJn/bVTfDaJSeOAwmC6QKjhNH4tjkgOC21lR4v5t4vAbVN9ZhoUc5Jz0PBrryhhgJnn+H2QJZJvbNifHuGG3BKvxSObUm5tjtJ384dr7v6fYeMq6Ckacdh8CC6eYmOLED+7CzU0rd2JKe/MqfE6POZJnYN5hpRnN8uMMDd777OHY8e7zRfw8kcZzdHC8/qPl+L/LMdc6Jm27kS0+sgjTcDY6XFqyULgsFfI+G/L63RRSZOt3+KRk8h2LmjKVBTb45GV9wB8W+jh12rJQFu7myPz1nlwmpfa+l1/+pV+Xrw6ry06AqXcqBKjMSmCJdMFotRy2Av0Ey7gOHfg5pZVezwHl5qE1914/DAe8QvYCLTomdH1IcBQd31noNr7sefsCAAVP3799/Sgq77sLBM8rKyu6gh8ZjInbeixwHPxnSf16g/492iuK8RjpJDjLCD1azpP+M4PJLtTYPq777HfUbV5XF7SVL4H41/b7FiQgxHJMearWnD68b4mrEiBGLWltbP49EIneY7MccywZL3GvQVQDbZ7S0tPQnyd5H9tsOa9LgdERvEbnK0yR2eUnGwkHlaJP+WQPBLybBfyH4dnV19YlWugigPqk18Ltk72Gd6r3QkcSK7Y9WL0zM4uqU2PlYWbW0NEea9LphqocPHx4veOb8mpqaM3T2dwDCTY3U2tKSHWXnlMKOxUxvJ9liYj/aQbF/ktODZxls0o/WM8KHH354SYLgmUs6EH1n+k8zxJtSzT6rsND8dBiPNDsUs73DEfLEEE1ta8w1eZsDx5qX9njteVTDv5iC4Jkf79u37+R29rcSAk6am3r27HmWabFXSTc4mPao3UGzxOCLDop99n611ylQpnOC100X/dBDD3UkeOb0LVu2nJCwv2EQcFKs8Xg8hWbuFXuSUbP6T2kN5KAp8xP70Y6JXZNnZF2EmFwDNSX/aiD4pTqCZ07dsWPHl/Oy3Cylfb4LIZtii9kQYjzdFgoob6U5asvCxNrWMbGryjROKAlFOl/Dj9UzyqFDhxoJnjktYfS+M9VaV7GXHnE+cQU9BD6l1/XEVfR+EXEeU/zOXMDf0+sS3l5sx/9ZK/63iT5voddtxB3EXcTdYvpvvxgsPESsJdYLhogNcWxikcUxqjc9lrBtjE1iv7XieAfEOewS58bnuYHPX1wLX9u/xUPwDUmSKsQKxbupjErM3KPDK8CUWWmNtKoq6xPnvmurygoO+5Tb/mCZmrbsqajhy1QbBM+cdfDgwdNQovaCRceOLmkOq8yJDuWjxO5AxFfOi544zQc4W8OPMxD8MpOCZy6ur6+HR5RN4HXkDqVd6pBNk2/dEA3XrGhoaDgPYs9Nwb+hJ/gHHnggGcEz14TD4e4oWWsQYZW3pDWs8sRrq1uj0Vq+jy0tLRdD7Lkp+AkGgl+epOCZm0n0Z6N0U4NwZtmaFpEHfF80Tb1vRWTv6tkk9lDsHkYikZtC/7qjDGLPPcH/Q0/wQ4YMSUXwbfP05eXlx6CEkwOv9XY6YUJDoF+0adrQZZGdi2ZGIy272rt/0ZqNa8Lj+lVD7DkGSZLe0xP8fffdtyJFwXMtMQAlnESfneO1OxPV9csme2Tngpmt0ch+vfsWrd22PTyuv/1i9yv/gtgzjLKysvcNaviUBR+NRh9BCZsDe7I5lFDxi4bXLwpHts8hoUebDO/ZwY1bqAWwC2LP3Rp+mp7gBw8evNJCDX8jStgYvPwz7JdXOiH2xim/XhuNNG029YDeu2pdONB3H8Se23342QaCX5Wi4Hfu2bPnJJSwPg5WeE8LBZRFToi9eclf5lGt3mhK7Dvnr6L/1DjhQZfoVMOBINlnnhcAwQLSL/j5eoK/++67UxF8Y0tLywUoXX3sGVl8koiwavfIe2tk66yZXxBMiX377OXhgM+JxTiz+BqPaM2onn6x/OycXRVWkH7BL9ET/D333LM6hab8bShZfbRFjA34PrJd7OMuaInUbPvY9DjLtpnLbIp5d9QS18SFMBwkkr4PxgfLrFOlXrCG9Ap+lZ7g77zzztVJDtQ9i1LVB4dQ5hDItov9tYsaIsE9i0zfqz3L11LNHnRiOW1i8ApOskjfNxztwiuVwyLSK/i1eoIfNGgQN+l5GqfZhBFNnjhx4rEo1Y6xuMLbNeRX3rF/JP6SYDRcY9pnIlq3fUc40G+fAzHoNiauna/Xyn5Ev4U7Wv8Oq0iv4FcbLOGcFNuWA16w22xTU1MR9dEvpKb71cSbqVYfTByWYnTbvAEHmhRho22u2S8OJSP21paGhvBrF9k/368pe9kl+Mg+e1u8Pb1WRBNG8NOIsrKy5QZx1kajlOwROwlighNz7NHGg0mtd2icOmSmA834MGd6ib/m0FhZptZMrdF/E1M9A87W8P82yB77B5SS9Wa8I2J/9QeN0fDnS5IaY6nbuZP+22z7clpVuesIsVdJHtMpm1Xfz2El6avhxxs06UeilFIH52kjMUxyZDQ+WL0g2RmUxunD7K3dA76mxnlPzIyPbxjWvL6k8rMHvENgKWmCiTjyE1FKqYH7po6MxvM8+6Et81JxiGp489JV9om93z522OH9NjU19W4boKvyXGSQt66dYBs+tCLThdLS0psMBL8VpZQ8eA6ajHm6E8tZI/vXzE7V3Tk8ru9eW85lXP9t0Zqt2+KmY1+N1Gx5Jez3he3IZAM4V8MXGgVbpIdCKUrKPNpi0DngQcdsW+2WotgPC/4C60E1aB+t9bt3H7HvaLSh8e2B21Lr//tehtWkD51FMEg90Y9FMZkDR3kNq/JcR8S+dYYlsbf14d+5Ya61gcILd7TWV1cf5V25c/5MC0Es/wrLSe/A3asGgm82Gzs9n9HmG+9XZjsi9o1TLIu9rem9ZfrS1Gv2ftXRum072ttv0+RbUp7XR5M+zZAkaYCJVEgLCwoKjkdpdTwazyvDHBH7hsm2iP3LgbvxAxanJPaaLVvb3Wc0WsNjC6lfo+9pWFB60cVEs56dcF6jbRG2KgGHM8LI4x0R+7p3bRV7G6lJntTgXaDvbg6M0WGrobHOUubaoCoPgxWlv1k/3GS2lDeTSXqYDwj65dGOiH3zVPvFHhfZJvzqhZsM+9evX7KG/e51V0dWL7KUJIOa9L+EFaUZpaWlp4tMKmZEv4C2/x5KrVOnkCbd6cjU2875jon9S0aampoXvjQ79PoPP6VmdXzK6ebGNy9b1rxCndsabYkY7adp5ojF1mp47+WwpAyAhDwkibxoDdQqeKakpCRvw1ELj7Im251q9q6Y5bjYj1pQ09jIbrfRul27SOQtplsKkebtHAXXyjVzWG6oL3N9+aVJJkSMEGdQ//4xqvX/u0+fPudza8HMsXr06HFCRxTdhi4p0OwYwzE6+zAEh6ayO5w0Cydy4LO5aRe7BTYvq7Dkb8CLa3gMBNLLXNP+eyTgOhsyo8aSLtbHJV6sFUkdo1mc0XUnFYPhmv6Qpqj2+sb3b47Ubp/vJrFHanfMtzY6fzhOPVSXedH/RNTceZfCmVoqfzYcpKvy/JjDM9kcqWahm8QebQmv56AbVq+d+u+/heKyAB6P51dZXhM7wrKysmK9cmmLWGNjgse29ezhz5e6SuyRluqGidfstuP6EwNmAJmt6QeKJni+iH15Okfl2yLVJBm8IuOMRg81TL5loz2r7ZQ5UFn2iV4mIWzIE9HrNi85+GTIr+y0L3jFwSUuE3u46cMhti2vDWrSL6CwLERhYeHJJIZRxMYcFnuEujHddPvuqnybPWLvH4nUuavPTmJvtjrfnsANHPYL6spiFBUVfZeEMUaMvOea4Kcazrv75SW2eNBZWM+eIbFHmuY/M9/OWYn6KukGKMolKCgoOJVqw1tEbvl9OTI6/7+6tXtlWbE9C2HenekmsTOal/7V7uW+s6hIO0NJ7m3yn0MPgKuov38bCechEtAIpvDPHxZP8fvQBD5I294fT/b6o20Hx5P2fw8d56540rZ30La3x5O2HcTnEk9+QNG2N8eTvr+Rtr2BWVxcrJsHLxSQn7Jq6E3TfreMasuoqxxrVr05y+7otsg2A2Q9GgKKpcGqhjcuqY9GWna6yrFmwxT7w1lr0mBYE5DVCKmebtkQrSatYt841Xaxh/zy39GUB7Ie9VXegVbTQFFTvtY1YqeHkwMpqJYkJpcEgKwER2SxlKd9mTrHNWK3EJuuw5o9oOwIj8nfVZWA65r01hJJuMVPPrJzkRMpqA4FVU8JrAhwUQ2vLLOyvt0NzfnI3mWzrK58a8d1tr5Ok/vDggCXCV6uTtXoG//+0515KXa/0hBUpUthPYAba/iUl4E2Tb1vRXaLfYUTYm8M+aUBsBzArYJPOdtq08z/W5y9Yl852wGxN4Wq5GtgNYCbBR9OWfDThy3NTrGvdkbsat9rYTGA2wX/ecp9+MmD1udFMz6gtIQ16TpYC5ALg3ZrrbjUtray+3xOD9BFgqp8EywFyA3BW0whFY00bMphsUeRSALIKXA6Y0uON9WLZmVc7NVLHBF7qEoaBAsBckvwmvduK8JonPqb1Zn2oIPYAcC84MusCiTaHFyTK77xEDuQ05g4sNOxnCHFUvCLWeWL0i727XMgdgBIqZYPKG9ZXhNfu2N++pa4TofYASBVBDX5ZsvRasdfcTAaadnhfPCKDyB2ALCCPSOLT+LVX5ZFP+nGza3RyF6nAk5G1r0NsQOALc16v1Jlh4AaJ92wldMs2xxKOtq8MjAbYgcAu5r1qqfEtjRT1LyPBPcssknsNU2zyxdC7ABgMxo0+X07RcX51a008TmDTcPEa6sdEHtrSPPejjsO5HezXvVIdqaKjmWQbf50wizTLrjRaEskWL2gadpvlzsg9FjetwdwtwGgU5tv/atOCa3h3Zs3Nq96Yxano4qGP18SbQx+ymSBR3YumNm8cPTH4fGX1jh1/MPhpKVy3GUAiNXyFd5vcXBGJ0WXMWq+Z3GHASBxAE/z3pprYg8FlFc6IVEEAHTQtNeUCTkjdk1Ry8s7HYO7CgAdYL/a6xQrwTGyhQ0BpRJiBwATqFGl80g0+1xbs6u+l9GMB4BkBvHGyjKJp8Z9fXbfExA7AKSAOtXTzzUj9wGlBU41AGARwcqyYurT78pywR8KqdJVuFsAYEfzXvV0C2nK/OwUu7yybmxJT9wlALARq8sLjwtr0jO8+CRLxN4aCigvbSnvcQLuDgA41a+vLPtBg6aszrDY19Vr8sW4GwCQBiyu8Hal2n4wCW9PmoV+IKgqv+PWBu4CAKQZbRFzVN/91I/e6OzCF2V7UJWHHXix4FSUOgBkGOzRVq+V/SgUkDW7HHbaIuqq8nhO5DijvFMXlDIAZKn429bXt9X8vr+ReFeYyEV/IBRQFoX8Pj//j+f/IXIAcC8611b1PpOnz4Jj5VJOgsGhtQ6NKe2BZjqQKv4fRNNqJxg1/z8AAAAASUVORK5CYII=;" vertex="1" parent="1">
          <mxGeometry x="-260" y="230" width="66.75" height="80" as="geometry" />
        </mxCell>
        <mxCell id="23ATxNzAXolhElHc7mPV-10" value="SYMMIO BlockChain Input Module" style="swimlane;" vertex="1" parent="1">
          <mxGeometry x="310" y="160" width="230" height="345" as="geometry" />
        </mxCell>
        <mxCell id="23ATxNzAXolhElHc7mPV-3" value="Subgraph&lt;br&gt;Fetcher" style="ellipse;whiteSpace=wrap;html=1;aspect=fixed;" vertex="1" parent="23ATxNzAXolhElHc7mPV-10">
          <mxGeometry x="70" y="145" width="70" height="70" as="geometry" />
        </mxCell>
        <mxCell id="23ATxNzAXolhElHc7mPV-4" value="Event&lt;br&gt;&amp;nbsp;Poller" style="ellipse;whiteSpace=wrap;html=1;aspect=fixed;" vertex="1" parent="23ATxNzAXolhElHc7mPV-10">
          <mxGeometry x="70" y="250" width="70" height="70" as="geometry" />
        </mxCell>
        <mxCell id="23ATxNzAXolhElHc7mPV-2" value="Event&lt;br&gt;Listener" style="ellipse;whiteSpace=wrap;html=1;aspect=fixed;" vertex="1" parent="23ATxNzAXolhElHc7mPV-10">
          <mxGeometry x="70" y="50" width="70" height="70" as="geometry" />
        </mxCell>
        <mxCell id="23ATxNzAXolhElHc7mPV-12" value="Position&lt;br&gt;Manager" style="ellipse;whiteSpace=wrap;html=1;aspect=fixed;" vertex="1" parent="1">
          <mxGeometry x="385" y="-40" width="80" height="80" as="geometry" />
        </mxCell>
        <mxCell id="23ATxNzAXolhElHc7mPV-14" value="" style="endArrow=classic;html=1;rounded=0;exitX=0.97;exitY=0.592;exitDx=0;exitDy=0;exitPerimeter=0;" edge="1" parent="1" source="23ATxNzAXolhElHc7mPV-1">
          <mxGeometry width="50" height="50" relative="1" as="geometry">
            <mxPoint x="126.75" y="90" as="sourcePoint" />
            <mxPoint x="310" y="280" as="targetPoint" />
          </mxGeometry>
        </mxCell>
        <mxCell id="23ATxNzAXolhElHc7mPV-15" value="Events" style="edgeLabel;html=1;align=center;verticalAlign=middle;resizable=0;points=[];" vertex="1" connectable="0" parent="23ATxNzAXolhElHc7mPV-14">
          <mxGeometry x="-0.0777" y="-2" relative="1" as="geometry">
            <mxPoint as="offset" />
          </mxGeometry>
        </mxCell>
        <mxCell id="23ATxNzAXolhElHc7mPV-16" value="" style="endArrow=classic;html=1;rounded=0;exitX=0.5;exitY=0;exitDx=0;exitDy=0;entryX=0.5;entryY=1;entryDx=0;entryDy=0;" edge="1" parent="1" source="23ATxNzAXolhElHc7mPV-10" target="23ATxNzAXolhElHc7mPV-12">
          <mxGeometry width="50" height="50" relative="1" as="geometry">
            <mxPoint x="470" y="82" as="sourcePoint" />
            <mxPoint x="665" y="285" as="targetPoint" />
          </mxGeometry>
        </mxCell>
        <mxCell id="23ATxNzAXolhElHc7mPV-17" value="Party A or Liquidator Actions Signal" style="edgeLabel;html=1;align=center;verticalAlign=middle;resizable=0;points=[];" vertex="1" connectable="0" parent="23ATxNzAXolhElHc7mPV-16">
          <mxGeometry x="-0.0777" y="-2" relative="1" as="geometry">
            <mxPoint as="offset" />
          </mxGeometry>
        </mxCell>
        <mxCell id="23ATxNzAXolhElHc7mPV-19" value="Hedger DB" style="image;aspect=fixed;perimeter=ellipsePerimeter;html=1;align=center;shadow=0;dashed=0;spacingTop=3;image=img/lib/active_directory/databases.svg;" vertex="1" parent="1">
          <mxGeometry x="390" y="-340" width="50" height="49" as="geometry" />
        </mxCell>
        <mxCell id="23ATxNzAXolhElHc7mPV-21" value="Broker Order&lt;br&gt;Maker" style="ellipse;whiteSpace=wrap;html=1;aspect=fixed;" vertex="1" parent="1">
          <mxGeometry x="717.5" y="-40" width="80" height="80" as="geometry" />
        </mxCell>
        <mxCell id="23ATxNzAXolhElHc7mPV-24" value="Broker Order Monitoring" style="swimlane;whiteSpace=wrap;html=1;" vertex="1" parent="1">
          <mxGeometry x="740" y="160" width="195" height="260" as="geometry" />
        </mxCell>
        <mxCell id="23ATxNzAXolhElHc7mPV-22" value="Broker Order&lt;br&gt;Status Fetcher&amp;nbsp;&lt;br&gt;API" style="ellipse;whiteSpace=wrap;html=1;aspect=fixed;" vertex="1" parent="23ATxNzAXolhElHc7mPV-24">
          <mxGeometry x="55" y="35" width="90" height="90" as="geometry" />
        </mxCell>
        <mxCell id="23ATxNzAXolhElHc7mPV-23" value="Broker Order&lt;br&gt;Status Fetcher&amp;nbsp;&lt;br&gt;WebSocket" style="ellipse;whiteSpace=wrap;html=1;aspect=fixed;" vertex="1" parent="23ATxNzAXolhElHc7mPV-24">
          <mxGeometry x="55" y="140" width="90" height="90" as="geometry" />
        </mxCell>
        <mxCell id="23ATxNzAXolhElHc7mPV-29" value="Hedger WebServer" style="swimlane;whiteSpace=wrap;html=1;" vertex="1" parent="1">
          <mxGeometry x="60" y="-400" width="200" height="210" as="geometry" />
        </mxCell>
        <mxCell id="23ATxNzAXolhElHc7mPV-31" value="Hedger WebSockets" style="ellipse;whiteSpace=wrap;html=1;aspect=fixed;" vertex="1" parent="23ATxNzAXolhElHc7mPV-29">
          <mxGeometry x="60" y="29" width="80" height="80" as="geometry" />
        </mxCell>
        <mxCell id="23ATxNzAXolhElHc7mPV-20" value="Hedger APIs" style="ellipse;whiteSpace=wrap;html=1;aspect=fixed;" vertex="1" parent="23ATxNzAXolhElHc7mPV-29">
          <mxGeometry x="60" y="120" width="80" height="80" as="geometry" />
        </mxCell>
        <mxCell id="23ATxNzAXolhElHc7mPV-32" value="Broker" style="sketch=0;outlineConnect=0;fontColor=#232F3E;gradientColor=none;fillColor=#7AA116;strokeColor=none;dashed=0;verticalLabelPosition=bottom;verticalAlign=top;align=center;html=1;fontSize=12;fontStyle=0;aspect=fixed;pointerEvents=1;shape=mxgraph.aws4.bank;" vertex="1" parent="1">
          <mxGeometry x="1220" y="-38" width="78" height="78" as="geometry" />
        </mxCell>
        <mxCell id="23ATxNzAXolhElHc7mPV-33" value="SYMMIO Front-End" style="shape=image;imageAspect=0;aspect=fixed;verticalLabelPosition=bottom;verticalAlign=top;image=data:image/png,iVBORw0KGgoAAAANSUhEUgAAAgAAAAIACAYAAAD0eNT6AAAABHNCSVQICAgIfAhkiAAAAAlwSFlzAAAOxAAADsQBlSsOGwAAABl0RVh0U29mdHdhcmUAd3d3Lmlua3NjYXBlLm9yZ5vuPBoAACAASURBVHic7d13fBVlosbxZ85JJaGG3qQqoqKgCyIgYEEFAnZXERug4q7KqrurrmjE3gtWsKwi9oooiiKCirAWBBRBUJEOFmpIPWfuH1EvYsKZk5yZd86Z3/fzyWfvhXdmnryGM0+mWgIABM6OOYNbKGSPsWUNktRGskole7FlWS9kh/WwddDrO0xnhLss0wEAAN7a/vHgYZaliZKyqxjyg6Kh43IOmTLfy1zwFgUAAAJkx9z8E2zZLyj25//WqMI9ax/82mIvcsF7IdMBAADe2PzBoPq27Ily9stfHUuRh9zOBHMoAAAQEGkZ1ihJ9Z2Ot6Q+Oz4e2MPFSDCIAgAAARGKakC8y9gKHelGFphHAQCAoLDUIv5lrFYuJIEPUAAAICBsKe5b+yxpmxtZYB4FAACCY0G8C0Qte6EbQWAeBQAAAsK27afjXGRrean9uithYBwFAAACIrfnG+9KetPpeFvWdfX6vLHJxUgwiAIAAAFSVmafLumLmANt64mcHq/f4X4imEIBAIAAqdfnjU21skt729I9kkr/NMDSj7LtC2od/PrZliXb+4Q1Vzpy7IHlo6550HQOv0szHQAA4C1r/+mFksZsmXPUuHQr/cio7DYhSyXRqL0kZ7M90xo4rcR0xpoIWxpky863pQssJWeJ8QLvAgAApJTyUVd/JOmQiOx9Myde95XpPH7FKQAAQMqwRxa0lNRdktKkEwzH8TUKAAAgZZRb9sX69fS2Letv9lkFWYYj+RYFAACQEuxz/lXbkj1ypz9qHEmLDjMWyOcoAACAlFAezr5KUr0//KGlq+1z/lXbTCJ/owAAAJJe6aiCAyzZ/6jkr1pHwtk3eh4oCXAXAAAgqdnnFtSK2tE5trR/FUOitqUj0ieMm+lpMJ/jCAAAIGnZBQWhiCKTdrPzl6SQZeuVknPH7udZsCRAAQAAJCVbsiJro/fKto53MLxu2Lam2OcUNHc9WJLgFAAAIOnYF16YGSluMEGyz4hz0TVRKzQkY0LB564ESyIUAABAUrHPvbJZxE57QVKvaq5im2wNT3tk3GuJzJVsKAAAgKRgS1Zk5NjhknWnLOUlYI1Tw3Z4tPVIweqaryv5UAAAAL5mFxSEIms0WIpeKalHgle/2bLt20Kh8ARrQsFPCV63r1EAAAC+VDJq7D5plgbZss6TrXYub65Y0mTbCj2flrPlA+uuu4pc3p5xFAAAgK+UjbrmNkv2MEnNDEUoluw54Uh4lPVYwXeGMrguzXQAAAB2llZefm8kLfS1ZB0h6QhJjTzadLmkjyxLM6J2eIZaa4VH2zWCIwAAAN+yTyrIiNSPDpWtMZIOcWkzW2zbeiItZN1hTShY6dI2fIcCkNxaSuorqYWk5pKyzcYBEABFktZKWiPp/V//1xNl5xYMsOzo/ZI6JGiVpbasW9Ms6yZrQsGOBK0zaVAAkk+WpPMlDZN0oPhvCMAcW9KnkiZLelgVF9K5u8GzCrLK0+3/WLKvkBSuwao+CluhkdaEgiWJypZs2HkklzMkXS+plekgALCLlZL+I+kpLzZWNurqoyzpOUl141/aeiy82RptvVBQmvBgSYQCkBwyJT0k6SzDOQAglqcljVTFqQJXlZw7dr+wbU1TxWlQRyzLviI84bqbXYyVNCgA/pcr6W25d/ELACTaR5KOlrTd7Q2VjBq7T1jWh5LqxRpry7o+feK1Y93OlCx4G6C/hVRxOI2dP4Bk0kvSJHmwj8mceN1XdkgnSirb/UjrybSJ117tdp5kQgHwt6slDTUdAgCq4VhJV3mxofSHx82wZF9f1d/b0jfh3K3nWxUXLeJXFAD/aiPpctMhAKAGrpC0hxcbCrUI32hZml/JX9myQ6OD8GjfeFEA/Ot6VVz8BwDJKkvSOC82ZBUUlEft0N8r+Zsn0h8peM+LDMmGAuBPeZJOMR0CABJgmKSGXmwofWLBHNmavdMf2WE7cqsX205GvAvAn/IVx3+bo1p10ICW7VUrLd3FSNJbq5brtRWxn5nRZO++ar7fEa5mAWBGpKxY6758Tz8u+9jpImFJAyU96V6qnVihO6TooZIkW1OtR67/2pPtJiEKgD8NdjIoLRTSU/2P14ntOrudR5L0U/EORwWgXsvOanvIXz1IBMCEDn3P0g/zXtLnz/1HdjTiZJHB8qgAhFtoamSN1klqJiv0iBfbTFacAvAnR8+5/tf+vTzb+QPAzvbocYL2PGyk0+Ed3cyyM6ugICpZ70gqDaeLc/+7QQHwp+ZOBp2zV1e3cwBAldr0dHykz9FnWsJY0bcle471QIHrDyJKZpwC8J+QHFwwE7Is7VE75oOvAMA1OQ1ayLJCsu1orKGNVPHZFnNgIoQzw1PLiyKrvNhWMqMA+E9IDh7RHLIsnuMMwCzLqviK/XgdSx4WAGt8wVZJH3ixrWTGKQAAAAKIAgAAQABRAAAACCAKAAAAAcRFgPClTasWad3Cd7Vj0xpFyktNxwGqLT0zR7WbdVSrroOVVbdxzVZm29qw5ANtXPqRirduVNTZQ3hiysxtoPqtu6hl14EKp2clZJ3wPwoAfCUaKdcXL1ytFXNfMB0FSKjFb96tA04s0B7dj6/W8qWFmzXvvxfqx2VzE5zsN5P19bR7dPA596teq31d2gb8hFMA8JVFr93Ezh8pKVJapM+fuUIbvp4de/CubFtzH7vAxZ1/hR2b1urDh85R8ZaNrm4H/kABgG8U/rxa33042XQMwDW2HdWiKfG/nG7dlzP007efuJDoz0oLN2npjIc92RbMogDANzYu/dDpi0WApLV13VIVbV4f1zLrl1TjqEENVOsoBZIOBQC+Ubpji+kIgCdKCzfHNb7M438bpYWbPN0ezKAAwDdy8lqajgC4zgqFVatBfO/GqdXA238bOXmtPd0ezKAAwDea7H2o0mvVNR0DcFXTvfsqPbtOXMu06ja44pn7Hml1YL5n24I5FAD4RnpWbR1wwtWeftABXsrIqacux18V93J1W+ytjv1HuJDozxq06ap2vYd5si2YRQGAr7Q6cIh6nDVe2XWbmI4CJFRe227qe/HzyslrVa3l98v/l/Yb8m+lZeYkOFkFywppj+7Hq/foxxVKy3BlG/AXHgQE32mx/1Fqvt8R+uWHBSressF0HKBGrFBYtZu0V+0m7Wu4IksdDxupdr2H6ecV8xN6YWAoPVP1W+2nrDqNErZO+B8FAL5khcLKa9vNdAzAd8IZ2Wq85yGmYyAFcAoAAIAAogAAABBAFAAAAAKIAgAAQABRAAAACCAKAAAAAUQBAAAggCgAAAAEEA8CSlKRaFR/nfGip9tcsvknR+PWLpyu7T+ucDcMAF+w7ajpCKgm3rriP2mSykyHAIAES5dUbjoE/h+nAAAACCAKAAAAAUQBAAAggLgIcDeu/2JwizSrfIwte5Bkt5GsUkmLZdkvlJRmPlxw0Os7XNgs12UASEV8tvkM/0GqcNPCAcNka6JkZVcx5AfZoeOuOGDa/ARvmosAAaQiLgL0GQpAJW5acNQJkl5QrPmxtNUuD/W8stu0xQncPAUAQCqiAPgM1wDs4qaFg+pLmign5chWHSscfcj1UAAAJBgFYBe2ykdJqh/HIn1uXDCgh1t5AABwAxcB7iJka4Ad7zJW6EhJ89zIU5VwOKyJ/53s5SYB4E9GnTVMkUjEdAxUAwVgF7bUIu5lomrlRpbdsSxLQ4870evNAsAfnHv26aYjoJo4BbALS4r/1j7L3uZCFAAAXEMB2JWtBfEuYkkL3YgCAIBbKAC7sEN6Oq4FLG21rbTXXYoDAIArKAC7uKLL2+9K9ptOx9u2fd0VXd7Y5GYmAAASjQJQGSv9dEv6wsHAJ67oMv0O9wMBAJBYFIBKXNHljU1h2b0l3SOptJIhP1qyL7i8y1tnW5bivWsQAADjeBRwDHd+dVSDkjL7SIWsNratEktaklMrNPOijtNKXNqko0cBp6WlacPmYpciAIAzTeplqbzc0RN+eRSwz1AA/IcCACBpUACSF6cAAAAIIAoAAAABRAEAACCAeBcA/mBHYaGWL1+m9evWqqgo/qciA/CX7OxaatqsuTp06KhaOTmm48BHKACQJE2bOkWTnnhU78+coZJiLi4EUk1Wdrb69T9cw88coaMH5ZuOAx/gLgD/8fQugOXLluqi0aM0b+6cGq8LQHLoeUhv3fPABLXvsGeN18VdAMmLawACbOaMdzSgXy92/kDAfDznQw3o10vvv/eu6SgwiCMA/uPJEYAF8z/XoKP6qWgH5/mBoMrMytLUt2aq20F/qfY6OAKQvDgCEECbNv2iU08ays4fCLiS4mKdcdqJ2rJls+koMIACEEB33XazNqxfZzoGAB9Yt3aN7rnjVtMxYACnAPzH1VMAmzb9on06tuZKfwC/y8rO1uLlq1S3br24l+UUQPLiCEDAvP3mVHb+AP6guKhI099603QMeIwCEDCzZs4wHQGAD3FHQPDwIKCAWbN6laNxHdvkaf/OzV1OA8Bt8+av1Kp1W2KOW71qpQdp4CcUgIDZsGGDo3HP3XeauuzdzOU0ANy2YPE6HZg/Pua4jQ4/G5A6OAUQMBFnF+soJyfT5SQAvJCTk+FoXFlZzGuPkWIoAAAABFBQTgHkSuot6RBJnSTtKamFpBxJ2QZzAUBQ+PEQQ5GkQklrJC2VtETSHEkf/vrnKS2VC0BdSSdKOl1SL1XcgwoAwG+yf/1qKGn/nf68TBUl4ClJL0ra6n0096XiKYA2ku6XtE7SI5L6iZ0/AMC5dEn9JT2qin3JfZJaG03kglQqAA0kPSTpG0kXiEP7AICaqyXpb5KWq+KXy/pm4yROqhSAM1Rx7uY88ds+ACDx0lXxy+USVZxaTnrJXgByVXGO5glJjQxnAQCkvsaSJkl6UhX7oKSVzAWgtaR5koaZDgIACJzhkj6W1NJ0kOpK1gLQWdJHv/4vAAAm7KuKfdHepoNURzIWgI6SZiqJWxcAIGW0VsU+qYPpIPFKtgLQXNLbqjgHAwCAHzSR9JakpqaDxCOZHgSUrooHMrSt7grqt+6iJp16q0GbrqrdpL2y6jRSOD0rcQkTwI5G9MolnUzHAICEOu7OJbJCYdMx/iBSVqzirT9q24Zv9cv387VhyQfatGpRdVfXXtILqnh+gLOXrhiWTAXgBkk9410onJ6lNj1PVrvep6t242p3BwBAigmnZyknr5Vy8lqpaed+6jzoH9q28Xt998EkrZj7vCJlJfGusrekcZKuTHzaxEuWAtBL0mXxLtSy6yB1OfZKZdXljAEAILbajdtq/xOu1p6Hn6uFr9ygNQveincV/5Y0RdLcxKdLrGS4BiBN0gOSLMcLZOao+xl3qfuZd7PzBwDELbteU/U4e7z+MvxOpWXWimfRkCr2Wf4631GJZCgA50rq4nRwVp1G6nvRs2rZbbCLkQAAQdDqwHwdeuEzyqzdMJ7Fukoa4VKkhPF7AUhXxeEURzJzG6jP355S3RZcRAcASIx6LTvr0L9PVkZOXK8BuEI+fzS93wvA6XL4BqZQOF09Rz6s2k3auRwJABA0tZu0U8+RDykUdnzpXBtJp7qXqOb8XgBGOR24z+BL1aDNAW5mAQAEWF7bbuo88JJ4FjnXrSyJ4Oe7ADpIOtjJwHqt9lWHvmfFtfLykkJtWbtEJdt+lh2NVCOeO+xo1HQEAEi4NV+8JSvkn985rVBYmbXzVLd5J6Vl5jhermP/c7R6/lRtXr3YyfBDVPF8gG+rGdNVfi4AJ8vhlf/7Dfm34wdMbFq5UEvevl8bln6oaHlpTfIBABz635NjTEeoVCgtQ0069VGno/6m+q32izneCoW175B/68MHznSyekvSiZJuqWFMV/injv3ZYU4GNdhjfzXqGPtAgR2NaNGUWzTzrhO17qv32PkDABQtL9W6L2do5p0n6Msptzg6Itx4z0NUv7Xjm9MOr1FAF/m1AGSq4tBJTG0OPin2INvWZ0//W8vee0Sy7RpGAwCkHNvWN+89os+e/rej/YSjfU+FXpIyahLNLX4tAJ0kZccaZFkhNd//6JgrWzbrca389LVE5AIApLCVn76m5bOfjDmueZcBsixHu9BakvaqaS43+LUAOJqsui06KaNW3d2OKS3cpCVv3ZeQUACA1Pf1W/eqtHDzbsdk5jZQneZ7Ol0lBSAOHZ0Mqteic8wxKz95VWXF22ocCAAQDGVFWx0dNXayD/qVo32a1/xaABw9bimnUZuYY9Z9NbOmWQAAAbP+q/dijsl1sA/6VYOaZHGLXwtAbSeDYh3+l6TCn1fWOAwAIFi2//RDzDEZteo5XV1ujcK4xK8FIOYFgFLFu5xjKd3+S43DAACCxcm+I5zhaFclSc6fNOQhvz4IyNmrf63Yw2yHt/11OPJYxw8TcpNt21o+/WXTMQAgoToMOF6Wg89st9nRiJa/82rscU72Hc6/H/PfeCX8WgA8d/Qt/1ValuM255popFz37kcBAJBaBt4xKZ4X6bimvLhI973j+NB9SvPrKQAAAOAiCgAAAAFEAQAAIIAoAAAABBAFIGgcXrVaVhb7jVgA/C8ScXYnlB+u0Ie3zF+SCU/lNczT998tjzmu4O53dcLR+8ZxlwsAv7Ft6dXpXzkam9cwz+U08BsKQMA0adrM0bgX31ykF99c5HIaAH7RrFkL0xHgMU4BBEz3Hj1NRwDgQz16HmI6AjxGAQiYQflDTUcA4ENHD8w3HQEeowAETNt2HXTUMYNMxwDgI8cMHqI2bduZjgGPUQAC6OpxNyk9Pd10DAA+kJ6erquvvcF0DBhAAQigTnt31g233mk6BgAfuPG2u7TnXnubjgEDKAABNWLUaI259N+mYwAw6B//vELnjDzfdAwYQgEIsLHX3qD7HnpUtXJ8+apqAC7JycnVAxMe11XXXGc6CgyiAATcqaefqc8WLtXZI89TTk6u6TgAXJSbW1sjRo3WZ4uW6pTThpuOA8N4EBDUuElT3X73/brh5js0e9ZMLVowXxs2bNCPGzeYjgaghho1bqKmTZtqv/27qs+h/ZSZlWU6EnyCAoDfZWZl6cijjtGRRx1jOgoAwGWcAgAAIIAoAAAABBAFAACAAKIAAAAQQBQAAAACiAIAAEAAUQAAAAggCgAAAAFEAQAAIIB4EiD+YEdhoZYvX6b169aqqGiH6TieyM6upabNmqtDh46evxiJ+Wa+3WZyvuFvFABIkqZNnaJJTzyq92fOUElxsek4RmRlZ6tf/8M1/MwROnpQvqvbYr6Zb695Od9IDpwCCLjly5Zq4BGH6vS/Hq+3p70R2A9HSSouKtJbb07VsFOO0+AB/fTt8m8Svg3m+/8x397yYr6RXCgAATZzxjsa0K+X5s2dYzqK73w850MN6NdL77/3bsLWyXxX7eM5H+rIvocw3x5xY76RfCgAAbVg/ucafuoJ2rJls+kovrV58yaddvKx+vzTT2q8roVfzGe+Y9iyZbNOO/lYffbJ/2q8LuY7tkTON5ITBSCANm36RaeeNFRFO4JxEVRNlBQX64zTTqzRjmTz5k3Mt0O/zffmzZuqvQ7m27lEzDeSFwUggO667WZtWL/OdIyksW7tGt1zx63VXv6u227W+nVrE5gota1ft5b59lBN5xvJiwIQMJs2/aJHJjxgOkbSefjB8dU6CrB58yZNfPh+FxKltocfHF+t30qZ7+qp7nwjuVEAAubtN6cG+kro6iouKtL0t96Meznmu3pKiouZbw9Vd76R3CgAATNr5gzTEZJWda6Yfp/5rjbm21vcERA8PAgoYNasXuVoXMe6DbR/XlOX0/jDvA2rtapwa8xxq1etjHvdTue73h4d1KjT/nGvPxmtXzBP29avjjnOzfnu0CpHXfasE/f6k9H/vtys1RuKYo6rznwjuVEAAmbDhg2Oxj13+EnqktfE5TT+sODn9Trw5Qkxx210OHfVWWbQ3c+o0V5d4l5/MvpxyQJNPr57zHFuzvdTNx6o/ToGowAs/Garep4xO+a46sw3khunAAImUl7uaFxOeobLSfzD6fdaVlYW97rLHc53Rq3cuNedrNIdfq/lLs53Tq3g/O6TUyvsaFx15hvJjQIAAEAAUQAAAAggCgAAAAFEAQAAIIAoAAAABBAFAACAAKIAAAAQQBQAAAACiAIAAEAAUQAAAAggCgAAAAFEAQAAIIAoAAAABBAFAACAAKIAAAAQQBQAAAACiAIAAEAAUQAAAAggCgAAAAFEAQAAIIAoAAAABBAFIGgsy9GwsmjE5SD+EbFtR+Msh3NXnWUiZWVxrztZ2RGHP1suznd5eTTudSeraMTZz3d15hvJLc10AHgrr2Gevv9uecxxBZ+9rxPadlaqfyTYkl5d8bWjsXkN8+Jef17DPH337bKY4z4ef606HnV8tUpGMrFtW9+++5qjsW7O93UTlurYw5rJSvGfcFu2Xn9/vaOx1ZlvJDcKQMA0adrM0bgXv1usF79b7HKa5NKsWYu4l2nSxNl8L3v7JS17+6W415/K3Jzvl2es08sz1sW9/lRWnflGcuMUQMB079HTdISk1aPnIXEv0/1g5ru6mG9vVWe+kdwoAAEzKH+o6QhJ6+iB+XEvM5D5rrZjBg2Jexnmu/qqM99IbhSAgGnbroOOOmaQ6RhJ55jBQ9Smbbu4l2vbtr2OHjjYhUSpjfn2VnXnG8mNAhBAV4+7Senp6aZjJI309HRdfe0N1V7+6nE3Mt9xYL69VdP5RvKiAARQp70764Zb7zQdI2nceNtd2nOvvau9/F6dOuuOex5IYKLUxnx7q6bzjeRFAQioEaNGa8yl/zYdw/f+8c8rdM7I82u8nmFnnK0xl12egESpjfn2VqLmG8mJAhBgY6+9Qfc99Khq5eSYjuI7OTm5emDC47rqmusSts6xBdfr/ocfU05ObsLWmSqYb2+5Md9IPhSAgDv19DP12cKlOnvkeXxQSsrNra0Ro0brs0VLdcppwxO+/r8OO0OfLlyic0aez3yL+faa2/ON5MKDgKDGTZrq9rvv1w0336HZs2Zq0YL52rBhg37cuMF0NE80atxETZs21X77d1WfQ/spMyvL1e01btJUt919n66/+Xbmm/l2ndfzjeRBAcDvMrOydORRx+jIo44xHSUQmG9vMd/AH3EKAACAAKIAAAAQQBQAAAACiAIAAEAAUQAAAAggCgAAAAFEAQAAIIAoAAAABBAFAACAAKIAAAAQQBQAAAACiHcBYLfKysr0ykvP64NZM1W4fbvpOAmRk5urQ/sdpmOPP0np6emm4/xBKs/3cSecrLQ0f33kMN8IMn46UKVVK3/QaScN1eKvvjQdJeGenvRfjb/rNj39wmtq2aq16TiSUn++77v7dk1+/lXm2wN+nG/4D6cAUKnS0lL99YT8lPxw/M1XXy7SqScOUVlZmekogZjvLxctZL495Kf5hj9RAFCpF56drCVfLzYdw3WLv/pSLz73tOkYzLfHmG+AAoAqzJo5w3QEz7z/3rumIzDfHmO+AQoAqrB16xbTETzjh+/VDxm84ofv1Q8ZvBKk7xXxoQCgUm3atjcdwTNt23UwHYH59hjzDVAAUIVTTj1dlmWZjuE6y7J0yqmnm47BfHuM+QYoAKhC1wMP0t8uusR0DNddOOYy7d+1m+kYzLfHmG+AAoDdKLj+Zt14652qX7+B6SgJV79+A918+9265rqbTEf5HfPtLeYbQceDgFAly7J03gUX6eyR52vRgi+0ft1alUfKTceqkbRwmpo2a64uB3T13VMAmW9vMd8IOgoAYsrIyNCBf+luOkZgMN/eYr4RVJwCAAAggCgAAAAEEAUAAIAAogAAABBAFAAAAAKIAgAAQABRAAAACCAKAAAAAUQBAAAggHgSIGKa/9mnmvX+DG3dkhrvFa9br5769jtcB3Q70HSUSjHf3mK+EVQUAFRp69YtuuDcszVt6hTTUVwxMH+o7n/4MdWpU9d0FEmpP9+Dhhyr+x9+TLVr1zEdRRLzDXAKAJWybVtnnHpiyn44StKbr7+ms4adLNu2TUcJxHy/MeVVnXnaScy3R/w03/AnCgAq9cbrr+qDWTNNx3DdrJkzfLETYL69xXwDFABUYdobr5uO4Jlpb5r/XplvjzMw3wAFAJX76ceNpiN4ZuOG9aYjMN8eY74BCgCq0LxFS9MRPNOiZSvTEZhvjzHfAAUAVRhy7AmmI3hm6HEnmo7AfHuM+QYoAKhC/8OPDMSH5HEnnKy+/Q83HYP59hjzDVAAsBsPPfqkRowarXA4bDpKwoXDYY0872+6f8LjpqP8jvn2FvONoONBQKhSZmambr1rvC665J+a8+FsrV+/LunvKbYsS02bNlOvPn19d26U+fYW842gowAgppatWuvkU083HSMwmG9vMd8IKk4BAAAQQBQAAAACiAIAAEAAUQAAAAggCgAAAAFEAQAAIIAoAAAABBAFAACAAKIAAAAQQDwJEDH9/PNPmjfnI/2YIu9Qb9SosXoc0kt5eQ1NR6lUKs73wb16q0GDPNNRKsV8I6goAKhSeXm5brh2rB66/x6VlpaajpNQGRkZGv33Mbry6nFKS/PHP4NUn+8LLvyHrhh7LfPtAT/ON/yHnwxU6aILRum5pyeZjuGK0tJS3XPnrdq4cYPue+hR03Ekpf58333HLdq4cYPGP/iI6TiSmG+AawBQqQ9nv5+yH447e+apJzTnow9MxwjMfD896b/Mt4f8Mt/wJwoAKvXKS8+bjuCZV154znQE5tvrDMw3QAFA5VavWmk6gmdWrfrBdATm22PMN0ABQBUa+PQKeTfkNWxkOgLz7THmG6AAoAoDjh5oOoJn/PC9+iGDV/zwvfohg1eC9L0iPhQAVGrIsSeoe4+epmO47uCevZQ/9HjTMZhvjzHfAAUAVQiHw3rq+Vd0aL/DTEdxTb/DjtCk515WKGT+nwHz7S3mG+A5ANiNvLyGtGJ+cAAAGphJREFUemXqdH0wa6Zmvf+efvn5J9OREqJBXkP163+4eh/az3SUP2C+vcV8I+goAIipT9/+6tO3v+kYgcF8e4v5RlBxbAgAgACiAAAAEEAUAAAAAogCAABAAFEAAAAIIAoAAAABRAEAACCAKAAAAAQQBQAAgADiSYCIKRqNavmypdq4YYMikYjpODUSDofVuEkTdei4l2+fkc58e4v5RlBRALBbk598XDddX6B1a9eYjpJQzZq30JVjr9Vpw88yHeUPUnm+/3P1OJ16+pmmo/wB840goyKiSrfcOE4XXTAq5T4cJWnd2jW6cPRI3XbTdaaj/C7V5/vv549gvj3ix/mG/1AAUKlFCxfo9puvNx3DdbfedJ2++nKR6RjMt8eYb4ACgCo8O/lJRaNR0zFcF41G9ezkJ03HYL49xnwDFABU4btvl5mO4Jnly5aajsB8e4z5BigAqEJOTq7pCJ7Jza1tOgLz7THmG6AAoAq9D+1nOoJn+vTtbzoC8+0x5hugAKAKpw47Q+3adzQdw3UdOu6lU04bbjoG8+0x5hugAKAKmVlZeu7lKSn9Idm+w5569qXXlJmZaToK8+0x5hvgQUDYjXbtO+qDuZ/rmclPatbMGdq6dYvpSAlRp05d9e1/uE47/UxlZmWZjvM75ttbzDeCjgKA3crKztbZI8/T2SPPMx0lEJhvbzHfCDJOAQAAEEAUAAAAAogCAABAAFEAAAAIIAoAAAABRAEAACCAKAAAAAQQBQAAgACiAAAAEEAUAAAAAogCAABAAFEAAAAIIAoAAAABRAEAACCAKAAAAAQQBQAAgACiAAAAEEAUAAAAAogCAABAAFEAfMaSJVlWzHG2bcu2bQ8SAUDlHH8OWVbFZxt8hQLgM1Y4rKy6DWKOi0Qi2rB+nQeJAKBy69auUSQSiTkuq24DWeGwB4kQDwqAD+U0aupo3HPPPOVyEgCo2nNPT3I0LrdJc5eToDooAD5Ut2VbR+Nuvek6ffTBLJfTAMCffTBrpm675QZHY51+psFbaaYD4M/a9j1a382cGnNccVGRjs8/SieecpqOGHC0GjTI8yAdgCD75Zef9c7b0/TS88+ovLzc0TJt+hzlcipUBwXAh9ofPlTvjbtIdjQac2x5ebmenfyknp38pAfJACA+Viikdoflm46BSnAKwIdq5TVWu36DTMcAgBprf1i+cho2MR0DlaAA+FTvS29UKMwBGgDJywqHdcjF15qOgSpQAHyqfts91eXU80zHAIBqO2DYBWrQfm/TMVAFCoCPHfqvW9SqR1/TMQAgbs279VLvS280HQO7QQHwsVBaugbe+bQatOtkOgoAONag/d7KH/+8wukZpqNgNygAPpddv6H++tyHatd/sOkoABBTm94DdMrT7yu7fkPTURADBSAJZOTUVv69z6v3pTcqs3Y903EA4E8y69RXn3/erKEPvsrnVJLgMvMkYYXDOmjEpdr3hLP06aN3aOkbz2nb+tWmYwEIuNpNW2qvwX/VQSMudfQeE/gHBSDJZNXLU+9Lb1TvS27QxsXztep/s7R9/WoV/rhexVt+MR0PQIrLqttAOY2aKrdpK7Xqfqgad+7q6A2m8B8KQLKyLDXep5sa79PNdBIAQBLiGgAAAAKIAgAAQABRAAAACCAKAAAAAUQBAAAggCgAAAAEEAUAAIAAogAAABBAFAAAAAKIAgAAQABRAAAACCAKAAAAAUQBAAAggCgAAAAEEAUAAIAAogAAABBAFAAAAAKIAgAAQABRAAAACCAKAAAAAZRmOoBfPJl/gKyQZToGAMBFdtQ2HcE3KAC/2rpmhekIAAB4hlMAAAAEEAUAAIAAogAAABBAFAAAAAKIAgAAQABRAAAACCAKAAAAAUQBAAAggHgQ0K8WvT1GmZnmp+OYMx/Xtz/8HHNc79GPK6fhHh4kAoDUESkr0bs3H2M6hi+Y3+P5RJuW9ZWdlW46hjLSw47GZddrppy8Vi6nAYDUEikrNh3BNzgFAABAAFEAAAAIIAoAAAABRAEAACCAKAAAAAQQBQAAgACiAAAAEEAUAAAAAogCAABAAFmmA1RhkqTTYw3KzM1TWmat3Y4p/GW1ZNsxN9i2ZX1ZlvnpWLV+i8rKIjHHZddrqlDY/JMLASCp2HbFfiEWy1JOg5a7HVJeskMl22M/ul3SU5KGOxnopaR+FHDJ9p+dTn5M36/elJD1eKVo83rTEQAgddm2Cn9eZTqFq/x6CsCvuQAAiJf5w8uV8OuOlrfcAABSRWvTASrj1wLQ2HQAAAASxJf7NL8WgAzTAQAASBBf7tP8WgAAAICL/FoAoqYDAACQICWmA1TGrwVgm+kAAAAkyEbTASrj1wLwg+kAAAAkiC8fKODXBwE5OgJw/c2365hBQ9zOAgDAn0x7Y4quuvwyJ0NjP47WAL8WAEfyGjZSm7btTMcAAARQXsNGpiPUiF9PAQAAABdRAAAACCAKAAAAAUQBAAAggCgAAAAEEAUAAIAAogAAABBASf0cAADObN68SdOmTtHsWTO1+MuFWvH999q+veJ5W7m5tdW2XTt13reLDu3bX0cPyle9evUNJwbgNgoAkMKWfL1Y99xxi1575UWVlFT+PpLt27dp0cIFWrRwgZ57epIyMzM19PiTNObSf2mvTp09TgzAK5wCAFLQjsJC/fvSi3XowV31/LOTq9z5V6akpETPP/OU+vToqiv++Q8V7djhYlIAplAAgBSzbu0a5R9zmB55+H5FIpFqrycSiWjCg+N19OG9tWol7+cCUg0FAEghX3z+mQ7r00NffP5Zwtb55aKFGtC/lxbM/zxh6wRgHgUASBHr163VsFOO08YN6xO+7o0b1uuUE/K1ZrUv32oKoBooAEAKKC4q0rBTjtP6dWtd28aPGzdo2MnHakdhoWvbAOAdCgCQAq6/dmxCD/tXZdHCBRp3zX9c3w4A91EAgCS38ocVemzig55t77GJD2rJ14s92x4Ad1AAgCR38w3XxnWbX01FIhHdddtNnm0PgDsoAEAS+/nnn/TKi885Hp+Vla3hI/+mSa++q9kLV2j2whV68pV3NGzEaGVlZTtez5RXX9Ivv/xcncgAfIICACSxN19/TaWlpY7Gtmi1h554+W1dcOmV6rDX3kpPT1d6ero6duqsv192lR5/cZqat2ztaF2lpaWaNnVKTaIDMIwCACSxD2bNdDQuu1aO7nx4klq3bV/lmDbtO+rOhyc5PhLgdNsA/IkCACSxLxctdDTupNPP2e3O/zd7tOugk04/x9E6Fy38wtE4AP5EAQCS2IoV3zkad/SQ4x2v0+nYFSu+d7xOAP5DAQCSVElJiUqKi2OOC4XD2qNN7N/+f9OmXUeFwuGY44qLihxffwDAfygAQLKybdMJACQxCgCQpDKzspSZmRlzXDQS0eqVKxyvd+WK7xR18BbBzKwsZWRkOF4vAH+hAABJrPUebR2Ne3vqK47XOf0NZ2PbtGnneJ0A/IcCACSxfffr4mjcc08+ojWrfog5bvXKFXr2iUccrXOfffdzNA6AP1EAgCTW+9B+jsYVbt+mS84brrWrV1Y5Zs3KH3TpecNVtMPZ2/769O3vaBwAf6IAAEls8JBjlZaW5mjsyu+/1ZnHD9BjD9z1h2sCVq9coUfvv1NnnnCUVjq8rTA9PV0D84dWJzIAn3D2yQHAlxo2aqxjBg3R66+97Gj89m3bNHH87Zo4/nal/3oBX1k1buUbOHioGjZsFPdyAPzDr0cAnN3fxG1QgC755xUKheL/p1xWWlqtnX8oFNIl/7oy7uWAlON8H+TLnZVfC4Cjk5CFhc7OVQKprMsBXXXa8LM8294ZZ490fPEhkMq2bd/mdOh2N3NUl18LgKNZ/eXnn9zOASSFG265Q3t33sf17bRt217XXHeT69sBksEvPzneBzluCl7yawFw9KLx5cuXuZ0DSAq5ubU16dmXVL9+A9e2UadOXT3xzIuqU6eua9sAksm3zvdBvvxt1a8FwNGsfvH5Z27nAJJG23Yd9NTzr7hSAmrXrqPJL7zKvf/ATj7/7FOnQ79xM0d1+bUALHEyaNk3S7R+3Vq3swBJ4+CevfTOrDnac6+9E7bONm3baer093VIrz4JWyeQ7NasXqVvlzvery91M0t1+bUAfCNpa6xBtm3r1Zdf8CAOkDzatuugt2d+qNOGnyXLsqq9nlAopNPPPEczP/qEi/6AXbzy0vNOh26Rw6PaXvNrASiXNNvJwCcff1Q2twMCf1CnTl2Nf/ARvTtrrgbmD1XYwet9fxMOhzVoyLGaMXue7rl/Auf8gV1Eo1FNfvK/TofPkhT77VoGVP/XA/eNkXSXk4FPPP2CBg85zuU4QPLasH6dpk55RbPfn6mvFi3UypUrFPn1jX/hcFitW7fRvl32V59+/ZU/5Dg1btLUcGLAv1575UWdM/yvTodfLOleF+NUm58LQHNJKyXF/NWlbdv2+uiTBcrMynI/FZAitm7dIsuyVLt2HdNRgKRRXFSkXt3314rvHT02OyKplaR17qaqHufHBb23TVJvSe1jDdy8eZNKS0vV77Aj3E8FpIjMzCxlZmaajgEklYKxV+jd6dOcDp8u6SEX49SInwuAVPH0pFOcDPxk3sfar8sB6rjnXi5HAgAE0dQpr+iqyy+LZ5HL5NM7ACR/nwKQKi5SXCjJ0SPOsmvV0ktT3lKPgw9xNxUAIFDmfvyRThhytIqLipwuskjS/vLpewAk/94F8JuopOudDi7asUMnDR2o996d7mIkAECQvDv9LZ107MB4dv6SNE4+3vlL/j8FIElfSeonqY2TwWVlpXrlxeeUFg6rR89eNboPGgAQXNFoVHfccoMuuWi0SktK4ll0hqTLXYqVMMmyd9xH0ueSMuJZ6MC/dNetd4zXAd0OdCcVACAlff7pJ/rXpRdqvvPH/f6mRNIBcvhEW5OSpQBIcTwXYGeWZWnA0QM14twL1O+wI+J6IAoAIDgikYhmznhHj054QO+8Pa26D5m7UNJ9CY7mimQqAJakVyQNre4KGjZqrH79D1f3g3uq456d1LRZM+Xm1latnJzEpQQA+N6OwkJt375N69et07Jvlmjex3M06/339NOPG2uy2pcknZigiK5LpgIgSbUlzZTEMX0AgJ98Kqm/Km5fTwrJVgAkqbGkDyV1NB0EAABVvMCut6QfTQeJh99vA6zMRkmHSvrCdBAAQOB9KekwJdnOX0rOAiBJ61Vxa+AMwzkAAME1XVIvSWtMB6mOZL4kvkTSU5KKVHHeJVnLDAAgudiSbpU0QlKx4SzVlozXAFSmj6QH5fCRwQAAVNOXkkar4lq0pJbMRwB2tlLSRFW8QbCbpFpm4wAAUsxPksaq4rf+FWajJEaqHAHYWa6k8yVdpIr3MAMAUF0rJd0j6WFJhYazJFQqFoDfhFRxoeAwSUdLam40DQAgWayR9JYqrjObrYoX06WcVC4Au9pL0iGSOknaU1JLVRwtyJXEowBRXZlycMopIyNTmVlZHsRJfiXFxSotdfTilR2quBgYqI5CVTy0Z7uk1ZKWquL5/XNUcV9/ygtSAQDccJEqDg/u1snDR+gfV47zIE7yu+vGq/X8pEedDL1Y0r0uxwFSFrfOAQAQQBQAAAACiAIAAEAAUQAAAAggCgAAAAFEAQAAIIAoAAAABBAFAACAAKIAAAAQQBQAAAACKM10gFRjjyhoELGiR1qW3UqyyqKh0NK0jJ9nWuPH88xyAIBvUAASxB5+WU55Zs6NESt6vqQM+9fXLFjRqCLF9X+KjBp7TWjidQ9akm02KQAAnAJICHv05fWj2bU+sCz7IkkZlQxpaMu6PzLqmsdsXsAEAPABCkACRMozJtu2usYeaZ8VHTX2UvcTAQCwexSAGiobVXCEpGOcjrdlXW2Pvry+i5EA4A/sBQNydszNn2Q6B/yFAlBDlhU9Lc5FakfK0vNdCQMAldhRnNlfsofanx6YbjoL/IMCUEOWdEC8y9hWaH83sgBApezoYFuqvT3SvI/pKPAPCkANRW1lx7uMZSnXjSwAsKvNHwyqL1nDJClk2xeazgP/oADUkGVrTfzLRFe5kQUAdpWeFrpA+v2XjiFb5+R3MpkH/kEBqCErZE+Pd5mIpXfcyAIAOyv6aOAesuzLd/qjUChsP2Tb3I4MCkCNhcJlEyX94ngBW7MzJlw3z71EACDZz58UtkOhR6U/nnK0bPXdMXfQ+YZiwUcoADVkPXjzJknnytkT/jaFw9GRLkcCABW2LrrTtnR4pX9phe7ZPjd/gMeR4DMUgARImzjuJUnDJe3YzbAV0ah9uPXw9cs8ihWXMfPteqYzAKg525ZVODd/nCVdtJtR6ZbsF4rmDeKugACjACRI2sRxk8PhyJ62rNtt6WtJxZK2ytbHlqVLwrnbOmc8et180zl3duGi4vYXLy55ZszikkJllm4as7hky5jFJY/+fUlhc9PZAMTPntkvq2ju4Kcke6yD4XWist7ZPm/Qma4Hgy/xMqAEsh66YY2kf/765WuXfFXa1bbsGba081MJ60g6Jy2adsyFi4r7jN8v61tT+QDEp2hOft8dIftBSXs7XshWpiXrv4UfDz4xlG79Lfug11e6lxB+wxGAACqYaadFLfuZXXb+O2uWFrae9DQUgLjZtqztc4ccWTg3f2o0ZL+veHb+O7M02C63v9w+N/+u4o+OaZ/QkPAtjgAE0JamJYfJtvba3RhbOmTMV6UH3L1Pxhde5QLgTOHHg/Nl2YN2zLMGWIq2TcQ6bam2JXtMJBy+qHDu4HmS9W5UoWdrH/za4kSsH/7DEYBg2s/JINtSF7eDAKgmKxSVFHFhzbZkR2XbURfWDR/hCEAARW0r28lTQEK2arkeBkDccnpOfV3S65K0bV7+YSHbvlhSvlSjB/xstWRPsOz0+7N7vroiATHhcxQAAEhitXu8/p6k94rmDeoTtfWQZHWOeyW2plrh8AW1ur/GY8oDhFMAAJACsnu88UGtX6LdLGmS44Usldi2Ts/pOTWfnX/wcAQghRXMtNO2NC05zJb2tW3r9/eAW5Kjh39ELXvAxYtL6v7/cnaJLPuLep2yZhdYFucHAZ+xBk4rsW2duWPeoO8l6+oYw7eGbGtQds/XP/QkHHyHApCiLvmqtOtmq/SZ3672r86JQUs6ThVf//8ntqXNX5d+ftHi4r/e2znLl081BILMsmRLb1yzfe7gupZ0cRWjymxZJ2YfPIWdf4BxCiAFXbiouL1t2TMk7fZWvxroFpI187IF2xq7tH4ANZSzMvtSSe9W+peWfVHuwVN4K2nAUQBSUChsXb+bh/wkSotIRuZ/XN4GgGqyTn4hEopER1rStj/8ufR+re5THzaVC/5BAUgxBbYdsqQhXmzLtu3jYo8CYEp2rzd/sC375p3+KFoeDp1fcZoAQUcBSDE/L1eu5Nn9+0082g6AairNSH9A0vaK/896tc5fpiw1Ggi+UZOHRsCPbNsa83XpZlW82Mflbem7u/fJNPHc8LCkwyUdKekgVVzrUFfeFR8E2w5JWyQtlfSJpOmSZsqdp/IlROHHgx+UpfOjlnX4r88NADgCkHIsy5b0ojeb0gtebGcnGaq4qnmlpLclXSapn6RmYucP79RSxc9cP1W8+fMdST9IulAVP6P+E7LesKRtueG1H5iOAv+gAKSg8lD5WEnrXN7MMrsk4+bYwxLmOElLJN0tqbmH2wWcaCHpXkmLJQ01nOVPamWVzJSlKdZBn5WZzgL/4BRAirpwUXH7tLD1pC0d4sLqp5eHys++r1POWhfWvStL0jWSrhY/r0gOtqRbJV0piQdmwbf4QE1xl3xV2jViab+Qpazf/sy27YFy8luKpcmWrNn/v5yKIrb92fh9Mr16PWiapOf1h4cRAUnjZUmnSCo3HQSoDAUggC5eXHKVJV0Xa5xlW6Pv2ifjIS8yVeF+SRcY3D5QU+MlXWQ6BFAZrgGAX40WO38kvwslnWs6BFAZCgD8qJmk20yHABLkDklNTYcAdkUBCKCQ7EIn46Kyt7udpQrXSMoxtG0g0XJVcREr4CsUgACyLXu+k3FR6XO3s1SiraQRBrYLuGmkpDamQwA743XAAVSvU9bsTV+XzrekrrsZNt3Dq/13dqbi+Lk8/MijdO7oC3XgX7qrfv0GLsYCKmza9Is+++R/eviBe/Xeu9OdLpYuabgcXHwLeIW7AALqkq+L94za1nuqeIDJrpaXh8r7enSf/64+k9TNycAbbrlD5/+titedAx548L67ddXllzkd/omk7i7GAeLCKYCAunPvrG/sSNmBlmXdK2mVpDLZ+s6SblFJxl8M7fxzJR3gZOCIcy9g5w/jRv99jM4a4fgi/27i2hb4CEcA4CcHSvo01qD09HR9uWylGjZs5EEkYPd++nGj9unYWuXljp73002So2twALdxBAB+4uhWqa7dDmLnD99o2KixDuh2oNPh3A4I36AAwE+ynQxq1KSJ2zmAuDRu4ni/zlsr4RsUAPhJkZNBP27Y4HYOIC4bN6x3OnSHmzmAeFAA4CeOPkXnf/6pfvrpR7ezAI789ONGffH5Z06HO24KgNsoAPCTpZIisQaVlZXp1hu5nRr+cNP1BU4vAIxI+sbdNIBzYdMBgJ2UShoiqXmsgfM/+0R169bVQd0Pdj8VUIUHxt+lu2672enwTyU94GIcIC4UAPhNM0n9nAx8793p+vR/c9WgQZ4a5OUpK8vRNYRAjWzevEkfzp6lf11yoR6bGNfbsh+SNNulWEDceA4A/KatKg6T8phqpJIySR0l/WA6CPAbrgGA33wv6RHTIYAEmyB2/vAZjgDAjxpLWi6ptukgQAJsV8Vv/9wBAF/hGgD4UaGkTZIGmw4CJMDfxbl/+BAFAH71qSqOBPzFdBCgBu6TdL3pEEBlKADws3ck7Stpb9NBgGp4WdJISVHTQYDKUADgZ1FJz//6f/cV16wgOdiSbpV0vhw82AoAsHvHSfpWFR+ufPHl16/lkoYKAJBQGZIulrRW5j/o+eJr5681ki5Sxc8okBQ4pIpkFJbUX9IAVVwkuJekenL4OmGghookbVbFuyv+J2m6pPfF4X4kmf8D8Z4h+WZzZhIAAAAASUVORK5CYII=;" vertex="1" parent="1">
          <mxGeometry x="-310" y="-380.5" width="130" height="130" as="geometry" />
        </mxCell>
        <mxCell id="23ATxNzAXolhElHc7mPV-34" value="Web3 Agent" style="ellipse;whiteSpace=wrap;html=1;aspect=fixed;" vertex="1" parent="1">
          <mxGeometry x="100" y="-20" width="80" height="80" as="geometry" />
        </mxCell>
        <mxCell id="23ATxNzAXolhElHc7mPV-35" value="Balance&lt;br&gt;Manager" style="ellipse;whiteSpace=wrap;html=1;aspect=fixed;" vertex="1" parent="1">
          <mxGeometry x="100" y="-150" width="80" height="80" as="geometry" />
        </mxCell>
        <mxCell id="23ATxNzAXolhElHc7mPV-36" value="Position Validator" style="ellipse;whiteSpace=wrap;html=1;aspect=fixed;" vertex="1" parent="1">
          <mxGeometry x="730" y="-170" width="80" height="80" as="geometry" />
        </mxCell>
        <mxCell id="23ATxNzAXolhElHc7mPV-37" value="" style="endArrow=classic;html=1;rounded=0;entryX=0;entryY=0.507;entryDx=0;entryDy=0;exitX=0;exitY=0;exitDx=0;exitDy=0;entryPerimeter=0;edgeStyle=orthogonalEdgeStyle;curved=1;" edge="1" parent="1" source="23ATxNzAXolhElHc7mPV-34" target="23ATxNzAXolhElHc7mPV-35">
          <mxGeometry width="50" height="50" relative="1" as="geometry">
            <mxPoint x="80.88000000000011" y="-4.080000000000155" as="sourcePoint" />
            <mxPoint x="71.7157287525381" y="-128.2842712474619" as="targetPoint" />
            <Array as="points">
              <mxPoint x="60" y="-8" />
              <mxPoint x="60" y="-110" />
              <mxPoint x="100" y="-110" />
            </Array>
          </mxGeometry>
        </mxCell>
        <mxCell id="23ATxNzAXolhElHc7mPV-38" value="Party As stats" style="edgeLabel;html=1;align=center;verticalAlign=middle;resizable=0;points=[];" vertex="1" connectable="0" parent="23ATxNzAXolhElHc7mPV-37">
          <mxGeometry x="-0.0777" y="-2" relative="1" as="geometry">
            <mxPoint as="offset" />
          </mxGeometry>
        </mxCell>
        <mxCell id="23ATxNzAXolhElHc7mPV-40" value="Muon NetWork " style="shape=image;imageAspect=0;aspect=fixed;verticalLabelPosition=bottom;verticalAlign=top;image=data:image/svg+xml,PHN2ZyB4bWxucz0iaHR0cDovL3d3dy53My5vcmcvMjAwMC9zdmciIGZpbGw9Im5vbmUiIHZpZXdCb3g9IjAgMCA5OTQgNjc0IiBoZWlnaHQ9IjY3NCIgd2lkdGg9Ijk5NCI+JiN4YTs8ZyBjbGlwLXBhdGg9InVybCgjY2xpcDApIj4mI3hhOzxnIGZpbHRlcj0idXJsKCNmaWx0ZXIwX2RpaSkiPiYjeGE7PGVsbGlwc2UgZmlsbD0iIzMxMzE0NCIgcnk9IjIxNSIgcng9IjQ2NSIgY3k9IjQyNyIgY3g9IjQ5NyIvPiYjeGE7PC9nPiYjeGE7PGcgZmlsdGVyPSJ1cmwoI2ZpbHRlcjFfZGlpKSI+JiN4YTs8ZWxsaXBzZSBmaWxsPSIjMzEzMTQ0IiByeT0iMjE1IiByeD0iNDY1IiBjeT0iMzY3IiBjeD0iNDk3Ii8+JiN4YTs8L2c+JiN4YTs8ZyBmaWx0ZXI9InVybCgjZmlsdGVyMl9kaWkpIj4mI3hhOzxlbGxpcHNlIGZpbGw9IiMzMTMxNDQiIHJ5PSIyMTUiIHJ4PSI0NjUiIGN5PSIzMDciIGN4PSI0OTciLz4mI3hhOzwvZz4mI3hhOzxnIGZpbHRlcj0idXJsKCNmaWx0ZXIzX2RpaSkiPiYjeGE7PGVsbGlwc2UgZmlsbD0iIzMxMzE0NCIgcnk9IjIxNSIgcng9IjQ2NSIgY3k9IjI0NyIgY3g9IjQ5NyIvPiYjeGE7PC9nPiYjeGE7PGcgZmlsdGVyPSJ1cmwoI2ZpbHRlcjRfZCkiPiYjeGE7PHBhdGggZmlsbC1vcGFjaXR5PSIwLjYiIGZpbGw9IiM1MTU4RjYiIGQ9Ik0yMzQuNjM3IDE5OS43NDVDMjM4LjU3MiAyMDAuNzk2IDI0My42MDQgMjAwLjE3MiAyNDUuODc2IDE5OC4zNTNDMjQ4LjE0NyAxOTYuNTM0IDI0Ni43OTkgMTk0LjIwNyAyNDIuODY0IDE5My4xNTdDMjM4LjkyOSAxOTIuMTA2IDIzMy44OTcgMTkyLjczIDIzMS42MjYgMTk0LjU0OUMyMjkuMzU0IDE5Ni4zNjggMjMwLjcwMiAxOTguNjk1IDIzNC42MzcgMTk5Ljc0NVoiLz4mI3hhOzxwYXRoIGZpbGw9IiM1MTU4RjYiIGQ9Ik0zMzguNjc1IDIyMi4yMDZDMzQyLjYxIDIyMy4yNTcgMzQ3LjY0MiAyMjIuNjM0IDM0OS45MTQgMjIwLjgxNEMzNTIuMTg2IDIxOC45OTQgMzUwLjgzOCAyMTYuNjY4IDM0Ni45MDIgMjE1LjYxN0MzNDIuOTY3IDIxNC41NjcgMzM3LjkzNiAyMTUuMTkgMzM1LjY2MyAyMTcuMDFDMzMzLjM5MSAyMTguODI5IDMzNC43NCAyMjEuMTU2IDMzOC42NzUgMjIyLjIwNloiIG9wYWNpdHk9IjAuNiIvPiYjeGE7PHBhdGggZmlsbD0iIzUxNThGNiIgZD0iTTM0My43MzYgMjQ4LjcwN0MzNDcuNjcxIDI0OS43NTcgMzUyLjcwMyAyNDkuMTM0IDM1NC45NzQgMjQ3LjMxNUMzNTcuMjQ2IDI0NS40OTUgMzU1Ljg5OCAyNDMuMTY5IDM1MS45NjMgMjQyLjExOEMzNDguMDI4IDI0MS4wNjggMzQyLjk5NiAyNDEuNjkxIDM0MC43MjQgMjQzLjUxMUMzMzguNDUzIDI0NS4zMyAzMzkuODAxIDI0Ny42NTYgMzQzLjczNiAyNDguNzA3WiIgb3BhY2l0eT0iMC42Ii8+JiN4YTs8cGF0aCBmaWxsPSIjNTE1OEY2IiBkPSJNNDQ1LjQ1NyAyNTcuNDRDNDQ5LjM5MyAyNTguNDkgNDU0LjQyNSAyNTcuODY3IDQ1Ni42OTcgMjU2LjA0N0M0NTguOTY5IDI1NC4yMjcgNDU3LjYyIDI1MS45MDEgNDUzLjY4NSAyNTAuODVDNDQ5Ljc1IDI0OS44IDQ0NC43MTggMjUwLjQyMyA0NDIuNDQ2IDI1Mi4yNDNDNDQwLjE3NCAyNTQuMDYyIDQ0MS41MjIgMjU2LjM4OSA0NDUuNDU3IDI1Ny40NFoiLz4mI3hhOzxwYXRoIGZpbGwtb3BhY2l0eT0iMC42IiBmaWxsPSIjNTE1OEY2IiBkPSJNMzY1Ljg1MSAxMDAuNzk5QzM2OS43ODYgMTAxLjg1IDM3NC44MTggMTAxLjIyNyAzNzcuMDkgOTkuNDA3MUMzNzkuMzYyIDk3LjU4NzcgMzc4LjAxNCA5NS4yNjExIDM3NC4wNzkgOTQuMjEwNkMzNzAuMTQ0IDkzLjE2MDIgMzY1LjExMiA5My43ODM2IDM2Mi44NCA5NS42MDNDMzYwLjU2OCA5Ny40MjI1IDM2MS45MTYgOTkuNzQ5IDM2NS44NTEgMTAwLjc5OVoiLz4mI3hhOzxwYXRoIGZpbGwtb3BhY2l0eT0iMC42IiBmaWxsPSIjNTE1OEY2IiBkPSJNMzIxLjMwNiAxNDQuNDUxQzMyNy4zOTkgMTQ2LjA3OCAzMzUuMTkgMTQ1LjExMyAzMzguNzA4IDE0Mi4yOTVDMzQyLjIyNiAxMzkuNDc4IDM0MC4xMzggMTM1Ljg3NiAzMzQuMDQ1IDEzNC4yNDlDMzI3Ljk1MiAxMzIuNjIzIDMyMC4xNjEgMTMzLjU4OCAzMTYuNjQzIDEzNi40MDVDMzEzLjEyNSAxMzkuMjIyIDMxNS4yMTMgMTQyLjgyNSAzMjEuMzA2IDE0NC40NTFaIi8+JiN4YTs8cGF0aCBmaWxsPSIjNTE1OEY2IiBkPSJNNDQwLjg2MyAyNDAuMTMyQzQ0NS45MzkgMjQxLjQ4NyA0NTIuNDM0IDI0MC42ODIgNDU1LjM2NSAyMzguMzM1QzQ1OC4yOTcgMjM1Ljk4NyA0NTYuNTU2IDIzMi45ODUgNDUxLjQ3OSAyMzEuNjNDNDQ2LjQwMSAyMzAuMjc0IDQzOS45MDkgMjMxLjA3OCA0MzYuOTc3IDIzMy40MjZDNDM0LjA0NiAyMzUuNzc0IDQzNS43ODQgMjM4Ljc3NiA0NDAuODYzIDI0MC4xMzJaIi8+JiN4YTs8cGF0aCBmaWxsLW9wYWNpdHk9IjAuNiIgZmlsbD0iIzUxNThGNiIgZD0iTTE5MC44MDEgMjQyLjQ1NkMxOTUuODc4IDI0My44MTIgMjAyLjM3IDI0My4wMDggMjA1LjMwMyAyNDAuNjU5QzIwOC4yMzQgMjM4LjMxMiAyMDYuNDk0IDIzNS4zMSAyMDEuNDE3IDIzMy45NTRDMTk2LjMzOSAyMzIuNTk5IDE4OS44NDYgMjMzLjQwNCAxODYuOTE1IDIzNS43NTFDMTgzLjk4MyAyMzguMDk5IDE4NS43MjMgMjQxLjEwMSAxOTAuODAxIDI0Mi40NTZaIi8+JiN4YTs8cGF0aCBmaWxsPSIjNTE1OEY2IiBkPSJNMjg5Ljc5MyAyMzguNzdDMjk1LjM3OCAyNDAuMjYxIDMwMi41MiAyMzkuMzc3IDMwNS43NDUgMjM2Ljc5NEMzMDguOTcgMjM0LjIxMSAzMDcuMDU2IDIzMC45MDkgMzAxLjQ3MSAyMjkuNDE4QzI5NS44ODUgMjI3LjkyNyAyODguNzQ0IDIyOC44MTIgMjg1LjUxOSAyMzEuMzk0QzI4Mi4yOTQgMjMzLjk3NyAyODQuMjA4IDIzNy4yNzkgMjg5Ljc5MyAyMzguNzdaIi8+JiN4YTs8cGF0aCBmaWxsPSIjNTE1OEY2IiBkPSJNMzUyLjEzOSAzMDMuMDkzQzM1Ny43MjMgMzA0LjU4NCAzNjQuODY2IDMwMy42OTggMzY4LjA5IDMwMS4xMTZDMzcxLjMxNSAyOTguNTM0IDM2OS40MDEgMjk1LjIzMiAzNjMuODE2IDI5My43NDFDMzU4LjIzIDI5Mi4yNSAzNTEuMDg4IDI5My4xMzQgMzQ3Ljg2NCAyOTUuNzE3QzM0NC42MzkgMjk4LjI5OSAzNDYuNTUyIDMwMS42MDIgMzUyLjEzOSAzMDMuMDkzWiIgb3BhY2l0eT0iMC42Ii8+JiN4YTs8cGF0aCBmaWxsPSIjNTE1OEY2IiBkPSJNMzQ4LjE1NCAyNzUuNjAzQzM1Mi41OTcgMjc2Ljc4OSAzNTguMjc3IDI3Ni4wODYgMzYwLjg0MyAyNzQuMDMxQzM2My40MDggMjcxLjk3NyAzNjEuODg1IDI2OS4zNTEgMzU3LjQ0MiAyNjguMTY1QzM1MyAyNjYuOTc5IDM0Ny4zMTkgMjY3LjY4MiAzNDQuNzU0IDI2OS43MzZDMzQyLjE4OCAyNzEuNzkxIDM0My43MTIgMjc0LjQxNyAzNDguMTU0IDI3NS42MDNaIiBvcGFjaXR5PSIwLjYiLz4mI3hhOzxwYXRoIGZpbGw9IiM1MTU4RjYiIGQ9Ik0xOTQuMTkyIDI3MC40MjNDMjAwLjg1NiAyNzIuMjAyIDIwOS4zNzggMjcxLjE0NiAyMTMuMjI1IDI2OC4wNjVDMjE3LjA3MyAyNjQuOTgzIDIxNC43ODkgMjYxLjA0NCAyMDguMTI1IDI1OS4yNjVDMjAxLjQ2MSAyNTcuNDg2IDE5Mi45NCAyNTguNTQxIDE4OS4wOTEgMjYxLjYyM0MxODUuMjQ0IDI2NC43MDQgMTg3LjUyNyAyNjguNjQ0IDE5NC4xOTIgMjcwLjQyM1oiLz4mI3hhOzxwYXRoIGZpbGw9IiM1MTU4RjYiIGQ9Ik00MTQuNzg3IDE0NS4xNzdDNDI1LjAwNSAxNDcuOTA1IDQzOC4wNzIgMTQ2LjI4NiA0NDMuOTcxIDE0MS41NjFDNDQ5Ljg3MSAxMzYuODM2IDQ0Ni4zNyAxMzAuNzk1IDQzNi4xNTEgMTI4LjA2N0M0MjUuOTMzIDEyNS4zMzkgNDEyLjg2NiAxMjYuOTU4IDQwNi45NjcgMTMxLjY4M0M0MDEuMDY3IDEzNi40MDggNDA0LjU2OCAxNDIuNDQ5IDQxNC43ODcgMTQ1LjE3N1oiLz4mI3hhOzxwYXRoIGZpbGw9IiM1MTU4RjYiIGQ9Ik00MTEuMDE5IDExNy4zOTJDNDIyLjE5IDEyMC4zNzQgNDM2LjQ3MyAxMTguNjA0IDQ0Mi45MjMgMTEzLjQzOUM0NDkuMzcyIDEwOC4yNzQgNDQ1LjU0NSAxMDEuNjcgNDM0LjM3NCA5OC42ODc5QzQyMy4yMDQgOTUuNzA1OSA0MDguOTIgOTcuNDc1NiA0MDIuNDcgMTAyLjY0QzM5Ni4wMjEgMTA3LjgwNSAzOTkuODQ4IDExNC40MSA0MTEuMDE5IDExNy4zOTJaIi8+JiN4YTs8cGF0aCBmaWxsPSIjNTE1OEY2IiBkPSJNMzY3LjEzNyAxNjAuNTE1QzM3Ni43MjEgMTYzLjA3MyAzODguOTc2IDE2MS41NTUgMzk0LjUwOSAxNTcuMTI0QzQwMC4wNDMgMTUyLjY5MiAzOTYuNzU5IDE0Ny4wMjYgMzg3LjE3NSAxNDQuNDY4QzM3Ny41OTEgMTQxLjkwOSAzNjUuMzM2IDE0My40MjggMzU5LjgwMyAxNDcuODU5QzM1NC4yNyAxNTIuMjkgMzU3LjU1MyAxNTcuOTU2IDM2Ny4xMzcgMTYwLjUxNVoiLz4mI3hhOzxwYXRoIGZpbGw9IiM1MTU4RjYiIGQ9Ik00MjEuNTc0IDE3MC4yOThDNDMxLjY2NSAxNzIuOTkyIDQ0NC41NjkgMTcxLjM5MyA0NTAuMzk2IDE2Ni43MjdDNDU2LjIyMiAxNjIuMDYxIDQ1Mi43NjUgMTU2LjA5NSA0NDIuNjczIDE1My40MDFDNDMyLjU4MSAxNTAuNzA3IDQxOS42NzcgMTUyLjMwNSA0MTMuODUxIDE1Ni45NzJDNDA4LjAyNCAxNjEuNjM4IDQxMS40ODIgMTY3LjYwNCA0MjEuNTc0IDE3MC4yOThaIi8+JiN4YTs8cGF0aCBmaWxsPSIjNTE1OEY2IiBkPSJNMzIyLjg5NiAxNzMuODU0QzMzMi41NDMgMTc2LjQzIDM0NC44NzkgMTc0LjkwMSAzNTAuNDQ5IDE3MC40NDFDMzU2LjAxOSAxNjUuOTggMzUyLjcxNCAxNjAuMjc2IDM0My4wNjYgMTU3LjcwMUMzMzMuNDE5IDE1NS4xMjYgMzIxLjA4MyAxNTYuNjU0IDMxNS41MTMgMTYxLjExNUMzMDkuOTQzIDE2NS41NzUgMzEzLjI0OCAxNzEuMjc5IDMyMi44OTYgMTczLjg1NFoiLz4mI3hhOzxwYXRoIGZpbGw9IiM1MTU4RjYiIGQ9Ik0zNzUuMjc3IDE4NC43OTFDMzg0LjQ4IDE4Ny4yNDcgMzk2LjI0OCAxODUuNzkgNDAxLjU2MSAxODEuNTM0QzQwNi44NzUgMTc3LjI3OSA0MDMuNzIyIDE3MS44MzggMzk0LjUxOSAxNjkuMzgxQzM4NS4zMTYgMTY2LjkyNSAzNzMuNTQ4IDE2OC4zODMgMzY4LjIzNCAxNzIuNjM4QzM2Mi45MjEgMTc2Ljg5MyAzNjYuMDc0IDE4Mi4zMzQgMzc1LjI3NyAxODQuNzkxWiIvPiYjeGE7PHBhdGggZmlsbD0iIzUxNThGNiIgZD0iTTQyOC45MzMgMTk1LjA3NkM0MzYuOTMgMTk3LjIxMSA0NDcuMTU2IDE5NS45NDQgNDUxLjc3MyAxOTIuMjQ3QzQ1Ni4zOTEgMTg4LjU0OSA0NTMuNjUxIDE4My44MjEgNDQ1LjY1MyAxODEuNjg2QzQzNy42NTYgMTc5LjU1MSA0MjcuNDMgMTgwLjgxOCA0MjIuODEzIDE4NC41MTZDNDE4LjE5NiAxODguMjEzIDQyMC45MzYgMTkyLjk0MiA0MjguOTMzIDE5NS4wNzZaIi8+JiN4YTs8cGF0aCBmaWxsPSIjNTE1OEY2IiBkPSJNMzgxLjY1MyAyMTAuMzdDMzg5LjY1IDIxMi41MDUgMzk5Ljg3NiAyMTEuMjM3IDQwNC40OTQgMjA3LjU0QzQwOS4xMTEgMjAzLjg0MiA0MDYuMzcxIDE5OS4xMTQgMzk4LjM3NCAxOTYuOTc5QzM5MC4zNzcgMTk0Ljg0NCAzODAuMTUxIDE5Ni4xMTEgMzc1LjUzMyAxOTkuODA5QzM3MC45MTYgMjAzLjUwNyAzNzMuNjU2IDIwOC4yMzUgMzgxLjY1MyAyMTAuMzdaIi8+JiN4YTs8cGF0aCBmaWxsPSIjNTE1OEY2IiBkPSJNMzI5LjI1MyAxOTkuMDcyQzMzNy4yNSAyMDEuMjA3IDM0Ny40NzYgMTk5Ljk0IDM1Mi4wOTIgMTk2LjI0M0MzNTYuNzEgMTkyLjU0NSAzNTMuOTcgMTg3LjgxNyAzNDUuOTczIDE4NS42ODJDMzM3Ljk3NiAxODMuNTQ3IDMyNy43NDkgMTg0LjgxNCAzMjMuMTMyIDE4OC41MTJDMzE4LjUxNiAxOTIuMjA5IDMyMS4yNTUgMTk2LjkzNyAzMjkuMjUzIDE5OS4wNzJaIi8+JiN4YTs8cGF0aCBmaWxsPSIjNTE1OEY2IiBkPSJNMjgxLjA4NSAyMTUuMTlDMjkwLjIyNSAyMTcuNjMgMzAxLjkxMSAyMTYuMTgyIDMwNy4xODggMjExLjk1N0MzMTIuNDY1IDIwNy43MzEgMzA5LjMzMyAyMDIuMzI3IDMwMC4xOTQgMTk5Ljg4N0MyOTEuMDU0IDE5Ny40NDggMjc5LjM2NyAxOTguODk1IDI3NC4wOSAyMDMuMTIyQzI2OC44MTQgMjA3LjM0NyAyNzEuOTQ1IDIxMi43NTEgMjgxLjA4NSAyMTUuMTlaIi8+JiN4YTs8cGF0aCBmaWxsPSIjNTE1OEY2IiBkPSJNMjM1LjAzNSAyMjkuNjA4QzI0My4xNTkgMjMxLjc3NyAyNTMuNTQ4IDIzMC40OSAyNTguMjM4IDIyNi43MzNDMjYyLjkyOSAyMjIuOTc3IDI2MC4xNDUgMjE4LjE3NCAyNTIuMDIxIDIxNi4wMDVDMjQzLjg5NiAyMTMuODM3IDIzMy41MDkgMjE1LjEyMyAyMjguODE4IDIxOC44OEMyMjQuMTI4IDIyMi42MzYgMjI2LjkxMSAyMjcuNDQgMjM1LjAzNSAyMjkuNjA4WiIvPiYjeGE7PHBhdGggZmlsbD0iIzUxNThGNiIgZD0iTTM5MC42NiAyNjQuMTM4QzM5OS43MzQgMjY2LjU2IDQxMS4zNDEgMjY1LjEyMyA0MTYuNTgxIDI2MC45MjZDNDIxLjgyMiAyNTYuNzMgNDE4LjcxIDI1MS4zNjMgNDA5LjYzNiAyNDguOTQxQzQwMC41NTkgMjQ2LjUxOCAzODguOTUzIDI0Ny45NTUgMzgzLjcxMyAyNTIuMTUyQzM3OC40NzMgMjU2LjM0OSAzODEuNTgzIDI2MS43MTQgMzkwLjY2IDI2NC4xMzhaIi8+JiN4YTs8cGF0aCBmaWxsPSIjNTE1OEY2IiBkPSJNMzg1LjE3NiAyMzcuNzM1QzM5NC4zMTUgMjQwLjE3NSA0MDYuMDAyIDIzOC43MjcgNDExLjI3OSAyMzQuNTAxQzQxNi41NTYgMjMwLjI3NSA0MTMuNDI0IDIyNC44NzIgNDA0LjI4NCAyMjIuNDMyQzM5NS4xNDUgMjE5Ljk5MiAzODMuNDU4IDIyMS40NCAzNzguMTgyIDIyNS42NjVDMzcyLjkwNSAyMjkuODkyIDM3Ni4wMzYgMjM1LjI5NSAzODUuMTc2IDIzNy43MzVaIi8+JiN4YTs8cGF0aCBmaWxsPSIjNTE1OEY2IiBkPSJNMjM4LjcyMiAyNTcuMDlDMjQ3Ljg2MiAyNTkuNTI5IDI1OS41NDggMjU4LjA4MiAyNjQuODI2IDI1My44NTVDMjcwLjEwMyAyNDkuNjI5IDI2Ni45NzIgMjQ0LjIyNiAyNTcuODMyIDI0MS43ODZDMjQ4LjY5MiAyMzkuMzQ2IDIzNy4wMDYgMjQwLjc5NCAyMzEuNzI4IDI0NS4wMkMyMjYuNDUxIDI0OS4yNDYgMjI5LjU4MyAyNTQuNjUgMjM4LjcyMiAyNTcuMDlaIi8+JiN4YTs8cGF0aCBmaWxsPSIjNTE1OEY2IiBkPSJNMjc4LjA2NCAxODYuNjgyQzI4NC44NTUgMTg4LjQ5NSAyOTMuNTM5IDE4Ny40MiAyOTcuNDYgMTg0LjI3OUMzMDEuMzggMTgxLjE0IDI5OS4wNTQgMTc3LjEyNCAyOTIuMjYzIDE3NS4zMTFDMjg1LjQ3MiAxNzMuNDk4IDI3Ni43ODcgMTc0LjU3NSAyNzIuODY3IDE3Ny43MTRDMjY4Ljk0NSAxODAuODU1IDI3MS4yNzMgMTg0Ljg3IDI3OC4wNjQgMTg2LjY4MloiLz4mI3hhOzxwYXRoIGZpbGw9IiM1MTU4RjYiIGQ9Ik00MzUuMjY1IDIyMC41N0M0NDIuMDU3IDIyMi4zODMgNDUwLjczOSAyMjEuMzA3IDQ1NC42NjEgMjE4LjE2N0M0NTguNTgxIDIxNS4wMjcgNDU2LjI1NSAyMTEuMDEyIDQ0OS40NjQgMjA5LjE5OUM0NDIuNjcyIDIwNy4zODYgNDMzLjk4OCAyMDguNDYyIDQzMC4wNjggMjExLjYwMkM0MjYuMTQ2IDIxNC43NDIgNDI4LjQ3NCAyMTguNzU3IDQzNS4yNjUgMjIwLjU3WiIvPiYjeGE7PHBhdGggZmlsbD0iIzUxNThGNiIgZD0iTTM2NC40NzUgMTMyLjQ1NEMzNzQuNTY3IDEzNS4xNDggMzg3LjQ3MSAxMzMuNTQ5IDM5My4yOTggMTI4Ljg4M0MzOTkuMTI0IDEyNC4yMTcgMzk1LjY2NiAxMTguMjUxIDM4NS41NzUgMTE1LjU1N0MzNzUuNDgzIDExMi44NjMgMzYyLjU3OSAxMTQuNDYyIDM1Ni43NTMgMTE5LjEyOEMzNTAuOTI2IDEyMy43OTQgMzU0LjM4NCAxMjkuNzYgMzY0LjQ3NSAxMzIuNDU0WiIvPiYjeGE7PHBhdGggZmlsbD0iIzUxNThGNiIgZD0iTTQ0NS44MjMgMjc4Ljg2MkM0NTIuNjc4IDI4MC42OTIgNDYxLjQ0MiAyNzkuNjA2IDQ2NS4zOTkgMjc2LjQzN0M0NjkuMzU4IDI3My4yNjcgNDY3LjAwOSAyNjkuMjE1IDQ2MC4xNTUgMjY3LjM4NUM0NTMuMyAyNjUuNTU1IDQ0NC41MzYgMjY2LjY0MSA0NDAuNTc4IDI2OS44MTFDNDM2LjYyIDI3Mi45OCA0MzguOTY5IDI3Ny4wMzIgNDQ1LjgyMyAyNzguODYyWiIvPiYjeGE7PHBhdGggZmlsbC1vcGFjaXR5PSIwLjYiIGZpbGw9IiM1MTU4RjYiIGQ9Ik03MDMuNjI4IDMyNC45NDJDNzA3LjU2MSAzMjUuOTkyIDcxMi41OTMgMzI1LjM2OSA3MTQuODY1IDMyMy41NDlDNzE3LjEzNyAzMjEuNzI5IDcxNS43ODkgMzE5LjQwMyA3MTEuODU1IDMxOC4zNTNDNzA3LjkyIDMxNy4zMDIgNzAyLjg4OCAzMTcuOTI2IDcwMC42MTYgMzE5Ljc0NUM2OTguMzQ0IDMyMS41NjUgNjk5LjY5MiAzMjMuODkxIDcwMy42MjggMzI0Ljk0MloiLz4mI3hhOzxwYXRoIGZpbGw9IiM1MTU4RjYiIGQ9Ik02MDkuNDI4IDI5NC40ODJDNjEzLjM2MyAyOTUuNTMzIDYxOC4zOTUgMjk0LjkxIDYyMC42NjcgMjkzLjA5QzYyMi45MzkgMjkxLjI3IDYyMS41OTEgMjg4Ljk0NCA2MTcuNjU1IDI4Ny44OTNDNjEzLjcyIDI4Ni44NDMgNjA4LjY4OCAyODcuNDY2IDYwNi40MTYgMjg5LjI4NkM2MDQuMTQ0IDI5MS4xMDUgNjA1LjQ5MiAyOTMuNDMyIDYwOS40MjggMjk0LjQ4MloiIG9wYWNpdHk9IjAuNiIvPiYjeGE7PHBhdGggZmlsbD0iIzUxNThGNiIgZD0iTTU1Ny4zNzUgMzA1LjczOEM1NjEuMzExIDMwNi43ODggNTY2LjM0MyAzMDYuMTY1IDU2OC42MTQgMzA0LjM0NkM1NzAuODg2IDMwMi41MjYgNTY5LjUzOCAzMDAuMiA1NjUuNjAyIDI5OS4xNDlDNTYxLjY2OSAyOTguMDk5IDU1Ni42MzcgMjk4LjcyMyA1NTQuMzY1IDMwMC41NDJDNTUyLjA5NCAzMDIuMzYxIDU1My40NDIgMzA0LjY4NyA1NTcuMzc1IDMwNS43MzhaIiBvcGFjaXR5PSIwLjYiLz4mI3hhOzxwYXRoIGZpbGw9IiM1MTU4RjYiIGQ9Ik00OTAuMTYgMjY5LjM3MkM0OTQuMDk1IDI3MC40MjMgNDk5LjEyNyAyNjkuNzk5IDUwMS4zOTkgMjY3Ljk4QzUwMy42NzEgMjY2LjE2IDUwMi4zMjMgMjYzLjgzNCA0OTguMzg3IDI2Mi43ODNDNDk0LjQ1MiAyNjEuNzMyIDQ4OS40MjIgMjYyLjM1NiA0ODcuMTUgMjY0LjE3NkM0ODQuODc4IDI2NS45OTYgNDg2LjIyNCAyNjguMzIyIDQ5MC4xNiAyNjkuMzcyWiIvPiYjeGE7PHBhdGggZmlsbC1vcGFjaXR5PSIwLjYiIGZpbGw9IiM1MTU4RjYiIGQ9Ik04MjMuMzU1IDIyMi45MjlDODI3LjI5IDIyMy45OCA4MzIuMzIyIDIyMy4zNTYgODM0LjU5NCAyMjEuNTM3QzgzNi44NjYgMjE5LjcxNyA4MzUuNTE3IDIxNy4zOTEgODMxLjU4MiAyMTYuMzRDODI3LjY0NyAyMTUuMjkgODIyLjYxNSAyMTUuOTEzIDgyMC4zNDMgMjE3LjczMkM4MTguMDcxIDIxOS41NTIgODE5LjQxOSAyMjEuODc4IDgyMy4zNTUgMjIyLjkyOVoiLz4mI3hhOzxwYXRoIGZpbGwtb3BhY2l0eT0iMC42IiBmaWxsPSIjNTE1OEY2IiBkPSJNNzYzLjg2MiAyNjIuNTkzQzc2OS45NTUgMjY0LjIxOSA3NzcuNzQ2IDI2My4yNTQgNzgxLjI2NCAyNjAuNDM3Qzc4NC43ODIgMjU3LjYyIDc4Mi42OTQgMjU0LjAxNyA3NzYuNjAxIDI1Mi4zOTFDNzcwLjUwOCAyNTAuNzY0IDc2Mi43MTcgMjUxLjczIDc1OS4xOTkgMjU0LjU0N0M3NTUuNjgxIDI1Ny4zNjQgNzU3Ljc2OSAyNjAuOTY2IDc2My44NjIgMjYyLjU5M1oiLz4mI3hhOzxwYXRoIGZpbGw9IiM1MTU4RjYiIGQ9Ik01MjQuODcyIDI2Mi41NThDNTI5Ljk1MSAyNjMuOTEzIDUzNi40NDMgMjYzLjEwOCA1MzkuMzc0IDI2MC43NjFDNTQyLjMwNiAyNTguNDEzIDU0MC41NjcgMjU1LjQxMiA1MzUuNDg5IDI1NC4wNTZDNTMwLjQxMiAyNTIuNzAxIDUyMy45MiAyNTMuNTA1IDUyMC45ODggMjU1Ljg1M0M1MTguMDU3IDI1OC4yIDUxOS43OTYgMjYxLjIwMyA1MjQuODcyIDI2Mi41NThaIi8+JiN4YTs8cGF0aCBmaWxsLW9wYWNpdHk9IjAuNiIgZmlsbD0iIzUxNThGNiIgZD0iTTY0NS40MzMgMzYzLjgxOUM2NTAuNTEgMzY1LjE3NCA2NTcuMDAxIDM2NC4zNjkgNjU5LjkzMyAzNjIuMDIxQzY2Mi44NjQgMzU5LjY3NCA2NjEuMTI2IDM1Ni42NzIgNjU2LjA0OSAzNTUuMzE3QzY1MC45NzEgMzUzLjk2MSA2NDQuNDc4IDM1NC43NjYgNjQxLjU0NyAzNTcuMTEzQzYzOC42MTUgMzU5LjQ2MSA2NDAuMzU1IDM2Mi40NjMgNjQ1LjQzMyAzNjMuODE5WiIvPiYjeGE7PHBhdGggZmlsbD0iIzUxNThGNiIgZD0iTTYwMi44MzkgMzIyLjMzOEM2MDguNDI0IDMyMy44MjggNjE1LjU2NyAzMjIuOTQ0IDYxOC43OTMgMzIwLjM2MUM2MjIuMDE3IDMxNy43NzkgNjIwLjEwMiAzMTQuNDc2IDYxNC41MTcgMzEyLjk4NkM2MDguOTMyIDMxMS40OTUgNjAxLjc5MSAzMTIuMzc5IDU5OC41NjYgMzE0Ljk2MkM1OTUuMzQxIDMxNy41NDUgNTk3LjI1NSAzMjAuODQ3IDYwMi44MzkgMzIyLjMzOFoiLz4mI3hhOzxwYXRoIGZpbGw9IiM1MTU4RjYiIGQ9Ik00NTEuMzEzIDMyOS41NjdDNDU2LjkgMzMxLjA1OCA0NjQuMDQyIDMzMC4xNzMgNDY3LjI2NiAzMjcuNTkxQzQ3MC40OTEgMzI1LjAwOCA0NjguNTc3IDMyMS43MDYgNDYyLjk5MSAzMjAuMjE1QzQ1Ny40MDYgMzE4LjcyNCA0NTAuMjY1IDMxOS42MDkgNDQ3LjA0IDMyMi4xOTFDNDQzLjgxNiAzMjQuNzczIDQ0NS43MjggMzI4LjA3NiA0NTEuMzEzIDMyOS41NjdaIiBvcGFjaXR5PSIwLjYiLz4mI3hhOzxwYXRoIGZpbGw9IiM1MTU4RjYiIGQ9Ik01MDQuNjc3IDMxNy4zODZDNTA5LjEyMSAzMTguNTcyIDUxNC43OTkgMzE3Ljg2OSA1MTcuMzY1IDMxNS44MTRDNTE5LjkzIDMxMy43NTkgNTE4LjQwOSAzMTEuMTM0IDUxMy45NjUgMzA5Ljk0OEM1MDkuNTIyIDMwOC43NjEgNTAzLjg0MyAzMDkuNDY1IDUwMS4yNzcgMzExLjUxOUM0OTguNzEyIDMxMy41NzQgNTAwLjIzMyAzMTYuMiA1MDQuNjc3IDMxNy4zODZaIiBvcGFjaXR5PSIwLjYiLz4mI3hhOzxwYXRoIGZpbGw9IiM1MTU4RjYiIGQ9Ik01OTEuMzU5IDM3Ni40NDVDNTk4LjAyNCAzNzguMjI1IDYwNi41NDUgMzc3LjE2OCA2MTAuMzkyIDM3NC4wODdDNjE0LjI0IDM3MS4wMDYgNjExLjk1OCAzNjcuMDY2IDYwNS4yOTIgMzY1LjI4N0M1OTguNjI5IDM2My41MDggNTkwLjEwNyAzNjQuNTYzIDU4Ni4yNTkgMzY3LjY0NUM1ODIuNDEyIDM3MC43MjYgNTg0LjY5NSAzNzQuNjY3IDU5MS4zNTkgMzc2LjQ0NVoiLz4mI3hhOzxwYXRoIGZpbGw9IiM1MTU4RjYiIGQ9Ik03MTUuNjQ4IDIyNS40OTFDNzI1Ljg2NyAyMjguMjE5IDczOC45MzIgMjI2LjYgNzQ0LjgzMiAyMjEuODc1Qzc1MC43MzIgMjE3LjE1IDc0Ny4yMzIgMjExLjEwOSA3MzcuMDEyIDIwOC4zODFDNzI2Ljc5NSAyMDUuNjUzIDcxMy43MjggMjA3LjI3MiA3MDcuODI4IDIxMS45OTdDNzAxLjkyOCAyMTYuNzIxIDcwNS40MyAyMjIuNzYzIDcxNS42NDggMjI1LjQ5MVoiLz4mI3hhOzxwYXRoIGZpbGw9IiM1MTU4RjYiIGQ9Ik03NjkuNTc3IDIxMy4xMDhDNzgwLjc0NyAyMTYuMDg5IDc5NS4wMzIgMjE0LjMyIDgwMS40ODEgMjA5LjE1NUM4MDcuOTMgMjAzLjk5IDgwNC4xMDIgMTk3LjM4NSA3OTIuOTMyIDE5NC40MDRDNzgxLjc2MSAxOTEuNDIyIDc2Ny40NzggMTkzLjE5MSA3NjEuMDI4IDE5OC4zNTZDNzU0LjU3OSAyMDMuNTIxIDc1OC40MDYgMjEwLjEyNSA3NjkuNTc3IDIxMy4xMDhaIi8+JiN4YTs8cGF0aCBmaWxsPSIjNTE1OEY2IiBkPSJNNzEwLjc1MiAyNTIuMjQyQzcyMC4zMzUgMjU0LjggNzMyLjU4OSAyNTMuMjgyIDczOC4xMjMgMjQ4Ljg1MUM3NDMuNjU2IDI0NC40MTkgNzQwLjM3MiAyMzguNzUzIDczMC43OSAyMzYuMTk1QzcyMS4yMDUgMjMzLjYzNiA3MDguOTUgMjM1LjE1NSA3MDMuNDE3IDIzOS41ODZDNjk3Ljg4NCAyNDQuMDE3IDcwMS4xNjggMjQ5LjY4MyA3MTAuNzUyIDI1Mi4yNDJaIi8+JiN4YTs8cGF0aCBmaWxsPSIjNTE1OEY2IiBkPSJNNjY1LjMyMyAyMzUuMzY2QzY3NS40MTUgMjM4LjA2IDY4OC4zMTggMjM2LjQ2MSA2OTQuMTQ0IDIzMS43OTVDNjk5Ljk3MSAyMjcuMTI5IDY5Ni41MTUgMjIxLjE2MyA2ODYuNDIyIDIxOC40NjhDNjc2LjMzMSAyMTUuNzc1IDY2My40MjcgMjE3LjM3MyA2NTcuNiAyMjIuMDM5QzY1MS43NzQgMjI2LjcwNSA2NTUuMjMyIDIzMi42NzIgNjY1LjMyMyAyMzUuMzY2WiIvPiYjeGE7PHBhdGggZmlsbD0iIzUxNThGNiIgZD0iTTcwNy44ODYgMjc2LjYyNkM3MTcuNTMzIDI3OS4yMDIgNzI5Ljg2OSAyNzcuNjczIDczNS40MzkgMjczLjIxM0M3NDEuMDA5IDI2OC43NTIgNzM3LjcwMyAyNjMuMDQ4IDcyOC4wNTYgMjYwLjQ3M0M3MTguNDA5IDI1Ny44OTggNzA2LjA3MyAyNTkuNDI2IDcwMC41MDMgMjYzLjg4N0M2OTQuOTMzIDI2OC4zNDcgNjk4LjIzOSAyNzQuMDUxIDcwNy44ODYgMjc2LjYyNloiLz4mI3hhOzxwYXRoIGZpbGw9IiM1MTU4RjYiIGQ9Ik02NjEuMzE4IDI2MS4xNDlDNjcwLjUyIDI2My42MDUgNjgyLjI4OSAyNjIuMTQ3IDY4Ny42MDIgMjU3Ljg5MkM2OTIuOTE1IDI1My42MzcgNjg5Ljc2MiAyNDguMTk2IDY4MC41NTkgMjQ1LjczOUM2NzEuMzU2IDI0My4yODMgNjU5LjU4OCAyNDQuNzQxIDY1NC4yNzUgMjQ4Ljk5NkM2NDguOTYxIDI1My4yNTEgNjUyLjExNSAyNTguNjkyIDY2MS4zMTggMjYxLjE0OVoiLz4mI3hhOzxwYXRoIGZpbGw9IiM1MTU4RjYiIGQ9Ik02MTUuMjIxIDI0NC44MDVDNjIzLjIxOSAyNDYuOTQgNjMzLjQ0NSAyNDUuNjczIDYzOC4wNjMgMjQxLjk3NkM2NDIuNjggMjM4LjI3OCA2MzkuOTM5IDIzMy41NSA2MzEuOTQyIDIzMS40MTVDNjIzLjk0NCAyMjkuMjggNjEzLjcxOSAyMzAuNTQ3IDYwOS4xMDIgMjM0LjI0NUM2MDQuNDg1IDIzNy45NDIgNjA3LjIyNCAyNDIuNjcgNjE1LjIyMSAyNDQuODA1WiIvPiYjeGE7PHBhdGggZmlsbD0iIzUxNThGNiIgZD0iTTYxMC4xMTQgMjcxLjM1N0M2MTguMTExIDI3My40OTIgNjI4LjMzOCAyNzIuMjI1IDYzMi45NTUgMjY4LjUyN0M2MzcuNTcyIDI2NC44MjkgNjM0LjgzMiAyNjAuMTAxIDYyNi44MzQgMjU3Ljk2NkM2MTguODM3IDI1NS44MzEgNjA4LjYxMiAyNTcuMDk4IDYwMy45OTUgMjYwLjc5NkM1OTkuMzc4IDI2NC40OTQgNjAyLjExNiAyNjkuMjIyIDYxMC4xMTQgMjcxLjM1N1oiLz4mI3hhOzxwYXRoIGZpbGw9IiM1MTU4RjYiIGQ9Ik02NTcuNTg0IDI4Ni43MTlDNjY1LjU4IDI4OC44NTQgNjc1LjgwNiAyODcuNTg4IDY4MC40MjMgMjgzLjg5QzY4NS4wNDEgMjgwLjE5MiA2ODIuMyAyNzUuNDYzIDY3NC4zMDUgMjczLjMyOUM2NjYuMzA3IDI3MS4xOTQgNjU2LjA4IDI3Mi40NjEgNjUxLjQ2MyAyNzYuMTU5QzY0Ni44NDYgMjc5Ljg1NyA2NDkuNTg3IDI4NC41ODQgNjU3LjU4NCAyODYuNzE5WiIvPiYjeGE7PHBhdGggZmlsbD0iIzUxNThGNiIgZD0iTTY1MS4zNjYgMzE0LjAzNkM2NjAuNTA2IDMxNi40NzYgNjcyLjE5MyAzMTUuMDI4IDY3Ny40NjkgMzEwLjgwM0M2ODIuNzQ2IDMwNi41NzYgNjc5LjYxNSAzMDEuMTczIDY3MC40NzQgMjk4LjczM0M2NjEuMzM2IDI5Ni4yOTMgNjQ5LjY0OSAyOTcuNzQxIDY0NC4zNzIgMzAxLjk2N0M2MzkuMDk2IDMwNi4xOTMgNjQyLjIyNyAzMTEuNTk2IDY1MS4zNjYgMzE0LjAzNloiLz4mI3hhOzxwYXRoIGZpbGw9IiM1MTU4RjYiIGQ9Ik02NDcuMzc2IDMzOS42ODJDNjU1LjUgMzQxLjg1MSA2NjUuODkgMzQwLjU2MyA2NzAuNTggMzM2LjgwN0M2NzUuMjcxIDMzMy4wNTEgNjcyLjQ4NiAzMjguMjQ4IDY2NC4zNjIgMzI2LjA3OUM2NTYuMjM4IDMyMy45MSA2NDUuODUgMzI1LjE5NyA2NDEuMTYgMzI4Ljk1M0M2MzYuNDcgMzMyLjcxIDYzOS4yNTIgMzM3LjUxMyA2NDcuMzc2IDMzOS42ODJaIi8+JiN4YTs8cGF0aCBmaWxsPSIjNTE1OEY2IiBkPSJNNTA0Ljg5OCAyOTQuNjMyQzUxMy45NzQgMjk3LjA1NSA1MjUuNTc5IDI5NS42MTcgNTMwLjgxOSAyOTEuNDIxQzUzNi4wNTkgMjg3LjIyNCA1MzIuOTUgMjgxLjg1OSA1MjMuODc0IDI3OS40MzZDNTE0Ljc5NyAyNzcuMDEzIDUwMy4xOTIgMjc4LjQ1MSA0OTcuOTUyIDI4Mi42NDdDNDkyLjcxMiAyODYuODQ0IDQ5NS44MjEgMjkyLjIwOSA1MDQuODk4IDI5NC42MzJaIi8+JiN4YTs8cGF0aCBmaWxsPSIjNTE1OEY2IiBkPSJNNTU3LjA5NSAyODMuNjI4QzU2Ni4yMzYgMjg2LjA2OCA1NzcuOTIyIDI4NC42MiA1ODMuMiAyODAuMzk0QzU4OC40NzYgMjc2LjE2OCA1ODUuMzQ0IDI3MC43NjUgNTc2LjIwNCAyNjguMzI1QzU2Ny4wNjUgMjY1Ljg4NSA1NTUuMzc5IDI2Ny4zMzMgNTUwLjEwMiAyNzEuNTU4QzU0NC44MjUgMjc1Ljc4NSA1NDcuOTU3IDI4MS4xODggNTU3LjA5NSAyODMuNjI4WiIvPiYjeGE7PHBhdGggZmlsbD0iIzUxNThGNiIgZD0iTTU5NC4xNzkgMzUxLjk3OEM2MDMuMzE4IDM1NC40MTggNjE1LjAwNCAzNTIuOTcgNjIwLjI4MiAzNDguNzQzQzYyNS41NTkgMzQ0LjUxNyA2MjIuNDI3IDMzOS4xMTQgNjEzLjI4OSAzMzYuNjc0QzYwNC4xNDggMzM0LjIzNCA1OTIuNDYyIDMzNS42ODIgNTg3LjE4NCAzMzkuOTA4QzU4MS45MDcgMzQ0LjEzNCA1ODUuMDM5IDM0OS41MzggNTk0LjE3OSAzNTEuOTc4WiIvPiYjeGE7PHBhdGggZmlsbD0iIzUxNThGNiIgZD0iTTcwNi4yNyAzMDAuOTkxQzcxMy4wNiAzMDIuODAzIDcyMS43NDQgMzAxLjcyOCA3MjUuNjY2IDI5OC41ODhDNzI5LjU4NiAyOTUuNDQ4IDcyNy4yNTkgMjkxLjQzMiA3MjAuNDY5IDI4OS42MTlDNzEzLjY3NiAyODcuODA2IDcwNC45OTMgMjg4Ljg4MyA3MDEuMDcyIDI5Mi4wMjJDNjk3LjE1MSAyOTUuMTYzIDY5OS40NzcgMjk5LjE3NyA3MDYuMjcgMzAwLjk5MVoiLz4mI3hhOzxwYXRoIGZpbGw9IiM1MTU4RjYiIGQ9Ik01NjQuMzE5IDI1NS4wMjFDNTcxLjEwOSAyNTYuODMzIDU3OS43OTQgMjU1Ljc1OCA1ODMuNzE1IDI1Mi42MThDNTg3LjYzNiAyNDkuNDc4IDU4NS4zMDggMjQ1LjQ2MiA1NzguNTE4IDI0My42NUM1NzEuNzI2IDI0MS44MzcgNTYzLjA0MyAyNDIuOTEzIDU1OS4xMjIgMjQ2LjA1M0M1NTUuMjAxIDI0OS4xOTMgNTU3LjUyNyAyNTMuMjA4IDU2NC4zMTkgMjU1LjAyMVoiLz4mI3hhOzxwYXRoIGZpbGw9IiM1MTU4RjYiIGQ9Ik03NjQuNzUgMjM5LjMwNkM3NzQuODQxIDI0MiA3ODcuNzQ1IDI0MC40MDEgNzkzLjU3MiAyMzUuNzM1Qzc5OS4zOTggMjMxLjA2OSA3OTUuOTQgMjI1LjEwMyA3ODUuODQ5IDIyMi40MDlDNzc1Ljc1NyAyMTkuNzE1IDc2Mi44NTIgMjIxLjMxMyA3NTcuMDI2IDIyNS45NzlDNzUxLjIgMjMwLjY0NSA3NTQuNjU4IDIzNi42MTIgNzY0Ljc1IDIzOS4zMDZaIi8+JiN4YTs8cGF0aCBmaWxsPSIjNTE1OEY2IiBkPSJNNDQ5Ljg0NiAyNzkuOTM2QzQ1Ni43IDI4MS43NjYgNDY1LjQ2NSAyODAuNjggNDY5LjQyMiAyNzcuNTExQzQ3My4zOCAyNzQuMzQxIDQ3MS4wMzIgMjcwLjI4OCA0NjQuMTc4IDI2OC40NTlDNDU3LjMyMyAyNjYuNjI5IDQ0OC41NTcgMjY3LjcxNCA0NDQuNTk5IDI3MC44ODRDNDQwLjY0MSAyNzQuMDUzIDQ0Mi45OTEgMjc4LjEwNiA0NDkuODQ2IDI3OS45MzZaIi8+JiN4YTs8cGF0aCBmaWxsPSIjNTE1OEY2IiBkPSJNNDQ2LjU4MyAyODAuMzQyQzQ1NC41OCAyODIuNDc3IDQ2NC44MDcgMjgxLjIxIDQ2OS40MjQgMjc3LjUxMkM0NzQuMDQyIDI3My44MTQgNDcxLjMgMjY5LjA4NyA0NjMuMzAzIDI2Ni45NTJDNDU1LjMwNSAyNjQuODE3IDQ0NS4wODEgMjY2LjA4MyA0NDAuNDY0IDI2OS43ODFDNDM1Ljg0NyAyNzMuNDc5IDQzOC41ODUgMjc4LjIwNyA0NDYuNTgzIDI4MC4zNDJaIi8+JiN4YTs8cGF0aCBmaWxsPSIjNTE1OEY2IiBkPSJNNDAxLjAwMiAzMTYuODQ1QzQwOSAzMTguOTggNDE5LjIyNSAzMTcuNzE0IDQyMy44NDMgMzE0LjAxNkM0MjguNDYgMzEwLjMxOCA0MjUuNzIgMzA1LjU5IDQxNy43MjIgMzAzLjQ1NUM0MDkuNzI1IDMwMS4zMiAzOTkuNSAzMDIuNTg4IDM5NC44ODMgMzA2LjI4NUMzOTAuMjY1IDMwOS45ODMgMzkzLjAwNSAzMTQuNzEgNDAxLjAwMiAzMTYuODQ1WiIvPiYjeGE7PHBhdGggZmlsbD0iIzUxNThGNiIgZD0iTTM5Ni42MDcgMjg5LjgxMkM0MDQuNjA0IDI5MS45NDcgNDE0LjgyOCAyOTAuNjggNDE5LjQ0NSAyODYuOTgzQzQyNC4wNjMgMjgzLjI4NSA0MjEuMzI0IDI3OC41NTcgNDEzLjMyNyAyNzYuNDIyQzQwNS4zMjkgMjc0LjI4NyAzOTUuMTAyIDI3NS41NTQgMzkwLjQ4NSAyNzkuMjUyQzM4NS44NjggMjgyLjk0OSAzODguNjA5IDI4Ny42NzcgMzk2LjYwNyAyODkuODEyWiIvPiYjeGE7PHBhdGggZmlsbD0iIzUxNThGNiIgZD0iTTQ1My44MzUgMzA1LjA4OUM0NjEuODMyIDMwNy4yMjQgNDcyLjA1OCAzMDUuOTU4IDQ3Ni42NzUgMzAyLjI2QzQ4MS4yOTMgMjk4LjU2MiA0NzguNTUyIDI5My44MzQgNDcwLjU1NSAyOTEuNjk5QzQ2Mi41NTcgMjg5LjU2NCA0NTIuMzMyIDI5MC44MzEgNDQ3LjcxNSAyOTQuNTI5QzQ0My4wOTggMjk4LjIyNyA0NDUuODM3IDMwMi45NTQgNDUzLjgzNSAzMDUuMDg5WiIvPiYjeGE7PHBhdGggZmlsbD0iIzUxNThGNiIgZD0iTTM1OS4yMDQgMzI3Ljg2M0MzNjIuNjMxIDMyOC43NzcgMzY3LjAxMyAzMjguMjM1IDM2OC45OTIgMzI2LjY1QzM3MC45NyAzMjUuMDY1IDM2OS43OTYgMzIzLjAzOSAzNjYuMzY5IDMyMi4xMjRDMzYyLjk0MiAzMjEuMjA5IDM1OC41NiAzMjEuNzUyIDM1Ni41ODEgMzIzLjMzN0MzNTQuNjAyIDMyNC45MjIgMzU1Ljc3NiAzMjYuOTQ4IDM1OS4yMDQgMzI3Ljg2M1oiIG9wYWNpdHk9IjAuNiIvPiYjeGE7PHBhdGggZmlsbD0iIzUxNThGNiIgZD0iTTQwMS4zODIgMzM5LjEyMkM0MDQuODA5IDM0MC4wMzcgNDA5LjE5MSAzMzkuNDk0IDQxMS4xNyAzMzcuOTA5QzQxMy4xNDkgMzM2LjMyNSA0MTEuOTc0IDMzNC4yOTggNDA4LjU0NyAzMzMuMzg0QzQwNS4xMiAzMzIuNDY5IDQwMC43MzggMzMzLjAxMiAzOTguNzU5IDMzNC41OTZDMzk2Ljc4IDMzNi4xODEgMzk3Ljk1NSAzMzguMjA3IDQwMS4zODIgMzM5LjEyMloiIG9wYWNpdHk9IjAuNiIvPiYjeGE7PC9nPiYjeGE7PC9nPiYjeGE7PGRlZnM+JiN4YTs8ZmlsdGVyIGNvbG9yLWludGVycG9sYXRpb24tZmlsdGVycz0ic1JHQiIgZmlsdGVyVW5pdHM9InVzZXJTcGFjZU9uVXNlIiBoZWlnaHQ9IjQ5NCIgd2lkdGg9Ijk5NCIgeT0iMTk2IiB4PSIwIiBpZD0iZmlsdGVyMF9kaWkiPiYjeGE7PGZlRmxvb2QgcmVzdWx0PSJCYWNrZ3JvdW5kSW1hZ2VGaXgiIGZsb29kLW9wYWNpdHk9IjAiLz4mI3hhOzxmZUNvbG9yTWF0cml4IHJlc3VsdD0iaGFyZEFscGhhIiB2YWx1ZXM9IjAgMCAwIDAgMCAwIDAgMCAwIDAgMCAwIDAgMCAwIDAgMCAwIDEyNyAwIiB0eXBlPSJtYXRyaXgiIGluPSJTb3VyY2VBbHBoYSIvPiYjeGE7PGZlT2Zmc2V0IGR5PSIxNiIvPiYjeGE7PGZlR2F1c3NpYW5CbHVyIHN0ZERldmlhdGlvbj0iMTYiLz4mI3hhOzxmZUNvbXBvc2l0ZSBvcGVyYXRvcj0ib3V0IiBpbjI9ImhhcmRBbHBoYSIvPiYjeGE7PGZlQ29sb3JNYXRyaXggdmFsdWVzPSIwIDAgMCAwIDAuMTkyMTU3IDAgMCAwIDAgMC4xOTIxNTcgMCAwIDAgMCAwLjI2NjY2NyAwIDAgMCAwLjA1IDAiIHR5cGU9Im1hdHJpeCIvPiYjeGE7PGZlQmxlbmQgcmVzdWx0PSJlZmZlY3QxX2Ryb3BTaGFkb3ciIGluMj0iQmFja2dyb3VuZEltYWdlRml4IiBtb2RlPSJub3JtYWwiLz4mI3hhOzxmZUJsZW5kIHJlc3VsdD0ic2hhcGUiIGluMj0iZWZmZWN0MV9kcm9wU2hhZG93IiBpbj0iU291cmNlR3JhcGhpYyIgbW9kZT0ibm9ybWFsIi8+JiN4YTs8ZmVDb2xvck1hdHJpeCByZXN1bHQ9ImhhcmRBbHBoYSIgdmFsdWVzPSIwIDAgMCAwIDAgMCAwIDAgMCAwIDAgMCAwIDAgMCAwIDAgMCAxMjcgMCIgdHlwZT0ibWF0cml4IiBpbj0iU291cmNlQWxwaGEiLz4mI3hhOzxmZU9mZnNldCBkeT0iOCIvPiYjeGE7PGZlR2F1c3NpYW5CbHVyIHN0ZERldmlhdGlvbj0iMzIiLz4mI3hhOzxmZUNvbXBvc2l0ZSBrMz0iMSIgazI9Ii0xIiBvcGVyYXRvcj0iYXJpdGhtZXRpYyIgaW4yPSJoYXJkQWxwaGEiLz4mI3hhOzxmZUNvbG9yTWF0cml4IHZhbHVlcz0iMCAwIDAgMCAxIDAgMCAwIDAgMSAwIDAgMCAwIDEgMCAwIDAgMC4wNSAwIiB0eXBlPSJtYXRyaXgiLz4mI3hhOzxmZUJsZW5kIHJlc3VsdD0iZWZmZWN0Ml9pbm5lclNoYWRvdyIgaW4yPSJzaGFwZSIgbW9kZT0ibm9ybWFsIi8+JiN4YTs8ZmVDb2xvck1hdHJpeCByZXN1bHQ9ImhhcmRBbHBoYSIgdmFsdWVzPSIwIDAgMCAwIDAgMCAwIDAgMCAwIDAgMCAwIDAgMCAwIDAgMCAxMjcgMCIgdHlwZT0ibWF0cml4IiBpbj0iU291cmNlQWxwaGEiLz4mI3hhOzxmZU9mZnNldCBkeT0iLTE2Ii8+JiN4YTs8ZmVHYXVzc2lhbkJsdXIgc3RkRGV2aWF0aW9uPSIxNiIvPiYjeGE7PGZlQ29tcG9zaXRlIGszPSIxIiBrMj0iLTEiIG9wZXJhdG9yPSJhcml0aG1ldGljIiBpbjI9ImhhcmRBbHBoYSIvPiYjeGE7PGZlQ29sb3JNYXRyaXggdmFsdWVzPSIwIDAgMCAwIDEgMCAwIDAgMCAxIDAgMCAwIDAgMSAwIDAgMCAwLjE1IDAiIHR5cGU9Im1hdHJpeCIvPiYjeGE7PGZlQmxlbmQgcmVzdWx0PSJlZmZlY3QzX2lubmVyU2hhZG93IiBpbjI9ImVmZmVjdDJfaW5uZXJTaGFkb3ciIG1vZGU9Im5vcm1hbCIvPiYjeGE7PC9maWx0ZXI+JiN4YTs8ZmlsdGVyIGNvbG9yLWludGVycG9sYXRpb24tZmlsdGVycz0ic1JHQiIgZmlsdGVyVW5pdHM9InVzZXJTcGFjZU9uVXNlIiBoZWlnaHQ9IjQ5NCIgd2lkdGg9Ijk5NCIgeT0iMTM2IiB4PSIwIiBpZD0iZmlsdGVyMV9kaWkiPiYjeGE7PGZlRmxvb2QgcmVzdWx0PSJCYWNrZ3JvdW5kSW1hZ2VGaXgiIGZsb29kLW9wYWNpdHk9IjAiLz4mI3hhOzxmZUNvbG9yTWF0cml4IHJlc3VsdD0iaGFyZEFscGhhIiB2YWx1ZXM9IjAgMCAwIDAgMCAwIDAgMCAwIDAgMCAwIDAgMCAwIDAgMCAwIDEyNyAwIiB0eXBlPSJtYXRyaXgiIGluPSJTb3VyY2VBbHBoYSIvPiYjeGE7PGZlT2Zmc2V0IGR5PSIxNiIvPiYjeGE7PGZlR2F1c3NpYW5CbHVyIHN0ZERldmlhdGlvbj0iMTYiLz4mI3hhOzxmZUNvbXBvc2l0ZSBvcGVyYXRvcj0ib3V0IiBpbjI9ImhhcmRBbHBoYSIvPiYjeGE7PGZlQ29sb3JNYXRyaXggdmFsdWVzPSIwIDAgMCAwIDAuMTkyMTU3IDAgMCAwIDAgMC4xOTIxNTcgMCAwIDAgMCAwLjI2NjY2NyAwIDAgMCAwLjA1IDAiIHR5cGU9Im1hdHJpeCIvPiYjeGE7PGZlQmxlbmQgcmVzdWx0PSJlZmZlY3QxX2Ryb3BTaGFkb3ciIGluMj0iQmFja2dyb3VuZEltYWdlRml4IiBtb2RlPSJub3JtYWwiLz4mI3hhOzxmZUJsZW5kIHJlc3VsdD0ic2hhcGUiIGluMj0iZWZmZWN0MV9kcm9wU2hhZG93IiBpbj0iU291cmNlR3JhcGhpYyIgbW9kZT0ibm9ybWFsIi8+JiN4YTs8ZmVDb2xvck1hdHJpeCByZXN1bHQ9ImhhcmRBbHBoYSIgdmFsdWVzPSIwIDAgMCAwIDAgMCAwIDAgMCAwIDAgMCAwIDAgMCAwIDAgMCAxMjcgMCIgdHlwZT0ibWF0cml4IiBpbj0iU291cmNlQWxwaGEiLz4mI3hhOzxmZU9mZnNldCBkeT0iOCIvPiYjeGE7PGZlR2F1c3NpYW5CbHVyIHN0ZERldmlhdGlvbj0iMzIiLz4mI3hhOzxmZUNvbXBvc2l0ZSBrMz0iMSIgazI9Ii0xIiBvcGVyYXRvcj0iYXJpdGhtZXRpYyIgaW4yPSJoYXJkQWxwaGEiLz4mI3hhOzxmZUNvbG9yTWF0cml4IHZhbHVlcz0iMCAwIDAgMCAxIDAgMCAwIDAgMSAwIDAgMCAwIDEgMCAwIDAgMC4wNSAwIiB0eXBlPSJtYXRyaXgiLz4mI3hhOzxmZUJsZW5kIHJlc3VsdD0iZWZmZWN0Ml9pbm5lclNoYWRvdyIgaW4yPSJzaGFwZSIgbW9kZT0ibm9ybWFsIi8+JiN4YTs8ZmVDb2xvck1hdHJpeCByZXN1bHQ9ImhhcmRBbHBoYSIgdmFsdWVzPSIwIDAgMCAwIDAgMCAwIDAgMCAwIDAgMCAwIDAgMCAwIDAgMCAxMjcgMCIgdHlwZT0ibWF0cml4IiBpbj0iU291cmNlQWxwaGEiLz4mI3hhOzxmZU9mZnNldCBkeT0iLTE2Ii8+JiN4YTs8ZmVHYXVzc2lhbkJsdXIgc3RkRGV2aWF0aW9uPSIxNiIvPiYjeGE7PGZlQ29tcG9zaXRlIGszPSIxIiBrMj0iLTEiIG9wZXJhdG9yPSJhcml0aG1ldGljIiBpbjI9ImhhcmRBbHBoYSIvPiYjeGE7PGZlQ29sb3JNYXRyaXggdmFsdWVzPSIwIDAgMCAwIDEgMCAwIDAgMCAxIDAgMCAwIDAgMSAwIDAgMCAwLjE1IDAiIHR5cGU9Im1hdHJpeCIvPiYjeGE7PGZlQmxlbmQgcmVzdWx0PSJlZmZlY3QzX2lubmVyU2hhZG93IiBpbjI9ImVmZmVjdDJfaW5uZXJTaGFkb3ciIG1vZGU9Im5vcm1hbCIvPiYjeGE7PC9maWx0ZXI+JiN4YTs8ZmlsdGVyIGNvbG9yLWludGVycG9sYXRpb24tZmlsdGVycz0ic1JHQiIgZmlsdGVyVW5pdHM9InVzZXJTcGFjZU9uVXNlIiBoZWlnaHQ9IjQ5NCIgd2lkdGg9Ijk5NCIgeT0iNzYiIHg9IjAiIGlkPSJmaWx0ZXIyX2RpaSI+JiN4YTs8ZmVGbG9vZCByZXN1bHQ9IkJhY2tncm91bmRJbWFnZUZpeCIgZmxvb2Qtb3BhY2l0eT0iMCIvPiYjeGE7PGZlQ29sb3JNYXRyaXggcmVzdWx0PSJoYXJkQWxwaGEiIHZhbHVlcz0iMCAwIDAgMCAwIDAgMCAwIDAgMCAwIDAgMCAwIDAgMCAwIDAgMTI3IDAiIHR5cGU9Im1hdHJpeCIgaW49IlNvdXJjZUFscGhhIi8+JiN4YTs8ZmVPZmZzZXQgZHk9IjE2Ii8+JiN4YTs8ZmVHYXVzc2lhbkJsdXIgc3RkRGV2aWF0aW9uPSIxNiIvPiYjeGE7PGZlQ29tcG9zaXRlIG9wZXJhdG9yPSJvdXQiIGluMj0iaGFyZEFscGhhIi8+JiN4YTs8ZmVDb2xvck1hdHJpeCB2YWx1ZXM9IjAgMCAwIDAgMC4xOTIxNTcgMCAwIDAgMCAwLjE5MjE1NyAwIDAgMCAwIDAuMjY2NjY3IDAgMCAwIDAuMDUgMCIgdHlwZT0ibWF0cml4Ii8+JiN4YTs8ZmVCbGVuZCByZXN1bHQ9ImVmZmVjdDFfZHJvcFNoYWRvdyIgaW4yPSJCYWNrZ3JvdW5kSW1hZ2VGaXgiIG1vZGU9Im5vcm1hbCIvPiYjeGE7PGZlQmxlbmQgcmVzdWx0PSJzaGFwZSIgaW4yPSJlZmZlY3QxX2Ryb3BTaGFkb3ciIGluPSJTb3VyY2VHcmFwaGljIiBtb2RlPSJub3JtYWwiLz4mI3hhOzxmZUNvbG9yTWF0cml4IHJlc3VsdD0iaGFyZEFscGhhIiB2YWx1ZXM9IjAgMCAwIDAgMCAwIDAgMCAwIDAgMCAwIDAgMCAwIDAgMCAwIDEyNyAwIiB0eXBlPSJtYXRyaXgiIGluPSJTb3VyY2VBbHBoYSIvPiYjeGE7PGZlT2Zmc2V0IGR5PSI4Ii8+JiN4YTs8ZmVHYXVzc2lhbkJsdXIgc3RkRGV2aWF0aW9uPSIzMiIvPiYjeGE7PGZlQ29tcG9zaXRlIGszPSIxIiBrMj0iLTEiIG9wZXJhdG9yPSJhcml0aG1ldGljIiBpbjI9ImhhcmRBbHBoYSIvPiYjeGE7PGZlQ29sb3JNYXRyaXggdmFsdWVzPSIwIDAgMCAwIDEgMCAwIDAgMCAxIDAgMCAwIDAgMSAwIDAgMCAwLjA1IDAiIHR5cGU9Im1hdHJpeCIvPiYjeGE7PGZlQmxlbmQgcmVzdWx0PSJlZmZlY3QyX2lubmVyU2hhZG93IiBpbjI9InNoYXBlIiBtb2RlPSJub3JtYWwiLz4mI3hhOzxmZUNvbG9yTWF0cml4IHJlc3VsdD0iaGFyZEFscGhhIiB2YWx1ZXM9IjAgMCAwIDAgMCAwIDAgMCAwIDAgMCAwIDAgMCAwIDAgMCAwIDEyNyAwIiB0eXBlPSJtYXRyaXgiIGluPSJTb3VyY2VBbHBoYSIvPiYjeGE7PGZlT2Zmc2V0IGR5PSItMTYiLz4mI3hhOzxmZUdhdXNzaWFuQmx1ciBzdGREZXZpYXRpb249IjE2Ii8+JiN4YTs8ZmVDb21wb3NpdGUgazM9IjEiIGsyPSItMSIgb3BlcmF0b3I9ImFyaXRobWV0aWMiIGluMj0iaGFyZEFscGhhIi8+JiN4YTs8ZmVDb2xvck1hdHJpeCB2YWx1ZXM9IjAgMCAwIDAgMSAwIDAgMCAwIDEgMCAwIDAgMCAxIDAgMCAwIDAuMTUgMCIgdHlwZT0ibWF0cml4Ii8+JiN4YTs8ZmVCbGVuZCByZXN1bHQ9ImVmZmVjdDNfaW5uZXJTaGFkb3ciIGluMj0iZWZmZWN0Ml9pbm5lclNoYWRvdyIgbW9kZT0ibm9ybWFsIi8+JiN4YTs8L2ZpbHRlcj4mI3hhOzxmaWx0ZXIgY29sb3ItaW50ZXJwb2xhdGlvbi1maWx0ZXJzPSJzUkdCIiBmaWx0ZXJVbml0cz0idXNlclNwYWNlT25Vc2UiIGhlaWdodD0iNDk0IiB3aWR0aD0iOTk0IiB5PSIxNiIgeD0iMCIgaWQ9ImZpbHRlcjNfZGlpIj4mI3hhOzxmZUZsb29kIHJlc3VsdD0iQmFja2dyb3VuZEltYWdlRml4IiBmbG9vZC1vcGFjaXR5PSIwIi8+JiN4YTs8ZmVDb2xvck1hdHJpeCByZXN1bHQ9ImhhcmRBbHBoYSIgdmFsdWVzPSIwIDAgMCAwIDAgMCAwIDAgMCAwIDAgMCAwIDAgMCAwIDAgMCAxMjcgMCIgdHlwZT0ibWF0cml4IiBpbj0iU291cmNlQWxwaGEiLz4mI3hhOzxmZU9mZnNldCBkeT0iMTYiLz4mI3hhOzxmZUdhdXNzaWFuQmx1ciBzdGREZXZpYXRpb249IjE2Ii8+JiN4YTs8ZmVDb21wb3NpdGUgb3BlcmF0b3I9Im91dCIgaW4yPSJoYXJkQWxwaGEiLz4mI3hhOzxmZUNvbG9yTWF0cml4IHZhbHVlcz0iMCAwIDAgMCAwLjE5MjE1NyAwIDAgMCAwIDAuMTkyMTU3IDAgMCAwIDAgMC4yNjY2NjcgMCAwIDAgMC4wNSAwIiB0eXBlPSJtYXRyaXgiLz4mI3hhOzxmZUJsZW5kIHJlc3VsdD0iZWZmZWN0MV9kcm9wU2hhZG93IiBpbjI9IkJhY2tncm91bmRJbWFnZUZpeCIgbW9kZT0ibm9ybWFsIi8+JiN4YTs8ZmVCbGVuZCByZXN1bHQ9InNoYXBlIiBpbjI9ImVmZmVjdDFfZHJvcFNoYWRvdyIgaW49IlNvdXJjZUdyYXBoaWMiIG1vZGU9Im5vcm1hbCIvPiYjeGE7PGZlQ29sb3JNYXRyaXggcmVzdWx0PSJoYXJkQWxwaGEiIHZhbHVlcz0iMCAwIDAgMCAwIDAgMCAwIDAgMCAwIDAgMCAwIDAgMCAwIDAgMTI3IDAiIHR5cGU9Im1hdHJpeCIgaW49IlNvdXJjZUFscGhhIi8+JiN4YTs8ZmVPZmZzZXQgZHk9IjgiLz4mI3hhOzxmZUdhdXNzaWFuQmx1ciBzdGREZXZpYXRpb249IjMyIi8+JiN4YTs8ZmVDb21wb3NpdGUgazM9IjEiIGsyPSItMSIgb3BlcmF0b3I9ImFyaXRobWV0aWMiIGluMj0iaGFyZEFscGhhIi8+JiN4YTs8ZmVDb2xvck1hdHJpeCB2YWx1ZXM9IjAgMCAwIDAgMSAwIDAgMCAwIDEgMCAwIDAgMCAxIDAgMCAwIDAuMDUgMCIgdHlwZT0ibWF0cml4Ii8+JiN4YTs8ZmVCbGVuZCByZXN1bHQ9ImVmZmVjdDJfaW5uZXJTaGFkb3ciIGluMj0ic2hhcGUiIG1vZGU9Im5vcm1hbCIvPiYjeGE7PGZlQ29sb3JNYXRyaXggcmVzdWx0PSJoYXJkQWxwaGEiIHZhbHVlcz0iMCAwIDAgMCAwIDAgMCAwIDAgMCAwIDAgMCAwIDAgMCAwIDAgMTI3IDAiIHR5cGU9Im1hdHJpeCIgaW49IlNvdXJjZUFscGhhIi8+JiN4YTs8ZmVPZmZzZXQgZHk9Ii0xNiIvPiYjeGE7PGZlR2F1c3NpYW5CbHVyIHN0ZERldmlhdGlvbj0iMTYiLz4mI3hhOzxmZUNvbXBvc2l0ZSBrMz0iMSIgazI9Ii0xIiBvcGVyYXRvcj0iYXJpdGhtZXRpYyIgaW4yPSJoYXJkQWxwaGEiLz4mI3hhOzxmZUNvbG9yTWF0cml4IHZhbHVlcz0iMCAwIDAgMCAxIDAgMCAwIDAgMSAwIDAgMCAwIDEgMCAwIDAgMC4xNSAwIiB0eXBlPSJtYXRyaXgiLz4mI3hhOzxmZUJsZW5kIHJlc3VsdD0iZWZmZWN0M19pbm5lclNoYWRvdyIgaW4yPSJlZmZlY3QyX2lubmVyU2hhZG93IiBtb2RlPSJub3JtYWwiLz4mI3hhOzwvZmlsdGVyPiYjeGE7PGZpbHRlciBjb2xvci1pbnRlcnBvbGF0aW9uLWZpbHRlcnM9InNSR0IiIGZpbHRlclVuaXRzPSJ1c2VyU3BhY2VPblVzZSIgaGVpZ2h0PSIzMTUuNjEiIHdpZHRoPSI2ODIuMjA3IiB5PSI4NS43MDAyIiB4PSIxNjkuNDkxIiBpZD0iZmlsdGVyNF9kIj4mI3hhOzxmZUZsb29kIHJlc3VsdD0iQmFja2dyb3VuZEltYWdlRml4IiBmbG9vZC1vcGFjaXR5PSIwIi8+JiN4YTs8ZmVDb2xvck1hdHJpeCByZXN1bHQ9ImhhcmRBbHBoYSIgdmFsdWVzPSIwIDAgMCAwIDAgMCAwIDAgMCAwIDAgMCAwIDAgMCAwIDAgMCAxMjcgMCIgdHlwZT0ibWF0cml4IiBpbj0iU291cmNlQWxwaGEiLz4mI3hhOzxmZU9mZnNldCBkeT0iOCIvPiYjeGE7PGZlR2F1c3NpYW5CbHVyIHN0ZERldmlhdGlvbj0iOCIvPiYjeGE7PGZlQ29tcG9zaXRlIG9wZXJhdG9yPSJvdXQiIGluMj0iaGFyZEFscGhhIi8+JiN4YTs8ZmVDb2xvck1hdHJpeCB2YWx1ZXM9IjAgMCAwIDAgMC4zMTc2NDcgMCAwIDAgMCAwLjM0NTA5OCAwIDAgMCAwIDAuOTY0NzA2IDAgMCAwIDAuMjUgMCIgdHlwZT0ibWF0cml4Ii8+JiN4YTs8ZmVCbGVuZCByZXN1bHQ9ImVmZmVjdDFfZHJvcFNoYWRvdyIgaW4yPSJCYWNrZ3JvdW5kSW1hZ2VGaXgiIG1vZGU9Im5vcm1hbCIvPiYjeGE7PGZlQmxlbmQgcmVzdWx0PSJzaGFwZSIgaW4yPSJlZmZlY3QxX2Ryb3BTaGFkb3ciIGluPSJTb3VyY2VHcmFwaGljIiBtb2RlPSJub3JtYWwiLz4mI3hhOzwvZmlsdGVyPiYjeGE7PGNsaXBQYXRoIGlkPSJjbGlwMCI+JiN4YTs8cmVjdCBmaWxsPSJ3aGl0ZSIgaGVpZ2h0PSI2NzQiIHdpZHRoPSI5OTQiLz4mI3hhOzwvY2xpcFBhdGg+JiN4YTs8L2RlZnM+JiN4YTs8L3N2Zz4=;" vertex="1" parent="1">
          <mxGeometry x="-260" y="-35" width="103.11" height="70" as="geometry" />
        </mxCell>
        <mxCell id="23ATxNzAXolhElHc7mPV-43" value="" style="endArrow=classic;html=1;rounded=0;exitX=0.5;exitY=0;exitDx=0;exitDy=0;" edge="1" parent="1" source="23ATxNzAXolhElHc7mPV-12">
          <mxGeometry width="50" height="50" relative="1" as="geometry">
            <mxPoint x="365" y="165" as="sourcePoint" />
            <mxPoint x="425" y="-270" as="targetPoint" />
          </mxGeometry>
        </mxCell>
        <mxCell id="23ATxNzAXolhElHc7mPV-44" value="Update On Positions" style="edgeLabel;html=1;align=center;verticalAlign=middle;resizable=0;points=[];" vertex="1" connectable="0" parent="23ATxNzAXolhElHc7mPV-43">
          <mxGeometry x="-0.0777" y="-2" relative="1" as="geometry">
            <mxPoint as="offset" />
          </mxGeometry>
        </mxCell>
        <mxCell id="23ATxNzAXolhElHc7mPV-48" value="" style="endArrow=classic;html=1;rounded=0;entryX=1;entryY=0.5;entryDx=0;entryDy=0;" edge="1" parent="1" source="23ATxNzAXolhElHc7mPV-32" target="23ATxNzAXolhElHc7mPV-36">
          <mxGeometry width="50" height="50" relative="1" as="geometry">
            <mxPoint x="170" y="80" as="sourcePoint" />
            <mxPoint x="170" y="150" as="targetPoint" />
          </mxGeometry>
        </mxCell>
        <mxCell id="23ATxNzAXolhElHc7mPV-49" value="Positions Stat On Broker" style="edgeLabel;html=1;align=center;verticalAlign=middle;resizable=0;points=[];" vertex="1" connectable="0" parent="23ATxNzAXolhElHc7mPV-48">
          <mxGeometry x="-0.0777" y="-2" relative="1" as="geometry">
            <mxPoint as="offset" />
          </mxGeometry>
        </mxCell>
        <mxCell id="23ATxNzAXolhElHc7mPV-50" value="" style="endArrow=classic;html=1;rounded=0;exitX=0.984;exitY=0.649;exitDx=0;exitDy=0;entryX=-0.017;entryY=0.413;entryDx=0;entryDy=0;exitPerimeter=0;entryPerimeter=0;" edge="1" parent="1" source="23ATxNzAXolhElHc7mPV-19" target="23ATxNzAXolhElHc7mPV-54">
          <mxGeometry width="50" height="50" relative="1" as="geometry">
            <mxPoint x="840" y="-76" as="sourcePoint" />
            <mxPoint x="530" y="-340" as="targetPoint" />
          </mxGeometry>
        </mxCell>
        <mxCell id="23ATxNzAXolhElHc7mPV-51" value="Positions Stat On Hedger" style="edgeLabel;html=1;align=center;verticalAlign=middle;resizable=0;points=[];" vertex="1" connectable="0" parent="23ATxNzAXolhElHc7mPV-50">
          <mxGeometry x="-0.0777" y="-2" relative="1" as="geometry">
            <mxPoint as="offset" />
          </mxGeometry>
        </mxCell>
        <mxCell id="23ATxNzAXolhElHc7mPV-52" value="" style="endArrow=classic;html=1;rounded=0;entryX=1.004;entryY=0.304;entryDx=0;entryDy=0;entryPerimeter=0;exitX=0.985;exitY=0.438;exitDx=0;exitDy=0;exitPerimeter=0;" edge="1" parent="1" source="23ATxNzAXolhElHc7mPV-89" target="23ATxNzAXolhElHc7mPV-36">
          <mxGeometry width="50" height="50" relative="1" as="geometry">
            <mxPoint x="650" y="-120" as="sourcePoint" />
            <mxPoint x="730.0000000000323" y="-161.72000000000023" as="targetPoint" />
          </mxGeometry>
        </mxCell>
        <mxCell id="23ATxNzAXolhElHc7mPV-53" value="Positions Stat On Contract" style="edgeLabel;html=1;align=center;verticalAlign=middle;resizable=0;points=[];" vertex="1" connectable="0" parent="23ATxNzAXolhElHc7mPV-52">
          <mxGeometry x="-0.0777" y="-2" relative="1" as="geometry">
            <mxPoint x="-50" y="11" as="offset" />
          </mxGeometry>
        </mxCell>
        <mxCell id="23ATxNzAXolhElHc7mPV-54" value="Monitoring&lt;br&gt;And&amp;nbsp;&lt;br&gt;Dev Alert" style="ellipse;whiteSpace=wrap;html=1;aspect=fixed;" vertex="1" parent="1">
          <mxGeometry x="730" y="-340" width="80" height="80" as="geometry" />
        </mxCell>
        <mxCell id="23ATxNzAXolhElHc7mPV-55" value="" style="endArrow=classic;html=1;rounded=0;exitX=0;exitY=0.5;exitDx=0;exitDy=0;entryX=0.915;entryY=0.816;entryDx=0;entryDy=0;entryPerimeter=0;" edge="1" parent="1" source="23ATxNzAXolhElHc7mPV-24" target="23ATxNzAXolhElHc7mPV-12">
          <mxGeometry width="50" height="50" relative="1" as="geometry">
            <mxPoint x="365" y="165" as="sourcePoint" />
            <mxPoint x="365" y="70" as="targetPoint" />
          </mxGeometry>
        </mxCell>
        <mxCell id="23ATxNzAXolhElHc7mPV-56" value="OrderFill" style="edgeLabel;html=1;align=center;verticalAlign=middle;resizable=0;points=[];" vertex="1" connectable="0" parent="23ATxNzAXolhElHc7mPV-55">
          <mxGeometry x="-0.0777" y="-2" relative="1" as="geometry">
            <mxPoint as="offset" />
          </mxGeometry>
        </mxCell>
        <mxCell id="23ATxNzAXolhElHc7mPV-57" value="" style="endArrow=classic;html=1;rounded=0;entryX=1;entryY=0.25;entryDx=0;entryDy=0;exitX=-0.026;exitY=0.684;exitDx=0;exitDy=0;exitPerimeter=0;" edge="1" parent="1" source="23ATxNzAXolhElHc7mPV-19">
          <mxGeometry width="50" height="50" relative="1" as="geometry">
            <mxPoint x="390.00000000000017" y="-309.99799999999993" as="sourcePoint" />
            <mxPoint x="261.2" y="-306.11" as="targetPoint" />
          </mxGeometry>
        </mxCell>
        <mxCell id="23ATxNzAXolhElHc7mPV-58" value="Updates" style="edgeLabel;html=1;align=center;verticalAlign=middle;resizable=0;points=[];" vertex="1" connectable="0" parent="23ATxNzAXolhElHc7mPV-57">
          <mxGeometry x="-0.0777" y="-2" relative="1" as="geometry">
            <mxPoint as="offset" />
          </mxGeometry>
        </mxCell>
        <mxCell id="23ATxNzAXolhElHc7mPV-59" value="" style="endArrow=classic;html=1;rounded=0;entryX=1;entryY=0.5;entryDx=0;entryDy=0;" edge="1" parent="1" target="23ATxNzAXolhElHc7mPV-33">
          <mxGeometry width="50" height="50" relative="1" as="geometry">
            <mxPoint x="60" y="-310" as="sourcePoint" />
            <mxPoint x="-84.25" y="-250.8787515006004" as="targetPoint" />
          </mxGeometry>
        </mxCell>
        <mxCell id="23ATxNzAXolhElHc7mPV-60" value="Information" style="edgeLabel;html=1;align=center;verticalAlign=middle;resizable=0;points=[];" vertex="1" connectable="0" parent="23ATxNzAXolhElHc7mPV-59">
          <mxGeometry x="-0.0777" y="-2" relative="1" as="geometry">
            <mxPoint as="offset" />
          </mxGeometry>
        </mxCell>
        <mxCell id="23ATxNzAXolhElHc7mPV-61" value="" style="endArrow=classic;html=1;rounded=0;exitX=1;exitY=0.5;exitDx=0;exitDy=0;edgeStyle=orthogonalEdgeStyle;curved=1;" edge="1" parent="1" source="23ATxNzAXolhElHc7mPV-35">
          <mxGeometry width="50" height="50" relative="1" as="geometry">
            <mxPoint x="172.31999999999994" y="-129.99" as="sourcePoint" />
            <mxPoint x="170" y="-7.030000000000003" as="targetPoint" />
            <Array as="points">
              <mxPoint x="220" y="-110" />
              <mxPoint x="220" y="-7" />
            </Array>
          </mxGeometry>
        </mxCell>
        <mxCell id="23ATxNzAXolhElHc7mPV-62" value="Rebalance" style="edgeLabel;html=1;align=center;verticalAlign=middle;resizable=0;points=[];" vertex="1" connectable="0" parent="23ATxNzAXolhElHc7mPV-61">
          <mxGeometry x="-0.0777" y="-2" relative="1" as="geometry">
            <mxPoint as="offset" />
          </mxGeometry>
        </mxCell>
        <mxCell id="23ATxNzAXolhElHc7mPV-63" value="" style="endArrow=classic;html=1;rounded=0;entryX=0.75;entryY=0;entryDx=0;entryDy=0;" edge="1" parent="1" target="23ATxNzAXolhElHc7mPV-1">
          <mxGeometry width="50" height="50" relative="1" as="geometry">
            <mxPoint x="100" y="40" as="sourcePoint" />
            <mxPoint x="-100" y="30" as="targetPoint" />
          </mxGeometry>
        </mxCell>
        <mxCell id="23ATxNzAXolhElHc7mPV-64" value="Transactions" style="edgeLabel;html=1;align=center;verticalAlign=middle;resizable=0;points=[];" vertex="1" connectable="0" parent="23ATxNzAXolhElHc7mPV-63">
          <mxGeometry x="-0.0777" y="-2" relative="1" as="geometry">
            <mxPoint as="offset" />
          </mxGeometry>
        </mxCell>
        <mxCell id="23ATxNzAXolhElHc7mPV-66" value="" style="endArrow=classic;html=1;rounded=0;entryX=0.5;entryY=1;entryDx=0;entryDy=0;edgeStyle=orthogonalEdgeStyle;" edge="1" parent="1" target="23ATxNzAXolhElHc7mPV-34">
          <mxGeometry width="50" height="50" relative="1" as="geometry">
            <mxPoint x="-200" y="250" as="sourcePoint" />
            <mxPoint x="140" y="80" as="targetPoint" />
            <Array as="points">
              <mxPoint x="140" y="250" />
            </Array>
          </mxGeometry>
        </mxCell>
        <mxCell id="23ATxNzAXolhElHc7mPV-67" value="View Calls" style="edgeLabel;html=1;align=center;verticalAlign=middle;resizable=0;points=[];" vertex="1" connectable="0" parent="23ATxNzAXolhElHc7mPV-66">
          <mxGeometry x="-0.0777" y="-2" relative="1" as="geometry">
            <mxPoint x="105" y="-72" as="offset" />
          </mxGeometry>
        </mxCell>
        <mxCell id="23ATxNzAXolhElHc7mPV-68" value="" style="endArrow=classic;html=1;rounded=0;entryX=0.023;entryY=0.343;entryDx=0;entryDy=0;entryPerimeter=0;" edge="1" parent="1" source="23ATxNzAXolhElHc7mPV-40" target="23ATxNzAXolhElHc7mPV-34">
          <mxGeometry width="50" height="50" relative="1" as="geometry">
            <mxPoint x="-47" y="235" as="sourcePoint" />
            <mxPoint x="-380" y="95" as="targetPoint" />
          </mxGeometry>
        </mxCell>
        <mxCell id="23ATxNzAXolhElHc7mPV-69" value="Signatures" style="edgeLabel;html=1;align=center;verticalAlign=middle;resizable=0;points=[];" vertex="1" connectable="0" parent="23ATxNzAXolhElHc7mPV-68">
          <mxGeometry x="-0.0777" y="-2" relative="1" as="geometry">
            <mxPoint as="offset" />
          </mxGeometry>
        </mxCell>
        <mxCell id="23ATxNzAXolhElHc7mPV-70" value="" style="endArrow=classic;html=1;rounded=0;exitX=0.005;exitY=0.638;exitDx=0;exitDy=0;entryX=0.947;entryY=0.299;entryDx=0;entryDy=0;entryPerimeter=0;exitPerimeter=0;" edge="1" parent="1" source="23ATxNzAXolhElHc7mPV-12" target="23ATxNzAXolhElHc7mPV-34">
          <mxGeometry width="50" height="50" relative="1" as="geometry">
            <mxPoint x="502" y="140" as="sourcePoint" />
            <mxPoint x="190" y="15" as="targetPoint" />
          </mxGeometry>
        </mxCell>
        <mxCell id="23ATxNzAXolhElHc7mPV-71" value="Make Transaction Req &amp;amp; View Call" style="edgeLabel;html=1;align=center;verticalAlign=middle;resizable=0;points=[];" vertex="1" connectable="0" parent="23ATxNzAXolhElHc7mPV-70">
          <mxGeometry x="-0.0777" y="-2" relative="1" as="geometry">
            <mxPoint as="offset" />
          </mxGeometry>
        </mxCell>
        <mxCell id="23ATxNzAXolhElHc7mPV-76" value="" style="endArrow=classic;html=1;rounded=0;entryX=0;entryY=0.5;entryDx=0;entryDy=0;" edge="1" parent="1" source="23ATxNzAXolhElHc7mPV-12" target="23ATxNzAXolhElHc7mPV-21">
          <mxGeometry width="50" height="50" relative="1" as="geometry">
            <mxPoint x="400" y="20" as="sourcePoint" />
            <mxPoint x="220" y="-130" as="targetPoint" />
          </mxGeometry>
        </mxCell>
        <mxCell id="23ATxNzAXolhElHc7mPV-77" value="Request For Order" style="edgeLabel;html=1;align=center;verticalAlign=middle;resizable=0;points=[];" vertex="1" connectable="0" parent="23ATxNzAXolhElHc7mPV-76">
          <mxGeometry x="-0.0777" y="-2" relative="1" as="geometry">
            <mxPoint as="offset" />
          </mxGeometry>
        </mxCell>
        <mxCell id="23ATxNzAXolhElHc7mPV-78" value="" style="endArrow=classic;html=1;rounded=0;exitX=1.001;exitY=0.473;exitDx=0;exitDy=0;exitPerimeter=0;" edge="1" parent="1" source="23ATxNzAXolhElHc7mPV-21" target="23ATxNzAXolhElHc7mPV-32">
          <mxGeometry width="50" height="50" relative="1" as="geometry">
            <mxPoint x="730" y="105" as="sourcePoint" />
            <mxPoint x="848" y="-118" as="targetPoint" />
          </mxGeometry>
        </mxCell>
        <mxCell id="23ATxNzAXolhElHc7mPV-79" value="Request For Order" style="edgeLabel;html=1;align=center;verticalAlign=middle;resizable=0;points=[];" vertex="1" connectable="0" parent="23ATxNzAXolhElHc7mPV-78">
          <mxGeometry x="-0.0777" y="-2" relative="1" as="geometry">
            <mxPoint as="offset" />
          </mxGeometry>
        </mxCell>
        <mxCell id="23ATxNzAXolhElHc7mPV-80" value="" style="endArrow=classic;html=1;rounded=0;entryX=0.5;entryY=1;entryDx=0;entryDy=0;exitX=0.5;exitY=0;exitDx=0;exitDy=0;" edge="1" parent="1" source="23ATxNzAXolhElHc7mPV-36" target="23ATxNzAXolhElHc7mPV-54">
          <mxGeometry width="50" height="50" relative="1" as="geometry">
            <mxPoint x="537" y="-251" as="sourcePoint" />
            <mxPoint x="858" y="-108" as="targetPoint" />
          </mxGeometry>
        </mxCell>
        <mxCell id="23ATxNzAXolhElHc7mPV-81" value="Missmatch" style="edgeLabel;html=1;align=center;verticalAlign=middle;resizable=0;points=[];" vertex="1" connectable="0" parent="23ATxNzAXolhElHc7mPV-80">
          <mxGeometry x="-0.0777" y="-2" relative="1" as="geometry">
            <mxPoint as="offset" />
          </mxGeometry>
        </mxCell>
        <mxCell id="23ATxNzAXolhElHc7mPV-82" value="" style="endArrow=classic;html=1;rounded=0;" edge="1" parent="1" source="23ATxNzAXolhElHc7mPV-32">
          <mxGeometry width="50" height="50" relative="1" as="geometry">
            <mxPoint x="955" y="59" as="sourcePoint" />
            <mxPoint x="940" y="260" as="targetPoint" />
          </mxGeometry>
        </mxCell>
        <mxCell id="23ATxNzAXolhElHc7mPV-83" value="Pending Orders Stat" style="edgeLabel;html=1;align=center;verticalAlign=middle;resizable=0;points=[];" vertex="1" connectable="0" parent="23ATxNzAXolhElHc7mPV-82">
          <mxGeometry x="-0.0777" y="-2" relative="1" as="geometry">
            <mxPoint as="offset" />
          </mxGeometry>
        </mxCell>
        <mxCell id="23ATxNzAXolhElHc7mPV-86" value="Messanger" style="shape=image;imageAspect=0;aspect=fixed;verticalLabelPosition=bottom;verticalAlign=top;image=data:image/png,iVBORw0KGgoAAAANSUhEUgAABAAAAAQACAMAAABIw9uxAAAAk1BMVEVHcEz1+/7z8/N1dXUAAAACAgIAAAAAAAAAAAAAAADh4eG1tbXQ0ND///8cdfMeb/Eayv0awPsaxvweafEcffMavfscnfca0v0aw/scePMco/ccevMecvIebPEazf0cj/Uaz/0cifUcg/Qas/karfkcmPcclPYauPscp/kdqvkeZvHQ7P5utfmF1v2s2f1Cwfs+k/apgcybAAAADXRSTlMA+cc8EyMZAgcNmV57wmzLQwAAIABJREFUeNrsnd16qrwWRjdaXVbbpwc5rTeAfj69/6vbgAgJ+SUJKDjGsssqaK1mvvOdM4H+738AAAAAAAAAAAAAAAAAAAAAAAAAAAAAAAAAAAAAAAAAAAAAAAAAAAAAAAAAAAAAAAAAAAAAAAAAAAAAAAAAAAAAAAAAAAAAAAAAAAAAAAAAAAAAAAAAAAAAAAAAAAAAAAAAAAAAAAAAAAAAs/EvHN4sAHQAsQAgyol9gHWKwCEAZAFgHSlfD27pEnK/TxH4IABeSwS0yE7k3yh7wKcC8IysHxDzn8EEaAHBD/ACIuAIfENgPy6WuLdtdmgBZgDgKWnfHPZaPCdzsGuBXQb44AAmEgG3vddi/iOWzw+XGIyYQOATBMiS+O2Rr8T9x6cSx5kwKoFXBfgsAdI1IKSl5wje/VhMhsAhBGFmgA8VYHTiN4f+wZzv40N+pB7IUmCTAaIfIEUEzFn/YM34htDdbben09fX17Fi01BsiprvjuZmdXdDvV+1++m03YaqgXvOACsAEJH5DbF/MJt9LUKrmK8jvg52Kc7HUxSNIlRyUKnBLkwGDiYVIPgBYjO/EliOlF9n+ibovyehEYPaGTh1wDFniBEA8KZ+e6fPFvlVuq+yfZvrJ4r+b+nJK19QuYKT6gkMKnBwqwAfPoCqATbTbwn9bZPxv59F0TiC7d4tAyFWgEEApH5L4jcm/edG/oBKB06n3c4oA5aCgOAHcAS/lvi7nn4d+sX3C1LbAXniYIwIIAXwvqnfnPm10P+oDH+b9V9SANr2wPF4sqvAwS4CDAx4RxEYRP/BnPi3r5r2bc0BRQX2uhfACAC535T6h6Ff5f029hckAM1rVVXgI1AEGCXwbqnfbvs7z79Yis3XqZstNDQF7EaAsQLvkPv16G8T/7JMv3PhgGwFFBE42DSAEQNvkPttmb8K/mIFwa8qwfFLrwd0I4APgDfJ/cPo33eZf22xL00Ufm13Bg04WDSA0QPrEgEt+vXM/71yTE7A5wMYQbCC5O/O/R+n4+b7TdgcTztLMaBrAOMIVp/7T19vE/ydCHyd8AHwHsnfEv3t+H8D328710A3OYAPgLVqgC33t1X/5vt9KepqYDvKBzCuYJGFvyn6T2+a+rW24ONIQosGEP2w7ORviP7d15HQl6cGdvsgDUAIYCHZf2j9lejfEPT6muGtyQdopQDDDJaX/NsTd1P2+zRg79AAbAAsK/lrTf8Pot87Oyj7gE+bBjDgYDHJX3b+dP1CfIDSD8AGwJL6/rbo35+I/nANUOcFsAGwxOQvFf7M+I1cIFAcH6cR8NoAhh+8VOmvJf8t0R83N7i12wCiH15LA0zJnym/5Jag3A7ABsAy+v7yYj+iOI3HMkHlLw5hA+AFS3+s/zSlgLI6wFwJoAPwGqV/F/0fJ6x/zlLAZgOIfnix7P96yb+4XG632/V2rfir+fkTPz8/ZUd147e6s6Lepdqx2v1yealf4ajbAFwAPDn7633/l0n+dcw38f4rymjO50YSajV4ARtw8tkABic8ofE/KP2fm/yruK+jvsxPowXPVYJAG8AAhbmzf7/Y/0nr/Yo63//9lDMgKiV4mhA8ziaIC4AXy/7N2b3m9/61058k43updeA2vw481gbgAuB1sv/9SL9i5qRf5fzy6TSFwdzzgsNmAC4AnpP9pdJ/Vr//9wKhP5CBGWcN6iMFOhuAC4BnZ//9bH3/Ou3/lq/KjGZAmRPABcCzsv98pf/llt3xi/YrJz9/11sxTzNg75QAdACmzP59+M8w3Cfw/KIO/f6/7F5ghoqg0PqBuACYN/tPP+s/QeKXcr+Yxga0fYHJC4LiuMMFwCzpfxj+TeN/4vDPFPzCnPyl60lcwN0KTC0Cxy29AHhS9p82+BPW9Yg+0h9RLgd/l/llBRhIQPfY0rBxXFdgYhGQ1wdaXADjGDJn//12M2nmP6fU9qK76n2+FNBGByDfoXkD5Rmi3MKkIrBxugCGMuRI/2r2n2zJb3G7/oTleCW/i1K7NYxwy12qA+jKAYMC9E5ADHShkwSXOEw5PbCRTh8mSQCtAMjU+p8n+1+cNb+SgqVgHAa+Utbrd9lDW1iUw7aTvH1gMKwiMIkRKL4Liwsg+iFb9v98ZP+pUn9Y3jcF49Cs29p8hpg3WIIgmTDtMNAmW0ugmMgFdL2AT7MLYFRDTPHfrfq7H+83UcsvtLY3l+dK2JpjV49sqwPwyYThhwjtJTpE4G+SjoDbBTCwYaQGGHp/k3T+L9e/UdP2Fm9usgDRDsAvEwY5KIeFgUsDJikGpElBJgQgW/q/h//HFOF/8ff8rEFpqe+F0wF4w9t/MfwMowHwTB+ep9AAswQQ/ZDW+p8m+9+uwjyFL7SOnzcOre25Mendaw7sRYL9jpk1oF0XYJ8QYIzD6Oy//8y+5t803yeUbrpmq30tfa9FCCsBfNpgnEt0FCjCs0RgmmMEaAVAevp/tP5zh//F0PIXoooV0V513z9u9v+X0rbBzeG9wx1K5XZpfLx9s3lPebPyspXXVHabTRMDl0kkYI8JgOT0P8F5fi/9Mf3y7Hl3UaOqvaschq9807aTvr8jxJ3qUFr2HLwYeY/Ba1I2T60B7fkCaAVAXO9fdv95w/9y++2D35LKy6EWGLTBnKX1nbSHuMM8UAKGe5p+yHA3VTg0O/B3LfJKAK0AiEz/k7X+i/t8f58SzZlaCznNh1vStWVjKfyXgG2OZ3XaBckEKK+/e2i/PqCYekKA6Ad/+j90xf8u5xG/XeFv8OvOstscTdb9y4G2RMa7Z4Nw1BomO6M4AMn2tN8+WoI5S4EjrQAYkf4NxX++8C/65T5a78wY4051cDuA4Y3k3G+8y2dbBlKly8Lg2/ylQCFNCDAfACG9/4mKf2mpryW43fHobMrbK4FA+z9KF7xBb5l5sDURpEf0pUC+5cGmVgAmALzpP+P5fgql629K06UvBkMkwSwp0QrgFYZwB2B5coMwTLBS+PiYD6jKuqq4wwRAUPrPNvOvHOVncetiXAy6A9SsME9yAPYSRn8TZAXIuEDIuCoAEwDG9J/Z/XeTfkJbTOM1AGXwwpxXdgD2Z7KLVO5uwGBVACYATL3/Pv5zTf316/38Db7gRl94hCZd8jkA+8ssLaWOZAMyVQIb93wAkfD26V9x/1M1/myL/YxhMm5VzshZ/+wOYPwTqTOBFhOQrSFY1QGDpYH/MAFIgDr1n9P9F//Ja/xhNNIy4TzLg5T5gAMmgNjX0381PHbHvN6f8M+hAnkqgaPh+ACin/SvpP8iY99fEP3ZfMBfDgkoTntbMxAZIP1nOuFfW/oTvJlVIEsz4H7aQEwAEmBK/xmaf8VNYP2n0oDfDM2AweJgTADp/5H+MzT/iv9+CP8pXcBvhpUBmglgOuB987+U/tMX/hZXKv+pJUDkkICjviyIhYGk/+TwP5P6Z5GBdAnYnOgEkP6zpv8m+xOe82iASJcA2QQcPmkEvGH6P/SH/Sen/6I5vTehuSAXgAl49/Tfr/w9kv2XpwDpLuCoTwdgAt4g/w/S/8e2yNH6Iyjn7wimSoBqAqQJQaJl1en/X87037T+BoPz/PiPL/dX+I7Kt+039d8VmnI6gIhZdfc/z9K/6999PKr/Hv9x7b4O31l+zOP+RgMSlwapawJoBKxdA4Yn/Uxc+nerJ/4euam7mG5wbb4OepMMb+tDC+rVgWmf4dfj6ADDyYKIGtK/e83/w5Cehe3Ctfs65L2yvrl3E5AoAbIJOGAC3qX7n3zSv8tf2/vTUpU6Qs/uPPbutwMlwL5/rQFpRwoWigmgEbDq7n/X/Uv8gz/F44i/c5gBGDOkPdtf/flStluuPQ9KPl+ArRdI9Kwu/bd/8idx7c9j0X/IuB6VAf0PF3kDMPfzjd4eZAHssX+/Sp4TLE7yGQMxAasv/5O6f8XttxSD2PGO0ciAEL6M7a05Zn6+JMEb/Sb1FqDiv6Re4M6sAMTQurr/7Ul/N2m9v6b1fw6L63EBkS2F2uRndJYeVUCMNjjOAiD0AY9uYNIZQ6wTgqjAusr/xNN+Kb2/oEGaM55H7x4Unyk1e6LByeMAzo86IKUbWLTrAj8HswHE0dq6/8cMxX/saJ9598D4jLbwiQ4g2T/0DqBVgPKa1AukEbDW8l/q/m9S3H876uvLub12X87azXG7u7cLz7Ord1iezf2UYtRmwwsY82gx8tK9/PtXXQicbznLAKJ/JeV/3/0v0ty/6MZp4IAd7OZ7nPBIgO/Rzh9n+mneX2ScBIhRrzddAkT/wPu7lbQq4F4G7GkErLb8Pya6fzE2QWn5Kmp4G5/O99S6GDieO0v6d//6U6R/RY7vV2lTgv2fEmZFwJrK/+Tuf32y36am1ke125TbgzlGAlyPDtAP9bHBv0i0EIS+SylCoIlN2urgzVY6SwCNgPWU//V5/4oE9y/Z6TEx4azog2LCbeKdkWPfnOj7zSpjeJHjNS7HRaTMB8izATQCVlL+Jy7+ud6bzWfhGK8jB/q4vBqUK8UIDx4T+976Q9a5USYjVYH0zoMoz7HrggrroiBUYNHl/yY+/Qs1icfmTnd/39VMM9/t/cn21xqnDa/iAELuKsufS/JsAI2Axef/rvwvUpp/QuubR1wCcrqvWnDO6o10AON+ckDwxcd0hkrEUAaI+GbgXQH2pkYA0bWg/N+X/9GH/rbn/EgPf+H/NuhuhwMYmVoncwDRTYQUqTB2AkR0M7D5K6I0Apbd/u/L/9jZv+J+zg+513zO0aeKawwKt3kYn81Fjuo7/Q3J8YpMj6rXBUUfJ6wtC2QyYKnl/8cutvy//YpuMU3WlnW0Vx4ZcLnb67YWZbZ3I/q3sEyBVPYt1gRs+hUBHBqw0PL/M6n8r9P/GZZNvTIw8vPftGUAkwFLzf9ps/9V+if+V0GsCSjkvxuAB1hU/m/Sf7P4/xi99KckdNaiALEmQFsYjAdYVvs/+sx/pP+V1QG3ZAU4MBmwvPZ/5OJ/qv/VSUDsdEB3aAAeYIHt/8j23+2XiFldFVD+xJmAglWBi139d4pd+kf6X6EHOItrZCtQ+rMBTAYsp/0fefDPBfu/WhPwG1cGfEmHB+IBlpD/P+NX/9Ur/4mV1TYDr5GtQI4MWFz7fxPX/RN0/5kQ9B8eSPS/6PR/Wvv/9nOP/h/ponzB/9m7uuVGdRg8tN1uT5uBi+TGY/MCCc3k/Z/uBIxtyTYpctINCZ+hhAhwdlZ/nyXZPEhjTGsIeVu2WNDLa1QVCAywbP9fZOe7QUQapv9N6wloD6T+DWde4xm7LVs5nCQDPoABlp7+L6r+7Wv/gtNv2hgFoD2iGUjQXNOWLRfmkwHAAMvz/x/E//fV/4UT/7eR76BOBO1R1T+xAtuyGYLVBgUBj5H+35Ql//deQhKRQXuCoUAYDbSFawVtppIBUMP7jv/57L/PQvgfjfgBAJ4lGEgt+YgIClcNHmYGoCBg2en/kvD/0a76NWkB0B7YAmQQQG8Bil4h9gIMsHD/X7T4T7flkgLlf+ZgYBgGlC8TBAywUP9fkv4fan+Z2kP9nzkX4D7LlgqiBQHAAAvz/0Xlf8fTNoGK0P+nzgY61hZNEKSzA4EBlhT/L1v8r6/9b86tHQ/RjvYkzbOTsPZsBr5LLMBEUSBU8j7+/5ryv6pzNWLuAPV/YvVvw8nwpS16kbBfKhBFgUvw/6H8rzT713CxgP4/qxFgZn5gdlk+sPoCBlic/y8p/z2YPvxHRQLq/8wggA30LMfLVgoCBngK/9/tmcuPTADaGiDA8FcQCvyaWC0Yqnkn/78pGP5HKs+tAdpzBgIY3LOHokDA5s8fYIDl+H/5uz+rfu4fd/kt9H9F6YAwGugDAQUWYGJyINTzX/v/otX/+uF/NOhvG6j/StQ/Hgxs9404FFht3oEBluL/5dU/28ygv4X+r2woENhfEghwkwOBAR7O/3+3mawfVH99GYFg/ff7b8QBHtP/f5ZU/0Hb0XgrmRz0iTjA3f3/26Yg/LeF/qPFrSAUWH0iDvBw/r+f/AdpR8sMDLbyqkDEAR5t/H8wgP9oExZgvz0gDvDc8f8j0D/apXZEPcDy/f9Hsf8/Qv3RLocCyyxAtD4A9PW3bACb/78pCP9DxtEuDwO6olHAO9YI+rf+v0j/gf/RfiEduMmsEQSd/R3//7dc/yuE/9FmYQBxOjCyAH8/gAF+NQFQNP+/OkG20eaBALEF+PrD4gDQ/t8f/3/J0/9n/G8yG9rqGxGGQR5acUHA13tqAWAEfs//v0n9/+G0bZpE26H9aFwMzPC3FS8URtYIAgb4zQKAwvV/D631/4nzhwlAIxCgGY/t3kgtwGvGAsAI/JL/F+u/8ca9IafQfzTi953228NebgEQB/gH/v+/Av9/HKt/ExMA/UfjJoCcSV8eWL2+AwP8dgFA0ft/jh7jNQwJQP3Rgv6bREikRYEvr+69gWFaADT4dgkANwFI+v7PY0j/pyMAGAE0HggkvmErtgA2F4BpAbcGAGwBAKH+f1v8z607RgBoUQywiQLDpmCVoJfM6wKgxDdOAIj9/74x52bZ2+/hY7iAhma8iDjhsCft/lgJLQCbFgAIcOMEwLt4AZDujP+t67esxYYtXw7m9J98k2OA6vMPpgb+qv8XTgDomoizxMzDIGALIkFkghoC8eTADUoCf7UAUKr/huk/4y5sALYmLwRkb9ru+qJgKPP1CYCSCQBd00SWPW8Q8Lfev7xzcKThU2oBUBK4kALAbsLaT9l9bKt1/1PjQzsM6K4uCoY+X+X/P4oKADs7++8iBMAG7c9YAHqhTwqWWYCoHAAKXQgAxgIAYQFgdWwy7j4J9WBf+U6FIxss7v+EuYCQDBzKAaD+V/n/wgKAbr+dYe2hAivX/WxIOLIKQ1VwhXKAhyoAOKK4Be1WFUJGXA/wiVTArRMAG2H9734+h7GvcJ9U9vylVjgzaINUwM1mABQkAI/bNkrySQQBbRWePSsLjZkQj73QAmRWCYRil/t/WQKgn/8327ijoU2LSZg3IpwdXL1mSwKh2gUJgLf3PzL97/N/M3UfWBgjgHkjAbkFQCrgVgkA2QoAh31DQL+5OAZAwxAgIw2c4qWoOSAVcI8EgGwFgEPMSjQ0mVFIRgAuQCB7efAnwgB3SAAcSDTH0LgO8D/2mdBvahBw3g7XJgNhBH43AXA4CSy+wr7S/Se5mGrCN4Z8YVZAoQkonQFQnfaR+VZuz/812Ne454Qh7M1AMiprAaqCQOAbCQTCCAgrAGX633KtV9QQzLTyaE/f1Ox7VCRMjezNoS+v6ZvDoeaiAMCL5P/71FziduT6U8uPfR27MdOYkLmNrKE4XZ8KgJrPDgCIZgB0FPUzGMc/kk+0FcMANUVMTcVAkS0PkAkEQtHn+39RALDb5lmsLuq+YngPxzUc1bS6zxgsyCxAfoEgqPqMAMCbLAB4/MnLX7YBOK7omPX/inl6lRk8jkfRC0PcOwMHA/AXFYHzAYDwHUBHH/9XU8g/x30FIwBTcGEsqHK2ojmKAoHvCAMUBACEFYAHx6QwZFP24D8clX9yGo6rODIhYCISb/GN9sn2gIrAZVUAHjyDPdsUNfWKVwS4cxWFfqEf6zjS03y8j0sNFRR7IrEAG1QEiqYAfoxrAIsKAGJnznVcxSSu+vwCjitCAEEYYreg0gRiODSicoCvtB4IKv9TAOBVXACgcr6eQf1JCMAxA7Tk6RFA1v5nAGEiTv54Kq8HAgSYUwHwIiwAyJV8JPoeIYC8qe8v1zg+6TEvICnxIgA4H7adtB4IYQBJAOBTAAC+981EyZfKlXRaSagDue6/kDvqmOM1zp/rPGI42+vo0z9Q80vNtygQiGqAWQBgDACIKoCO21zZNrPclI88oFsbIh4c+9UkS4DzZzkflVgF/Xb2vx5FoA5KXlOhqTkUEK0TWvk1As8ijmqAmwYADq3JAjbCynpkfF17h197vqrRulsjMJzU4Rq3GrUB/ZHptdP3mooBdwkEMCgiBxQUjE9KUgFujUBAgFtXABxOkznc89abek6qHZ1eGT0C2WpKqMODoD8KPbDW3sSJXgzUJfFxD9VOYupBUMbHjKkQBridCSisADhtzQUGTtV4XP6akEB/Dnqk19GpZLMfkmQgf1UA1gbIAYCCAEBnzCwbniIDc7UQYHuGrewx+yGaFxReFeDWBoDy56cACBMA5UyvIf/YghsQ33luglRAhbUBbl4BcGwNJBfbvTZlGsHMwAphgIsAwGUAN5UgALiFFGK75+jBSJYJ3eSWCITyl2cATw2kENtdRwNGtEggXRsAECBbAigJAHT7Jg3k1MWj+7gQFNtz+26Z7k/mk0wnmRSAtQGmSgCt/r8JFgHsWqP0OBgLYX1FjrJNj91p1h+2Z9xyPA4fufIAbTIP9ERRKoCvDYAhAAUA0gzgoXFM0OzEHVX0dz7aPaUr14UKkmD7y90J+oPQw/XA/SAulsf+ntGN6GAB/HNB89lPGPecpCIwzAwGBIgCAP/JMoCVdiywPHO8HVmTT93mbL4iIIJ8Xrof9MegU1SogpQQHtN7RufB9Z84Bx2LhAMBkprgCmGASyWAgrcA9EuAcH/NeOwtQvAMMc3iBOsHTB7dqSBYKrIKUc+gL43OrgdUqCiPOW8jj8D9QAoNyLeTZBBAwwCrhgDRHMDz/8qXrALQcyXW16C1hplt8j2wkFzS5BbK78wAkVwCfUF0LgeaXSVAQWd4awKuD73Qz0TEhsf7uyWBwA2ZF7h2CBCvAi6oAGr4sD1Vf8M0mbA/vk8zyOAeJW7D+5ZM79wZgH5/espcjg/CCf1UzBhEfiMEmSJZCzjDCOqBMC8wmwF4l5QAHrSJgn7c2mtq9/2dmo312UCBh4c0wQTuqmImISdloC+BnjgBnTiEZJhA79RRMNgoZj604QLkLcD8MMALMgETJYCiCiDNTTCTBBXj+8AuTsltAQuEMJBKI41K5QaFoN+bzjNBiaFXUzxPDEYYDXghIBHApKsTCgKvKwGUrALcDY6cN22mCM5us0s600W2uXvpA9qwHfTl0C+KxDTXaUcZjqc/Fd2uRWsEIhOQyQAIXgN03BvFYLvmuWCS+TWeTwzPh6Rw6CjuUsX3kosjKnC7An0xdAbfcsmgmL9efBRJElKOeyFQHGzQ28/XBWGAF2QC0lUA55cAHkytBAhAUzPwsy+Y6jr1NFOdgn5fegkCUF5GtMkjAMWkiN9uUUBzkBcErjgTEM8BEgQATOzPR/PPojLBZVvjnVycigHobCqZIAA31ky7AH0R9AQDkqG8muZxKP6MMV8GAejkdqVOknKgdc8JuCYD0JmsHY/stffbifH+IQaQuUD9ATlnbgL0xdCLEIDiLl1dQAD+Cz3pDUzTXZEJQAZg/lvA6Ugudfj+1LmJxHj7MWSSBYz7ISNACij4DyQoAfT70qdYGaZ96CyLVeLbsxJF4AA/kYQB1p0JuCIDUJ2igOw4BFPMPIdbRgtNzHsU0aX2PjzMIgfOu/ifIQ7B9Qb6QuhhVB6JRMJScgsRmYTt4TYiAhkEoM3O7CpkAmQAQLwK2FABQGd2+clZ8XQwb7WZb9ADzxTrIDOPrP+IXUGYTEjiCuF20JdBH3jMpwL6r0rlZ3myvIJSDOsphvs4HHAnu7FzQTXAijMB6TLA8wcA370p3vU87vd+6xk+Kjb9qt1dgxnX9ov/SjtwJ4r0pR3fwyV7n7089Gap4+2gL4HuThkrlWfb6Nj1yNIgCUQiLONHtmv/M8r/avgVTX/ZggXdfsvnBKwQAhRnAA57Y3lHTLS2adjg4u2fP1o/v3PmXIdLKZIYHh6/902l0YXhGRII8LeDfne6Y5HjE71NTeBGlTyuIrb7K7wDf9l1PVwX5AJzmQBkAH4KADhTq61X187Uj18CAvBHRe5V41ffgX+MPGjGa4b/jutgPIxk948B/f50HXisPDu9lOS5TcXGnTG2s2d2hgmCO9kZ/1wzf4nA9WYColWA5g8AusbXXQWvbmVi/OK/uuPOIQDiHWgHu2Df/SPKBKni3sFoAhKcB1LeD4B+X7o32pRPOycMKbcJbzXhsJOOmPs67oCRHaWTDwJWtToQAwD9KkDv1fwSQKWI2d6NrlpR2zx+1cH+O9+vCSAIHSh3wT8YPItRsXcYuwuduP4V6AugOxapXTAEASfa4BGRgyAqhMleYnQGGwRx8cIRhM9S1PxcYFoOtMoMwOwa4MoP4pmJ3o1GeDTIOx3wmEUALO2rqfnexVcsAog8Ae1h54cJEcLwLgX0O9FVYJEn+7g9CwsFPhJHvmOXoqBP7PQ9lBzJO3p5/iDg8w9dGmAdECB5D8D8VYC6ITBLzLaKXH4aBBhcgdLRGN5eIrCAP6f4WDCmaooziSfgMYT/2bu65kZ1Hjy02+053W73YnWTMTvv4MsTkuH//7o3CR+WZJkIh2QDSCEhMV8tlqVHj2Vj5Q8uZ0H8ABK6PqAydvMXzRmKOt++Y5hxh/WndBFTMOhSp1qn4yeMC/yxxWSA3BSA4+8vh2CXQ11BQ0FXzUBtRNjYuYd21ZnucNyu29jviA5xYbde4QCfqeyLWr2z8geXo1qGQUegra5d30CFnTpVKYfKbreUvWr0FxgcB5SEOER/GXQXmxQEbC0ZIE4B0AcA0Pb0tw104ACgDAUOd89GGyJql20le0Ppds5F+8YnJb/QZit/bDnhabqtfRPuu3UcPwc+bSlVqEuwAUxV8B91waPavsDiY3vJALkpAE1rynvb3ZrekrTf02uHtyIrHV7hWAiHDZYf2sgAQwTAV8An7YvKQR+RY7HyR5ZjFaAaMgB2IPu4wBX0td5vu5S2ujTsWjqiL1xx8GUvjqPO5wFXbQNuSAE4dvgqWP/esBN3AGXoyBdt+S74AyhjQ977CXKFAR1IR5CfwftY+UPL8S+MEbvOf0hhtx4HwBXb9dbFAAAgAElEQVQAQPcStQDlp5b/HS0ZQJUDqE4BKMpd6/+DVedWPtho57h/74062cqcAoSz9YfQK6CNGDMwF4BPYeWPKScVh2teIO8GXQjagKih4Rvz847oS6RC4c9zHbtcTEwG2AQEiAGA9jYVde+6g1Xv7fFusM4EB0ApG2m0VaAJiC9gGCN2IQEiYE2z8seWs5pjVSgAxdirowy/qP4d2osCBkwjh1O04wK0o4KK4u2N8YAbygH80BqA45+vbhCHoxCA+HXmArAjd4gACBw+cwzE21NHw6gGwRU5QjBY+QPLWc3F6JAzOdjZM7Q4lIyoAgUEkXK0lMJRnwwQ5wNuJAXgtZjUA0DscHD5gjMXXD4x5DySLCm9HJn7mDEgMeZwChZ7WvkjynnN7SAMA0h1I3AtYR1LTKcQAqQqhFSRdCJdegIKPQ/4tpV8wNwUgPpXWz0O+lX76n8PhUPdki/DFiAHuPYM4MiBQC9D15EOsVOAlT++XKg5RzWF6oSkJUD1hekUhD8AIp1DG8m5az0PuI1kgPwcwGO6a9bE5Dml/HPMzgfcAgCY8CjwAnamTyYLkxMiUCt4xAOu0QjwHMBv6hzA2rTJZIkYoLZ8wBEAoGYA978MAJgsUXb7rHzAdUKA9/dMBrBoTJNMlgkB1AODX7bwpCDGAGrvzeGPAQCTWdojPBwCaKcILX58X3k+YPYggH3fQyu/8cJ/z7jc+fS2PGKBqBbvXLWgf1zgBoYEZA4CqH8B7QWO1w9YrPmsZZm1aq+bnNqGBEgA4Nvry6QUAIgyNPB67laaUdO23H+Z6SwznVa3X/n7aEMCGACYNBHwOQUg7frv1EqtrS3Ddy/gNBOSAT5XPCTgnXcBvOpTAIR7fm+Pb23tKV3/XwkB9Egisdeuzu4KXPMoQDUDOKIId2uy1uSWgADmonNzdUENAbQ84McQBKwNArxHDIB6GrCxO3+3JmuNbQkcwJ0t/DVdUF9JPTPA5XnBK+0I6Nt/mwT8pmcA4SKXHhz8ha7p16kLRD9vOJktsy8wVEu04Yazpao/lF/RBfX1HBzVXYHxqMBVzgP0Q50DCOFWo3su1EG+ern4pzW6J2r+rq/g3CYon02uftr8x3RBe8nThz4fkIwKXBsJmJEEXJcuavH47eBuSne3c9syQ83cZPaxJl3fMbnnhOupecAXYVTghgHAHjhik73/TZo06h9seZ7GfruJxr77we5hv20IQAHAmx4AgIwA3Gjgll+P5vWXZg5yqixh47NOo13UEOB1fRCAzwP0TZsDdPxyvF5yEYCyHq2hPa3Lv5GJu/EyeacJ33bqyYE+1zg3UOY8QE0J1xj7W5RLaPNzqaUt85uA+a7yF07jQD1J+OpYgOhZgGoAIN9JN1d1Wbj/fMu88OCvUxTo95/D1ITg9UCAPABQuB2YmKxE1EMC1gYBsicCrE1pTFYk6q7Aj7VBgDwAsDeVMVmX7CdBgH/XAQEiBsAAgMk2pdwoBMgEAL+cqYzJuoKA/fZYgGwA0Ji+mKzNADRbhAB5AOBoPQAmqxPt84JPEOBtHSyAAQATk01DgEwAcM4B9KYxJpuFAOtgATIBQNG1fX9efL8iH8plyr7q8yk++PrKlvvu/nzXFbfcrYLuvYz9c4MKX746X2wMAuQBgEPpDQCYrFEOm4IAaBzgJAAQGACPVuRDucxt7rUffH1ly313f77rilvuVkH3Xsb+OeLIPDiXAwEW3A9IHwam/OfrngHw4WaKN/Sq1NqBhyYmoz6pLpNKJpkA2QZtDQJwAPCpBQBX27jXvV3Z7E15TW6WfbOLFSx8kW2CTAOWSp/0uQoIkAcAdg4RJ/JrnEsKa/2ErCYmyU4p7MfTHB9Rz6TmKhOCVzAigM8EqAUAnhla9OnHQ0hxXZsCm9wkhygaZeF/EhsIbw/TIMCiZwfMmgq4hoSRVXQjiWsjAkxuCv//c7TR45W+z3RYKz3S4icIJgDg+wQGgJAmPqID1QxA/9WIAJNbwv+vqO33rZmoJVdPCZG2K6VDWv4EweRhQGoAsEvFWyIWSK7RMc4bEWByQ/gfd/y1by9pqh9R3w6SbgICZD4LoIiCLRBLxiL/KAesbIwIMMkN/+XcP97D5xNqy1T4ctRGIAB9HLCaAfAdX0pXcUmiWKZejQgwyQn/f5/0SlSpayqHv0QFagjw/Y09LHi5AED5OOALA+AZ9ZcuUXa9+PNALCMCTKaG/64DANNfUod1KNgEBGAAQPc/1y7rdisqBIwIMJkW/p/pPz+7Kno9C/DRPyz4n8VBgAgA6Np/cevt3dXp+14eTKlN9OG/w+NR8cs1zS2u6KyMSgjwyiDAIscBThkGVN9scIs6feedEQEm6vD/j0sF+ScHfisMUEOALh/4n4X1A3AAoMwCPo8CuBHpn5CbT3ICX0YEmKjDf5/K8z3FkiriaURNG2WDeFssBMjKAj6UkH9T21dfeVIFnZbGiAATTfi/E5SnfV2cCNzqqJTh6OdCUwHes54Hfu4COAdIPpdcOS0DkPD4XP0PMCLAROGIWurfe9yN161a392zg17RQ8j7Cy8L6P6SKBlomQBAmQR0/AJ0u4mA8It9tsf2XAKuOVILRgSYXAv/f4WWTZq5H/h7rFlEFWk5OhIr73lRQtGoJ3ARNiDMA9AyAHoAQOwnWmiBFz99jwB+dkRAsLm4Op0RASaj4T8MzZ026jb8/9kiAKSpkRIGjSOQdggkTot2guCXhU4OmJMEdASIMBdZhAKO9YFUo0dmAJ3aiACTkfDf4ew9AuqD6+Cax5QTY3/khgaDcv6tVMLXczrgwiAAmQnou/p5wA1t/gD0jnkAbgHYXT4vuEdB2g5GBJgown/wkdp4RN0L7RtnpceK6qPdlRBgmZMD5iQB7Z2HGHSxOkhaAEwCdlLTIwkXaESAiRj+l5TYw8qF++59pFvgPQs2I3SKFPH8QxmJvkYdASudCaghVle4jzBqVwkJOBABoqkwIsAkHf4TYB++02d6RC4dxwpeUF2hV0EJAZY4M1DOTED7oQ8wZv0T3QDCbn7knHRvIwJMuAryziUIesMcBt0heRTVOWCqq/NBwrQAq5wIoAbA3SSkb48VUNNMzW3csZBiEY0IMGHhf9yO+yIOGKPOP3IY8D5qEE+qzAf+sbhsQDoMQNkHSBt/nAsAV2EBJQEDEZCEEUYEmPDwX3DlUuo+sAY95vDFHUNOkR4CLGRM4HvW48COPg4AaPDvvUDn8UDMp07MIcClN8CIABMS/ktOXeyx8z7d/KP+QSECuFxBiUGLpY0JzBoHWEEE/1PeHvwIU5AgFxIHGBFgwsJ/iAgmyU1gQj+KAmIEALSo13F1T+D3BY0JRADgPBmwchjAEQjkEsJ7di8FDuDyFgwozghg3TPq5zWbrD78F+NNkNv/T5mRFlLPolNimKvTvmJpYwJzKMCGsSdSeO/pjZYQloQACBEQHWFDA0za8J8kjAQ9k5m6OENVxpgshOW8gBIC/FjQmEDUBzBhGMDezyVphkEW8EYEbL39N2l1SiXszqWuE3oCF5MNmDMMoIb7GoBRC2MWYNNybGBENYr7GgBdT2BEAz6vCWAPBP6mywIs/J0RwKiZt6EBm27/Wa5hJm0F5eSAS3pUcM5UYIfd3Q3AKMqwjIDthv87yHHPs+mrzvcUi8kGzMsCbPwDDECmrTdZdfifbv6jFP1c6qrsCSyWkw2YkwRwhIcYgCvRnjWHzcneV2mFGO2im01fldMCfOBswCfuB8jLAqz9YwzAKN9rRMDm3P8oJBxX3fkMgHJAwGJSATIGAu/hUQbgZzHW3WAPEN2WnJ9CldSFK65rRo3V0oBLSAXImwvw4B9mAE5hQGVEgEmHBqtsXD6fwu50yPPlDAEWMDdgThLAeRK2tjKq/suoVGOl1wmHBh9R9culwCzAdsL/qtOBoAGDBipGiCiVlSt1RT7aQmU24BImBmJJAFMowIq246qvmb56yAcqRTu139Smv5Lsx86GBmxDjlHjDRqocQO4WVfDi6lkFbsabjcq7YCAMw349vypAFkUIPAauGcIcCECmH2uLCNgY/C/dl7wxZWeCvJKZa2ugwNtNuACUgGykgAKIAip4ncvaTkrEchrWYeK1c9wmcYswBbCf7mFVl75zC4vocgY6Ed+Boec1aQBAYtIBchJAjg4gp0QoErGABWPAVBQoIwAfYgmKnYVIwJWH/5XSMWowmkniBh0rooVVlBVosU4lL2s15IKkJcE0HjPW3FEy1Re2IK/he96J1B5euTwtjkC1h7+V9hRYw1QG3/CPCUVt/JsL0mj1fOCLCAVIC8JQGr7I3ZTMgFhoz4MxDVDT2YZASuWGhjJjDRAX++y5ggKG+8laLfO7Hw+OQmQNxNA7cU7FtlNVhRhqYkI4Bx7MOyAfxoRsOrwv2L8X4sItI/spggg7Y+kglirK63DKV6evh+APhJc1YaKxG2UrGuVNBXo5xQs2MQ2pruIEQErDf//V0m00mU9aX5IhbOP/YqMANTM1bP3A2Q9D+g4Bp24XxZsREAA3e9J6tBUsinRD9IwWVj47xPR+USTr3D2QnyQ2lmpbJ9PTgLkPA6gqSR+pEqG+HMigC4grKTFiIB1hv9VpELdemL+hxQ+xg1b5qoFC6GjAcMzgp6xH4ABAF0acHGG26Ebhf4i5drXRJ04pM5dWUbA6sL/tNpMCf87A5BSTllhr2htpYuXn/wBARkRwAEqlkop3iB9+/dT1eLYpC5pRMC6wv8m3QqnPx4irZyywl7TW50B+nziqQHz+gCaKW37HgigJwJEk61N0TBZQPg/0ggzDP3MaquPAZ64HyAjAiA5WfO8skLDJOYwImAt4b9Pt/+c4R9zq60yFeCJhwRm9QEc/N9HAJc/Ix2cGRGwivBfGrTXvtwh54xzq62ShPg/e9e22zquQ5GZtnuw9+lbUWBwHggZiF6atv7/r5smsS2SohxasSy6lXO3ncSWKGqtRUq2HAfIigG8WEAAaSGgZQR8G/rvEhgv8+qQrhoHMBoH4DEAVb/5JkmoMh8vigDOJpKMRrgmBOyf/hNtHt9z3bss8OP7MgN2L7oDMTweIIMBnC6nPi1jNdEFr+1mny+vuSDx1HX4D9FPNiFg9/T/Wp0dqd3LPXv2B2R5yFK48bjpj7sb5vt1KPuOA2TGABwJ/w2lRZMlhuY/vY+fR83+8pptJ+/oRygEcNCEgP3C/xPqRHBvfIbd+Z6dwYmuo+4lGDGDHiRTgKzZexwgYyTwB/GNpEiZM+0k700qc9p8B1LsO2Yr4QiaELBb+t913LhGY4E7uJ3oU8LPRwbKOUJH0O1lB92lwo2OB8iKAZxYE45Lzs2wN1ab4+b7tCJSX4QONCFgn/QfY3AK7u5y6giusn5KsNS4oyOd3fCaxwHMIYBrDECFAHrmQqmkEnmHbhYBdHcjgMtVA0i14v9oQsAu6b9sN+fqvW/yR9ZVdBLFcJFCOEMHFnEAEgcwBwAeHp/UMQCp/ce9epBVki5genenxTjH6iW46TZd6M6Ww4mgSNrs7vTnTurHZzr7aVcBNIwHpkEkh4gDWJQA/ujdMxZLqW6aCAVI4j/+5r2Yse/i33SDZtSEgL3Rf8FILkt/L6MjVko6KP7aCRs6J9ivEmP+sRgHYDEA3WygPYu58QhKxxQTsflHIOF+s4kkyPD/TQjYHf13kgRwvyuXWnHnItIqdSZxfHBUmlX//PvqAB5sIQACAJYwAKFwUmWXzAUge60AHNkfdai2mhCwG/ofh+mnZQUyJzoWYZE0bpoWgF5004M/2oMA7JKAuoFAp6SWzwqPKwBS+k/46jq2Q/gG/ssmBOyI/nMgPgTc16jDTmzwXcIpJPblL7ruxeSkABnXA+ghAQFEh8qYQWihDFZ1a5gPEgI6VkdNCNgR/aeG1K3J42RFWoSzMRKIZMPByhZwAHJ9gF2mAb5FBRO1+y5KpOxiGsV+wq1kQBz9I0DQhIAd0P8EgVztsi9upv/vnJTFdgMCXN6qji0KBO5zKoD3F1dkWQtCdum/eG9NbAf0X17WonBljFdnWeYmBchKA+ydZQcwZ0Xdv00IME3/oXz7L+MAlLlABpMBsQTwqEoDPHTGHUCMI3FFNSHAMP1P1lu/HnsrZL0q/xRPCmAKADwd7mxeRhzAIATICzQhwCj9n+n+13TbZYxXNSDocDA3KUBOGuCLeQfQhID9LXPK0qrErZD16o7RWDJgyALQpwEenH0EMC8E/L8JAQbpf7dR+y+FAHQcwFwyIA4CPqqCgB/7cABNCGj0f1MEoIsx2xoRSCWAB2Ua4JlHp+/jI+O+ulElDu3r0TchwBb9n/g/EQKgxIQu5NcFc5016/RW2GUyYIYE0MOcGwReh/oFVoeVfc8PLbw2IcAQ/e+u9QJufIWxmgpM6Tb+AXYBN21Tck9sa14gsKoLoGmADyoJ4C3tOnHxzDrLxJb1LesUOaXhFbqXJgRYpP9A2xUUGMKV+qtgwgmzBnHvsFUFVWyJABmzAY7eOuUOYR4HwGYaAA4tgfDfTQiwQv+lGoIi9B85ANTSNRYKpO3z9QtAZTwicG8jAaWOnjyIp4y3OhkLfD0KmRfEmOT61IQAC/S/5/Q/tLEyLjpu9oCtY86sQeS6w9aXHYoAZCSgKg/40HVyYTDnmdwqqz2FKMBFCJghek0IsEH/EedHBlFoRncR9afMFCQrBuavRkypOt7/jRyg/ojAnJGAH0ijgenm2OvMxmh1+FTIxk78gMKtCQEW6D+ELhjXU6kZXICYcPhLh003adHCLtMRKwOBT49WRIBMCUDQ9KQQSrQSFRyu9GnHYiiTh3LQcxMCqtJ/YBaBXEExfkaMjtuqHBOc2xk9VC7LjgiQlQXQzwdNxU1kYweR2Do+FTU09l+j825CQH36zxFAYccMs0F/0aDlXXi/16sCgYc/dkSA5ZMBHW6ETBYjAEAqSkGo2QM5XuzNoQkBleg/wdmkVope0M3NhfzSCCAy7NhNgF4EsDAtUK4EwBp3qlBALlyXcLolEcAUvJDQR9cmC6xF/2OEDcWi/7kIQLXnuK82G9hIJgCTAA6L2xE456RePnVnwIlvLYs3E/QEXBMCKtF/J4NBKDxg+3Yqe8JQkjtP++5KBGBzAeglAHL7WhyAu+MW3pY2OfKP4f15aR5gc/o/Gg+1pvM4jcKVMWuvyzbgw74cuuoAzGQCLM8CeIsLwaVCbNpbeFsadPYAggx4fdeEgE3pfy9EgofqKH4993vNdG6jyncZEQGyJADZC+4CATyPGQERAjjXYBMCtqf/kt1A+eu33NVd3fAS+xIBlmcBnDrR++0DATyPaUwSAtig52nLyMV82hw2CMpCQQ+wJxEgZyBAv28EMKSeCAjg6+ZbRsBm8l/qtokaW7D9w65EgFUkgH0hgLP59YmjL64+t+VC/7t0h9EftkBhJREA6EWA2sMBcuYC+IBB8qQPAHm99jG+2cYCT4BAwHgC18NoQkB5+u/cGDjCNXAp/40u33qfsc4/dCKAkTkBLg5gmQSAWg5H/5DYpngdP2wVgsLhS6ChwSYElKf/QO/T263wV76h3nzNEQFqIoAgATwqJQDSdHDtoXWLX8df2aoXeuvJoY9e4Lw0IaBw+wfe/scGtF0ylmyIYzPWGm5if50IYOLqAMunA3wDrqBBqku3jAAuOhTwXmjyAc0DlKP/3PEGL7AN/b+FAG5b6o39lSllBq4OwLIAtBIAJc8YAdBiYFsdiN9iXnRDWzxJBzaIgU0IKFTmicbvtMh5TREwaZg3IH4CAYTd9iMCLL8iwCk+5cgB0hzbBOEj+D8U35bWeB4aIDLRJgSUQ12p9r8t6oJZw5xF/vy4BUtXuTIDVwfIuSjgCYQiSrSjZQhgYwpwFQLkg/968r4NDSjDuuT2v7HuIhtmwnTFDo5RR/yDyjkBmAhQXQJQpQEd3BjzQ+G/ZYubXVtDkUoc53trsuvSf5eu/q0Bl94wFXtFq7zqGP4eLxJcKxcQXxRQnwaE4/YpNDfnVkH+8rhic1LKNQB0bKfWaNel/zRfBN03L2mJnCYYK+arwXxFi550JG0qUO2JAZfPBnQWcWnmzA2HmHKYLlrnKiCAixDA7BL5oyYErEe3xuifZBUfm5dzynpn4WkawXDTUYHH3+OAwFoiAJ4M4IsBKDVA1volP0nLhOUIOtrmyW4bawCDB+hdwiH5JgSsxrWOkQVMDaZG2gWkLTOR5+p4ZyXY/Li5y1IBKw8FfFIVXE8LQvSeTN6PHSctM0fWVdGmPIem4XPLCFgt3pLoM6vALJYB7qKe3nHrZIbL3QLlstrxQHVFgF/L04AO0+myhCjaauYEFCd9Civr0VMn+LBzRkBrvkXo/7jUKV8B0LvYfl1iS7Q+wgAqp1Z9amAsATyqNMAPKL1UEqj7tN9qQsAq9D+xVAq1lDZjFXCsPCtQTh7g6Zs6gMv8dPLi/bEJAffR/5n2X6toC1uxV+Ga37XDAHgo4NNfP9oBzGYENCFglSiLJXBV2oy1KuBTxQGBOUMB/bd1ALPOrQkBK9B/oZXUI1elzViXClQ5F3B5HuAbfGMHMGSqNSFgVfp/NEf/N3EAOm7zd9V5AakEYEQDrOkA5oSAYxMCVuZVdSddKG7HehWwngiQkQfovrUDmDVY34SAxQ4VZtp/XYda3I5V8OZ3zQGBOZcEwDTZowfkagPelgN4PpzoifnFwk5bmLX4uMZ9/bIUqvcuys9X7CIXcPklAS6ner3FLoDe2N3He3iIv6cUTwoLAdQFjGfThIAM+u9ZFQ+r3p+rO4D42PJv0g+pyuixYi5gxlUBDymf53PdpjUEcMatx7QQ8NqEgAVsygvV6+vT/6sDWDWeJf2YqrOoenGA5YnAHwQ2edyEKRmgnT7e04vOI3wJLHRdnvmmcPxNCNDTfy83Eg8WrsMc+h9mlshAvWjYMkfkX1OqgH/qhQEy5wNEcCfUrFh8SU85/URcBRYQwFUIIPSkCQF59B8w85ssxUQJShaZ2fw9afjLWE7VXEA8FvhRnQjsQ7MNVetJn3+LMHmuDCylThsIAaTlk2M/NRpw04N+Os+951Tp7yaEFGqNsf2K5pky32AgaLM2GbjWlAADAhgYwIMqCNBDVBIM53uQ2zv1FawcyfeNIFgvnMLw1DcPcIv+O4ywaeEZ4VBMq46tOmKwAqll7oH8xFE1IvgvdnWQekEAVam9el5WuAmztbiEiKCOHWfsBOxoWEEI8ISz+CYE3Kb/xCxCnZtxnizEI/XuMdJlnsFHeBj/zlF1HDgO+M/mCCAnETjus6OQn+gWpW/QoOH1xQyMPXkQI5teO9brB9N/sZ7P9MlMHFXstRNGyvajrR6EX7p+zEoGrpUHqAwC4KB4qu0LzlPo7qOStZIHQIUAquwExNeEgCT9F1rP+PbdTh5F3KIpShUdgghiJQh8uS25PNDD9mGAnCAAqlrBvfskfYp9RRpBWMKysQowea0mBCTpvyDt2AuhChA0atzRCUjYletZ0xc662GArCDAmQH7a0n44f0of4a34eN0Jx/IZ77Fljkfw7miUzsvxyYEiBiRVW6423KZ1GRFS+QnEBs9+fJkGuNb22GAvCCATzlOyRHEH8SwYEYG5YZCAK1hct5NCIh7CKGshhdjF1sU7C9pxvxj1OpFyzYfBlg+EuDV0xOmXXpU7UoUwG7WbPoYdRFTR9AuIMplU5/sDd6NlZUAU0R/kOzp073d+P5VVWi1wgB0OiBdEMB7H3eIKRiVauBzLuJ8N4dqj/x0woE3IQCbx6tUuwNzMseXxF7eS3iP93ng0yCWbswJA1ifDshLJSG3fckxxP4iKkCDutZROrGLXTchANN/sT7PTwYdpejQ0/B0VitInLU3PSlQxnRA7zd79NihCrhJIAv4jUlomzCXr7dNCAjGkYKGFqmSn2vlUid1A88KHFF3cdlqkwItnw7oJEOiFEu6CfvlwrdIbsehAZLRNCHg4iO7BK6zKpbOt31R87klbkWeIi8MYPiaAN57Euzw+NUnV5LNgHaA+IvemzTwD3KU5OyOTQgY6D+r2GGFUZaUMj+2BoRd4LY9X9/prw3wVAsBjEEAXRTwSBs4i/qHld4nAn641PBP4CCrURO/CAHT6WHff/zxQsDH0dOyQbVr1T2ieL73Xujeo0SXOM9Ftmd07poD4XHAjVwAHQnwpIKxR3Lq3H+ilSAjAJo/JLtgMOoAxhiXx81/XHRk7xvTf7ErvFTzp1WChM0PxO492GkC6cr2jC1bZVijA/hn4zDA4rGAb3ENT+4AaKl4L0qlBECAJ051emOX5h65b5ssAH6wEHA4OYh7huHJrkTKe3La0ZMOHri9Rz1YygWo0M9jlTAATQP4o3QAQF1f6PHj5s9IEjB4sDsE8HwdGkCNJZzFjxUCvug/RLR4fDLMjXhPHqNZmdREexESgRuH9vwrXSKYXBhYNxYQJKUDqCYQCQQ+8qae51nTJHvLxn4WAsBLWPCnCgEf/dHTQHpYTDtF3rhBFKfEnh0Ei5c1Q70D2DwMQIIADwuCAMUX03D3M33c8BOFgPeZ8vg0TYs2sWXLlwjGDuCxOQDtMlMIP08I+KL/dxp/cwCVxgP++oUHA+uuCvTZHMDzlBEgLT8tI+A8839ysc6ItjBl+NQcSaWrAy1PAwBoDmDe7I+vP0kI+Hj9j70r2m5U16Ena1bbmXvPvOqBlz5Ja7pCIP//daeAbUm2nBgmBbttkkkImExtb21vScYg5lqifirchQBoHQHsGATYMA3gRN8K4DsQUOL+v1bu/u/nAlCRYT0dcj3g1mkA3wTwHQj47W6i2qj7vyMBVHs94JYlgb8JgNVvVvsSfIlAwOwHYaPu/34E8FrvwsBbpgEQfhNAMABIIwDL6yvcQHS4dkgZCmiEAPeAMtJQogePmAiwaTWApU7oke5eao4fjv0AACAASURBVPPW826B5dmIBB6DzYf6fZlLAy7gez7p1Bbcf0cAuOJpAdgqFBlGWUjo3yMmAigXoHgaAPJgl/12gw8/jwJYLg3AqH6eCD53IGBaKDXbpc2sj7JOzlp6B22AK2uodUWAbasBIAtdh3QUn0IFZ15WgVREtKOD1d+OEgefORCwpEFRISA820mDFuBVYzcFcFoosYZ6VwTYsBoAxEQYKwDMEaEskOzH6HtLpoC6GRgX8GkDAZP7j5lBsCXay8Ex844ZhN8Ge/GKAM87rwigbwpQNhGwW0JcC9Oj3JJPtdvYlnvcpjh1+mhJDI+uArp+K9y/Bt1/8K6/rO/0eh1bIr0YjXnIxl5/gufUEvwGdIUEsP+KAOtvCmDEO25FRm5GUKRWQvadsSkXwAUCHIeltfuEgYBTn1H/xXK3LgWgoHpz+1ZEMIN4LB3OTvtPBdSrARTNAzrR/VB+YYnczuYUwBwIyPT8NBP8s7kB7z4PVzSudGOzoJE+6qk+tiwJUulNAdam81YVFW+tGQXkqkSv1891acB5kv9ox/+61siuMHd9B9N3S1c6FfBFrQleRADDXba7KwXKWrA5WTzaff/+gutnCgRcKIR42M9d3rprc+7Oaqu/6RVk1e+wggD2TAMoAiibCIhFBp1rl0yDYvsE4GcExBhYjOTTBAIm9z+M+3G3N3h3FHP6DlrT2zZ7vMUEsP9UwA0TAQf00V6O+2L4zm8UfZcFxQ8Yv+a+NGgcAyw1ilunudD4Dfk/on9Q0pktejoSu7piMWjDTorxTkmDRHDGslyQmwr46wAFMDHAUxEB9JGdilweqsyJSqKkST9xgkUB1CIBnMZX1Riyip9judDzdFeEKAUcajq2qHKM9LTuOtJATY8lOXFtAcvXUgI4VAH8r5AAogEuNWpM6FGbOX+NWUTsaBBMc3IsZUBfrfYDAReyhj5X1Tbvj3hbkyZHM2DNgD0Ufa11KuCGFQGB0NDsupGiwT2cAZTSAC37E5Zt0APgSihcBG+58UDA7P4nw5+wghYXQoo8GcoJ2NyQZymAAHYuWtT1u18MsGUi4CjbBnSrSfuWjQqRQFKbQGi6B+3ZP/F4TxFK3P6mAwGz+68wHvV1k3dJT4DJlisUAJDGsuYBiePEL1gUwMpVAX/tqgDWXQoQMyKIJhLDfGQFsVJQdk9RwGUu35x9XIHH+zig4ZNlDQcCpot/4iFQYX76bG4awG9h6qDGcgdMiCIDrupAEuigJgfH+m96W3l7wJ3WBdYTAcsUwIRyIMD8g9xhWDaWL+IM8HtUseTRmj6+3moTrnurgYALljyguYkAMXIDFt2G3BcBlfFNCutJn78/YbUC+LmTAlh7KQAGxQMElOMAZtRQxpdndkzyKC0TwAhQZCJNRsqm2C8VEQCMDROASPmx7SexQbswgx4i26BiOO9+MYC+KUDZmsCB1JRR21TAxCjbRPBoaK1QvlUC6KnMQtoMBIjs/73atUZwKWZtDKOlfPV3xRfx+FjpusDr1wSOic+gvIgiYyWgFIBkWN1qTQvkvDhqMRAwu/+5CvqtUOLSIgHIETsZwiFRAOGoCIHxTl9e/si6q4F+HqEAfpQTQNpSyivgmiuKJDXgJ+5W1OxNJQAyhi+Ngw9AYzZywVvCN+npti59UpbKiE7tXyOXMC95KR3NNl4NtO+lAKWLgkedT8IpMMSAYgk1WCRukqbV5hIAaIDDfZne1e6WdHKvDJ+EB2izQlurIMUgddaf0bR0V/Va4C9WAD92ngigFUDZtUDvJDgTIbiN+enYEYRTL/7xUedGiSOI4UTkI9NGUwkAn8/AUPn358U3zjzqL/+8Rmxm2ux5FA7w0kNOxiC8TusChY4Oiq6pawIlSBl/QqtKMCPo4phA3ii+7C2RRaf/770u8JaLAWXmTrdTsikbxoj6QRRgUVmYhghgXAwDpfXPXT5cRdJUsOA8NrQxTM7u/9ynyIOeqyOcT4McDB1FvB9vKBWgwnuiiswDCp3hqwSwHuji4su+NZcD/qpYAVzCKG5YL2ojUNR6c2fCGS0pgJ5SdgOaE/7nUVfaxwBmCmjBVR4CY3klE6qyXN940VLOVa8hFycM6ygrag9nAucGaA1MC2BcigngKAVQdjHg5TVqDpTtpCgTRWORqZEjFSFg9P7eUIjMCQCU1V1M4NSjOXTMuKjfSnrPWKBrNz3d7PbeHPCgmTBnrADU1DSNS0pBrcZ/SycEFihqkH+XNMD+CmDFfYEsF8CggqxDYBzClFzbcQEGzmQIZPCNcS6o+dGb/zROVh4ImNx/z21K68kZjadRd6FvjlZSAclQjvEIl5O1lDkt0seLM/FaTgDHKIDyq4EBbzn8BhpUWESPI5hGA8JmIzEyFxeTau99W4TBzpiCwjVi3YGA6XYHSgEIgxB/uJsDLcJi86uVVEA00htOvVS4ZlEb+doosMp7A21ZDiBE/hHChvoSwid8gHi3OsHtsw5hGy7AhP4QHOdWUNfETIGA5Ok/6h0oB+A+FYmaqZKdmsp07jQUlrdWUgHhb58Qy/UkC9qyOWxQq10KEXUuCLBhOYAOReoPzX8hYxQSRPO2kRz04WTjN5pQAKcRvEpWoR9t1ksgIAKWt5RaAwG9G/RT6L+7/zFVUFK392cbmU6WqAxEzXopvBm0CvGkwaz1xCYCePl4ASCWAyhUANwqiv9IkCjJsYPTXzm25KGFWaINBdATomA3Pyxc0tyJAhaxAqh0RsBpFDQl3V+wLmi8YDJ4Tq8mUgEgRnPD+n2nqiNMAjwRRqnaaDeuIIDnXRcEWL8cwBhwEA3qmkQ1FAz3Cu3ZFeE3miCAyyJuogpYObDpTnoxE7qPGq+hP0/xCZS95305+26HvTIa3+9NpAJQglfPagp0zVpV6gKIJv34IIFkEJYXm1YE+WAK2HZvYIF3w5yXptFsyqDIOFrqsGfZJhIAgEn0gkY7ok4cD/G852PstQUCBvHXaduI3H8hGFT13NktpAJYgmI8yLMHyxsESrem0LUsYqL5lS7Abgrg50oF8BZhWPPdzPvanyIp921Hi9Rhf6yFBIBm+WUQyAS/fCBAxZf8R11iuQc0pLBz/zO1m+4VnNavgVQAT+gNQ7wapnivgyYprIpAFkV6AVUU/G2dAtjlcsAXdWOwwiUBnacz+UbLu/yCcp//wt/STV+E+ER/rIEEAPcxVyUv6C+6xUSIGGpaUdsFNkWuxnUKwI35bGfZBnx2V30gUIPR+fxcFb0RiqTQttDOYSHYsCjgzyoVwJWhq9J9xHuDx6j9RxkpcS4UCywQjpj7qeoTACg4j6s33EysidYJ9jU3RDWBgLNTcSD5yUcAb1dOBcfd6dWnArTMF7xMEEfyKPi3JKN+cRo8nL90tjty3UIA+ygAFwP4UUYAktakAgh75RgnzMNvuUZxXhMEx6k1BdBjlCJeqjTcEw2g0h7iow5/WWb/Q38tvXIns38h0KqwRu/GJICAwkj1oBzTgwSgIAQwiAVUvK7ErRvO4G0LAeyqAIpWBPv91qHEBYGMfmh0S8sOWygG/jBkhGgKCD5uIAEgXZ2iZM+ptzwlB5kaTKWPXBPXq3OX3lvavgceGYXGuVRPABgcf8Zz0LJ6DwJIuYtC03F5EmgOVFGkAE4HxgCengsVgMJFZP4kxnfkAhwYUc4WeUZFLs/WVH8CgK3fdTaNhcQhsyTBYo6fOePdf5ZqoZtLLmcbGe4sImpPBXh/XZs/JSEBCuVQwBelAojEAsqEYZkCOB0aAyhTAMq4A8355hMzJHQBDvYRD/xhooVUTb5N604AaP/PoaRk9uvQEeiIaPglPHixwPM1Dk6GzqGuwIyXsKiMbSw/UXUqAMR8HwVFUqDmPUrAxunAMDySxP48F7jeGMAqF6ATAVEOjIK9J4qcpuWz59cdBDx1qP5c91kWyDtfc60HXXfkaDlAZ3TD/Ci8t/G5S8/FzNSBegigGJTi230oR8W6lS7AfgrgZZ0CSNpEOP9201COG0hljeLYYMUEMF0Ba+UyS3HegxghddgILoe5AX0Xmz4HwkpvangmSIJn7+CvORUgxyZMRDzoJKECMEYpQRELVOcuZ3dbCGA/BVB6W4DfIu+JKiQKQvMFv14G+mV+WLEFgZFirTkGMCUAUs4rv+fP6ZIZKKbrxg8yllPfaVYqyv6nIY7YJpY4QMWpAJBsrOxchmdAR7v0VABMOQJT3ijpBEkALzvHAJ42KABU25iwJSaMaYp9lQLEFQ12XALAyPesAfnQYZwqDe14iGA+v6ElYOc/a5Vf4ngktol6UwGpNBV61MYuJEN/ZPYUD2alLu2p/hgAGnVHsz0QJHOCMd+PUvOn+hWASwBEFaV162D6QIABqyMCAYPGqpzMttKDn2Y8RzWaXvWmAlTFyWRARmYU/xbjPEVyFpOIQf1ZgPKYic6BaCGs5wFjFAkQNECpAFZf600AJJNDpjTvSuV+6iHJmB82Xl7IDmvNwmZtxd70pBj/qDUQaAWuUY/6lGIYwNxnSOLgHJcTwPMhCuDp+UFB00c9KrX/zvxj31bjOwkECBjtGwiYJzVnHhtuZpxpoVpvHF4VnvdWAC8bFcDXJYCcsWxB99DlKWDHQEDGG1msdotyP9u/VWkqoC48H5kF+CaAogSA+bcODza9rvuzl9M8dFke2pjAPw0mp1WaCtgLzl0pATzteHPAbwWwJQGQPrZC+zTeqP/lyBot1do6ZvfdgTVqnQAOywJ8E0BBAsAc2/7iRlj5QMAuiwU+2P1nBrB/cfgmgJUEUJ8C6L4wAZxta7n+FafAgYGA87XDh7r/MhXwqFDJJyGAFVOBn2uOAXxhAnhYAqA4EPD2sUPm8OfR7j8juZlUwF5wLr4a8LgYwOmbADbI5b/G9K1AQPeRbvMN9+PvQ/bNpAIqVABVXwtwnRhA/kswK491cq//5o7mfqBWAogSAN1fJQAMSzTbAvuPshg3Zc/sCHwA77SSCshRbwLfW4C3T1Onj1sI4J/6FMCo69Y5BHXumdS/UxDrVHt1wCfq5/Sqzf7/cG06rvtDAD3wD3KDuhZ7+xjVfH7rYkrm//ghnkffifoEGEBtDCDbW3YAwzeycKukdZpC/8YFQfadCVimACyGM/jwtqvQ3StQnQKIZ+24Du4fZY759viQQMDw9h9719blpq6DN20z7Wonr3nQ66F72Yvb//93J/gqG8MIBssme0hLMkAS20ifPl3spC3YCUGN7VRA2SUPDrsAQJPZVWoApPUAmgusCDQl6A3EahGeADyASw6wNtx1BQBDegdnu7RNnxA2yBYIGB4hp8V37DSnwwZNYvHoKgMASDPTUIDTig0JPyEh4fMh8rLgt1IxgB87AABi3YdouCA9Romhg9S/2hhAB0uAm/t8nizPUwMgYWXgUxU5H6BNoldwIkXv5EJUoLpUwIdmHsKTodAuNWH5WVD3ikA7FwWd/kWOcOD8Y18PHmkvKXCe4BF5vKE3VlkCADfb9uJUSR6DQQyH79RAwPxz5UE/8B07laB3YQDAflNVqYBorOGRFtWwB1j9Ifk2DBjqyKEgYIXrAfRLaw0hA0hQ/jhzENiDpPrXxQAUl4U4XHb2Sv46EABLK/J0IE8MBIwQBTMRAzg74jhGnrD+69+pJgCIpDIh2sHZ6HV8OSx9AaCXi5f8XYAb7ZeB+lWNXTCAJGousTE98DXFAPqotaaZp7vmmmgszcgTAeC0QMAQsNbwjp1vmoeA/jkMqCgVsKbNa0oeM4D0pUsxpwHA95JzAWgAsOazQxIvF37TY5noSgNvPQBg58sBNmOQRYiH2GIiTnBKIMC4/2G0wdyGv8P5HWr6IBwE9aUCHluSGIvyBwwg9dLsxG4G8JN9VWAaAIhNnFw36CkKtfIGvaspARg6g6qZeRzZMc0AlB8wfZ6fd9Mj5e1mcP+X4RNc6/B4VIMAS0lc4wJhvITIANxuJwD84v9tQFIQsBm2edK2g7BOtOplAHPFDDziWhCRa6JOJ1fTUX8/raIdPJLp2Bzuv5MYuWQA+eqbzogBbEvmxzGAlDUjzoUu/OvAFJs2rBTvhU8rZ2kPqCkGsPDLNaDnS2U1UzL8rEfmcyR9+BtXG/oxzxeZ7+L+aHmoJRWwKaL7xHjrMJB+8OFb0bkAv6kxpP2PIxdXkwBI3dGcDLbfGJxPBAKUO74mozmjcmPyJteSCtgU0UPCnvwQWoDld1EGQAKA8dCgHBm3mhIA8R0dsn5pQmNcMw4HArpp4/bk9ciTrLGWVMApOk4Q/nEfABSIAVABAJgeNUjHAMBtL00gYNWcHKwI6DbMWXZ/PM1pMsPoTgaQ+7ETANgYwE9fCPT7oHUikKAjQ1ZHAiD1yO++NtP6PMlDejP8Xae05bpTQyAwu+bvybEEAPCThQHsBYDuPA2vngHoBMDScnGEr/qNCOnuQEDTP1b1HziYeCPTYFYBAnAxgO4IALAygNs7EQBAVaZl3+pIACQ6yyO14+J7bTx5d0VAN20MM09Cvkt05rmT5VMBLLJMTRu96yUBf7gkwM9/eNIAigG8E+/ksZje9VwAzVsX7eIqYVkGAozW7DWdc2lBMfd/NXZk3I//QBBQ95YKADcMADwM4NceBtAAFwWoIQGQ6Cpf5GquCEhTgF0TEYbH6h3jnJc3PJZ9gQpSAVwMgDTSfyIAYFgUFDGAP0TEZPKaKkkAxIl4XgxKVJQYN4AYCJiz/445lHD/V6Iazo6UTgVwMYA7EQDeijGAt+9ExOQJARQGgNF0M7KezPVr49JttrhECwQo99+jRgn3H7lUSwYAUHpWABcDoAJAQQZAAwCZtiYvxgA6CYGpsi5zw96ONAEgBgKM+5+kAII7BB+kAvy/wrMCmBgAaU3Qu5kNXIIB/Hi7fSfj+MvHABqZbhO/rC4CAXviEdjvjj+mQC1+l+7FVBQBeOgsbUGgGQBufD8MFDOAN6pf+vouwOTIdqA4RdhqH7sBrlEPsR0I6NeUH0D0JRJwI6T6UnZWAI8wE4Odt1IMQC8JRFsTTL4+AOgEgNUbR1YLxatGHDNDjZr1eMN6evcfirv/66mAHdpxaQZA6qL+ZTB+BvDLMAASAAwQeHD5/pVNAITqpo1mKX+kk7HGeAu66kGrMsaVTRQj3X2AqK4vw8sDAKWH7mcByjAA4pJAw8u7AGPKSlG9OIZAwAMT6LUo+oCviqC15FT8Kc0BxoIAwGLPSBDHvBzAsUUBR3hxALCmM2LPRatWmx7F8hfMpFm3tCkPoC/aE0xMfF/KpQKYYgAjFQBunJMB4yWBPhHKfRkAqCcBQMVdsbDoFRT/b+FraiuGr0zSTAYAxuUAggUByEsCvTgANGndKT5ztenWg69xSn/jUpDFV+PsilcllwCA/ZMBCzAAEgA0rw0A/fEYTm7FoVYEbDlpNazEtxJF6r8A4HeJGABaEOD9CwAGkTSbdaxe1W8Y9p5yleibivsxvDIAkNryzr0cwJEFAe6vXAcwfqaMiyk/uRYI6D52/4dK+jFVFJ3gEWa5EwB4lgM4Nh1wel0AWIlvyGp+zHLduzcr7W+5/6KaX+VdCbQUCbTyJAFoJoR9MmC0IAANAPqXBYCVBICs6OesNwMB47b7X1M36kHaigoB7VQAtsmAMQO4/bcB4GmXRIUJwMXwpxoptJ0xLwU+WriOcQUBxKL1z6cSqQAWWW7JAMBbCBhOByQCQDpO9gIAUG8CIA4EiOgRKTsAOmoeFfYiAQEFUgH1VAKruUClGIAqBKDNBhphKYE5HnUkAB61aU7KzxeBrQek/NW5/xhuQwTTTR5eEwBI8c0mzgKyMwBaLbB8SQYwQhLYpnt9W2epvvvv9F7EJlXU5v4ng8miXCqAxZjBrkrgH1yFgMcmA3QCQLwcAHSiqvq0D0xFH6p/TP/Ds21fZycCGAPHBZjBiicL2FEBgJsBHCgFvGsJy/5gp9Vi2QhZo+nULrRwNl/tpG2xPfDcSf08VNqHTvr2C4sE7GPOwgBoZQC/uacCxL8OSJsMcJdI+GI5PPGZ1xrJsEvGitaq/7P2BOMlkAkNRrFeDJuTgSK47+aJl3WJjCLsb8JOAGCbCnCoFHACAIZhY08ACOxIK+s5Nvd6tWfSrVRWf36lX89PKkgjdVemevXfx5Mj2GVNBQBkF2VJjCS9c08FWEwGIFcCGWojDG3O8syaAHBfbki0unfDveZNBQJ0c+f2Kp13omfcmUrdf9eFQWoFCQgzr9OSU4TdgwZpf/inAkSlgLR1gQcf3HwNBjCG5t9y0ele+Tb4AAASN6HhoMrsfyoQKOFg0PwsFyCrKIsdYZjv7FMBjpUCjljWgpen/s2aAEAMwDwqTQAsw2jJtNN8Qpaf+09BgET7BWPwJacI7wS0AoWAcSEArRJICs90hNuBOPdvxnCawLTNNEB29/q3bgIzYrPKm72KBzyfpkv0QI++hFAS+EY/pwjbjglyHRBzIWBUCnh7IxUCNNZLFiJAvgAEj/9tP53NBmEos5JYY+3ceiAg9a9y9z9MBei7LpHzzMa/cogw3qlQDKkzRcoAjqwLrEDT3i5kdoQzPtgo7T3vwJNJAKaHRzLEa8b7RTYXwAxIgKje/UcepeuA/8+3BkNgsY+J7Np5YQ0aTZbjJUG5GcCPJwOgFQJMMQOQa1HQvecxeLIF0nwjXK/gMuqjSrNlbP6v4P6HtyBiAEJwTcJYseCfFWlkIalgVqQMICoFJBcCyMVIBDAokVHacR6bAR4GMIIz/AIxgOl+oa2bFm7A1F2o/U3fhuzP/OPBsMiH3yuyyfMBAxBiNwD84mUAKA3wToVswJ2O4DASxh3nrRmQXKXAowvYSpNUVwU1U3MlAFCBABRHu4z7H4ZhfAjIvmRBMV8/LY+I7NLmB9K8h0/+KcUAdhcCjCBU7FZtT43Rz/M/vVNHpD9FPW/25iBbEN1+oWuOvJb+6ECAGdUZwYarNb+TMrz35j5wIICVPmklQA3hMZEG6WTJ7pVFGXcCAF8ZQMwAiABgSY/mACjwoVFPWpCULkLy8XlMqJgAoJlcy1U7bGO6++W20Ujuc38l9x8hQECrjUhwMDGDmqE47hZpO/hYnLVMzZ9GuyM3/hUBDxYCzLdLOqMJBucwBJqBEui1vUSjJXgodefcW/QRhgQAALY3tgsXVCA9NUDdjam7YvNHkNgAG0eAIxUgBATUw4rjTpFWr8DJtruQzmQatxoAYxIgKgUkFgLc3X1yEIDYAIJRPEzuLYG+60vRh/nrWaLPIaqr5g33S26zI/3sxtRcs/lDZFy1xDD8IINRdhEJqyCKNJYgZMTQhSBpcwG/3UoUAsaFANQ8oO7oEi0Bw6Gzq0sG4GEytPueP4n8+g+B4Tf7/qIapABNDldt/L1vF5rD4s9YGfCaj1WcJNLBO0VIb8WuJAB7GUC8JhCxEKA3djukzt57wvAgtHMtnK8V6XyElmwMoBMi9dXTZfV/DgSM1238k8F4PuhJQJu7Sx5uZKjUQBDppdgmBJpIYwqVARwqBBiksfpR/zFQuiGB1l7o/SX0HnS7w0HNHXZyyX/P+FqQF9b/i28qFSCRWBkvIHNMQwTBLJHyWuW6SCfiAgJkGE0g0rL3EmUAB9MA3Yxr4jkKz02gx3zseVTt5gPzOPm/pMm1qJf6HfqcGk/zUAfUq8z2xrUIP9ruSxELIgAYobF3Rv2dmZMJL3/mhRVMK5Xz85pIa5nXyUAnRODerXtBE6rvJVYDOFgI0GkG0II2m63bG5MuzSGpsFMPj7tK+Xp6bw7jz7CvMscApod3QuwXXjUB8DLb2GrK7O+IoLvQxxmA9JbHMFQMCCCRfC9EWl2AxNvIs//I2eDtBQDGMoDFigBvNLiV3vhrjXaIp4fInZjpgMS6bYYF/S0QQQBkl7NGnFxVhwFw3arhSwkLhzGtPbV8UJHFrKkAp/Ied7QOWyCQEWENRVpd7V8JrfMSX0Hjsk2hJEBYCHAjzgcM0gCOrBn8tsCpRs7zOaNlFlfNEYmYhDug/KqsOafw683t779UsHgqwJtSZWSUOrU5gVl4yYTWW3InIS2OVqlLxLxDGCUdF2iF92J14+c/aAzmW4nVABI/DUBMAwit1w4V7QDoIVKY6aAV3VD9QtiTmkiYoID6DP2B6hOyhptsvEkaQBL5nc2vjZYKENL71tbTzhia8TLpmL/5au+JWHpqbRcOY6NWhlIOxuq1x5IAfAzgnwN5wEGGvTe3TPhQgAYFN3atf7LAoF6jUdS46dEib7BJGDB/PlkO8KX/FSBAxCBtYikfAhiVF0LiFJXx4XWtvzdx0siskl3p/ANHELQ9Ed6kzQeHYwDAzAD2/UT4bENlO0dDpTRhf/WQZnue0iNkB621vMhdZ9wmMX+CfZf/iFbKfFbGMRTdB/PtXwmAOlIBrZMgId32v2zobCP8RiC06OoD9oQXbIGl1wm+dCLscmDuM5+vaIL1p1QZQPjTAMQ8YGMov1Zo6QYoCOSbwYJA+f1A2RH2oUH8EdmCgGohWvWF0vZB3fivBEAlqYBlUmi+QdlSAerTnQWzAqmjAa0TWsA2zsmqEXzUXAsj2jJqLKBhV6kkQFwIcCOmATTqgYNor+Z4czbdvYAWIniVmkTIYGRlNgbwf/aubbttXIdO2knPTJt57ItfibUcLCfO///diSUC2CDpBJLlSnaoJrHuUilcNvYm5ZdR95HMn2/jVkcA3KMUUFnRkGKvxdCOrH5lt87Dd86g2RCA5SsHARDyRg255AD/NAKYKgPkxyL0aYkASPRQdOsKAajEyqxnkcOvhABe0xikLawP1+wCwNakAFdWvlvHtaSA0cud4YJnIw5AO9ZwAEHKcpxDD3ER4McaIkDxYuAfwfGAr2OY1IZgzwEUAdNKJWsnhxh2Y2PCKa6kAhyVmXAI4K273YamN6oAwPWKNGQa0G4VCOQ6kaviNbPWTg9ByQAAIABJREFUjv7C2JBzXChwPeSxgP+uiQCmjAY4ctEOUAf4SAqJH2esQpAiC7LykKOvQjElLNLs1rsAsDEpgJ0J7a5I06qMT9YhBEvVzHNDhiPkAArw631i+IzFrad1xgI2viE4KgMYXU/Kgo4MqixT/iHb1x9ku8ieO7JVVxIAVKeA++kCwNakgPxsnHVdp6OGWaiZoZqyXJvAWMB8/Uoyo0Z/2LwIUHxD8Pdou2ER1IL/ZYyUGauU2GMrU1OGpasIAM9l7dYFgE1KAYVd8PUigLtC24LLXRQI1GQ33LGsid3GaiJAKQM8BkcDvAB5r5GwpQMwOXJVjyFGh3ez1+oH8PKsd4G32gWALUsBaBfX4GrZGwMDW5X7ueScb10CyDxe9yXWapYYfCPFbvlhRRGgfC1gkAWk9/8sQcAbOLyc1aUlkNfnDPAJDrAD/WmuIwO+JqtATreab6sLAJuUAhJycfLgriAFsPZp20kNSrkUhSvn2nRHimNHKxqPJCgCoCvb8BG741oE+KNdgVEGCI4GOI7tdGqC8fP0M87ASgmOg7tJHM2tTTlk5llZm+eWDwBHx+/KvXcBYLNSgLjk6HU54y5ermnqHu0ug9R8WVYjzR1eLdUzQRLBTrByaO4SGLvhFUcCzJQBHk7doV3j+WBwWjdgAiVYx+Cp28a9ibTFcpzQpWsIAPRMIu9KCO8CwEalgMSZUhbr4FO38bQ0YfuczZdHPx8MUHx7TE6Q2DTljeae53cEelY27nxotB/g01ojARoyQJAFTDSipfG/mePhEAGJ8h9oQUny1qI5rLM0FEkoHZeYrmFPcD/D0vL21KflpADNKoM9PY8GtvSoAMZsJL6fTTtLWsxmv5rqGAxf/ICc3Q/ukKZygCuIAMVLgYKdgd+LNKiaFEEZHpInJ/WRNQ1LC+/UFS1a6NLCiHK4h2e9v5xWuv9vOAIIVFQrG0xpYSkgJ62M7rPzo42QIAM0drR7RShyl5rPwgxTxQH+cQSAowGiLODOMnduNYiN2hg7n93HhmRrqJ3uY8cPO15BALDnkx91FwA2LQUIgtxBco7y6nEEoJnIm6w5stgpG4Y1OMsSNfLtuYzIaQoH+PdKIkApA/wMxmdSyC4lE0u41CofkAGs2sHzBPjP2oynpaVNify1uQsAtyAFQBGgyHzRsK3AlTXKWL7K9rkzACs+b3BW9hO6Qu94sLEYxPz5faXXATVfCvQUbTkolOTp7JQZsHSvTWrBkm1bRluEBd/QdEsKAPBYtKZk6gLA5qUAMCzT4BeVAsxnWWtWx1JpglKjZaCsFbfuoCDQ7VHG4mlVEaB8KdCv8MNRWaRkAnbEBNQ+K5RiAEoMjchsR+edlywmBwoJId7pev0VYNuXAt60rLZs8j6zIHXjkr8r7RlYKcX4uTuLhSTzeiuHWU09mGN+rfOdAOdIgCCsVhmPHAdaTqYL6EZ2VDwuwhELCgDNG+wE4C0QgQmxvzy75wW/AZXbZqvFKVy+YcC2yNTYP/qaice1vhOgLQPEWMAjQWkG9CfbInCiuBdjI0HhD+wcLYcAHt7Y3Y1cu/v/TUSAHXnbGJ/hcuitNAt23s5QMbIzUC72BnoZgkGsWPlWfTHwWghg6Av4PcoCsvdYnGMXLXEvcnvuqrCpDbwYk2RnpS4A3KIUYIYinvW8nBTAZcL3WcybJqoDBZBlqpJYuNvSz5VFgKIv4I8gC/i2c95cUmyfIwD0SSoJwqUQwGtq3mP3/5uJAFWSOC2lpR5g6eceoILJ7KhCAPUBhS0HKYBV+wHO7wv4QmcQAJfe3FjhwELziOUEgPomuBOANyQFFDk6fy4kBRQ9Q+osBtigNt46meGqKE5ZuR/g3L6Ax/SBj3/SVlWUrTctJgBQfRPd/29OCqiLyWVIHDpnnLtGTuNAmsNVsSC1bj/A+X0BDx8GzEsRwCIBIJPI5cm7AHB7UoCxAGI5y4zj+NA2PwMFLSNHBBC7w2+rUwDz+gJmbHataRkBoHXmPgLo1iJA00CWqeOuacJBCuDnyiJA1Rcw2hXo5ZMeAKsHgJf2TfVXgN3adGz5f1rkXQ6TbJInWXyUAvi1dj/Asi/gY7Ar0DGdaxWmj/oD2Xxz5WIqwGtKdWcNotdOANyeFNDoc8O8hBRQWyLXNnPGTstDmHzHtmCm+b5uP8AGCfA9TAJQsyGalOmHcZPr2aXSBhen7yMAblYK4MpqjksEgIYh8gREy+fQwQQKYL33AV7yXsDxpSBhaMStBW7vsQAJeDhTl/X8f5tSQNuqDosFAP7Ywau//GkREHwZyKrvA2z0Bfz7x2O0K9ArTWUB+PPYuRAHcEiNS3N/BdBtSwGV5138PBuezNOZLS6RL8WHLT9tgQIo3gsY7Ap0pPxUEr//O33oUisgwi5yxLBymGdZOcymS/sBPJQSxXCxLgDcgRSQ8u+4cCmis/OJ9SUzUDFRJtxU7Jkt2+4uzaUA/l2LApj7HcEPxf9+dGZpiOzb+ku4QfYvXFTm3rcsUDPKsx0uyKezdgHghqUAsaPhSQ7+d3rR+9ulAYDyOYtUBSaKG5M3Wlnmysop+D7Qh9WHAra+I3hiT4Axubs24SYEMGzgIq2FWRpBwqUI4FVuyK43AZT1actSAEo7J6e77KGOp0sAUQ3HUrmR3DbORqtBwFl5Ckamb6v3A6xJgPBbgV7NkTNy14BIyZAS4CVc4DKaSrBNl3IAxzLsLKcb92m96QWLRcu3F8G6bJLUSusFBOBUbRvAiGyTW8oGFwtMD9ugAMoBgcGuQMeE7YXZnRsQYHxqZRtrRPAcwSUB4EBQ1tlVuv/fvBTQ5JguKuwo+bIeC3tZSoRUQMF5GQIgf3e3RAGUAwKj3xD4H6TXhOl2CIcGlTBuJu/8Z8jCSxDAYcRuGrvzLb51AvDmI0Cq8sZp8ZIn6/J4CwAYBHCW7omrMnyksAj4sIGhgM2eALEI8KZPQT7yjM/quj35BVsL//LKi/JEyj9JA07qAsA9SAH5qcpHrtMvkALgNPqPExgmLLpL266Nw95/booCqGWAKAnA1nzGu4H3mxtCjEwQwLliCvKpLhEAzO8toHQB4C6kADIbAqZufnUnIN94PflwxirGTKWxonLoOO0gN7kVCmBmT4CD4TBNupyK9kRvB8eUJnbxk/VUF3DFeCsSbboAcC9SQHIGlJ/07MdrycnO5tYQ5jWw7uo2nOSdokPOawrgf39tgASI9gR4rwHIqoAqdiaPn7QlfUzALhQWIy72fwvg7/i/fwfI3UgBDmRerPDW4JWc9xflK6cKH6AuaMgziEkqCmA9BOB7AvwIDgd4SeSgkz6SRAXipyIcsMMCZfSYiwAOGsMdDOkjAO5ICgBvhMwzk+LB/JV8QWs2zdpNxXFbLWJLfoIBaSsUwGwS4JCwkaTDra+gWgESqUMsECyuziSJwP+ttusCwD0RgW/m+4DSZ5K8CPHJ7NdKUYCzhQm7TsGlzQcpp6cNvA3oIhLgAfN40Xplc9XNR0YDlEeledmBHOCQue7/dxUBsMO9Bfx5KC9Vfs4+lQuvTwUp4LQCGNmS/wQvvxkKYHZPgJcEQkgaBTeSP3Ra0fyEXfAffMwWAOwccs0uANydFDBaW0J7micFjCbJtUmipbpN44aW6cIOUQrgcTsUwMwXAx73nsYvNFONkmd003qtLM/hh/buHHLiLgDcnRRQaUjDvzlMr3dvdubT7BdQ91/h+lAO5pyfm6EALiABwN8oFc9EAQEVgQC2+HCqx88wi30LVOy7AHCPUkALPv5+nR0A6g5pBVZtowG0cLT94LcCb6gXACCAfya9GPC/t8Ljy5ZibFKLplXMlPaT1XMJwDKU9BEA9zi9NZHkDLLnrPGy2CUV+j+fs3A4PGp0G6IAqlcDR98L9lpEQzaXpsKnC66gKL+K2DHd/xvQI/G+C4B3KgVUGXjWC1/Op6hmvY/2LLy/t/MpVee3TVEAM98JcCiQvHq4LXFBrhjzb3s4FmFGAHh4qxBcHwFwzxFA7Qd76E2XAjAPjecrOQGnOLpyV3ZWHKBrgla3JQqgfidAcEjwOxrLjKw8j3HWwkCShpEtNpGtIFh3+p2FCfVCcrYuANytFJCSPHAznOnjgtxZRDvyNlQYLGxmmVHbHsNAtAL4tS0AULwTINob+DVHYW0KTib5ycf4m4ODYwI0V0uszYdNFgBSAoiWI3UXAO5ZCkiGv9WYpj7yypdFy3anNtSarVgyHFSyEByC91CLgKvLgO47QoMkwAGbzRoFgyNb6ncIANZrvBXgMEsA0KuN99H9/64jAKcKAaSpowLIfJdTmcrqidFuCWwtYSEQrAC28Y0A53sCPAUhwB6RPktjetd3xJ/metkOqr2eaRIc3KtWYw+njwC482kYFQCDc8QVJ5V9aDZYpjpywX6NFsQQwJZ9Tn/fJoiA26EAPAnw4/QFQdOwWAZCWkYxZHir9V3E5iLzJ9MPpgSAw15jNtZo3f/vPwLUCCCl/RTi18zG1GgE9DUHUOJM9zFFA9jSSMDmcIBwDUCphPjq29A9OKMrjNipElGMYZkqAOiPCkNdAPgKUgBqABlATon8yWp4dHETBhAHKM4F9MqeGEhxw/MVwAYQQAUBgkLgf3sfCjkFJ/po3ST/b0z7LgB8DSmgMp9J44JaJX7EaOn81mjXk+prwf/6a1MQ4PExXANQq01aKykcGOIk4MvvlFABzFMnAL9YBEDbinf/tsPYs9AfJCduxQuabHnft6UB1D0Bwl8QdGiw+Jx8XcC4QB5puR/ZbYoAkAoA0kcAfZnppSLxTixAfFRA6fHcqPeptuiEV2RvesEK4OFxcxQAdAceSYCJNQA3VD6/JoYAhmPiAkCrn1EfAfBVpre9My75c4wHgGaC53ReBWxvlXX74JV/bkwDKHsCTPh+kEEHOO/l7aDA7XbkaRzAYd+6ZhcAvpIU0NTsfwfz8Nn8Xwj+bXtuGHIYe/7a0MuAzuoAQT86FG1UQgFfA7S3uBohqgI8/Abvh8O7APCFpIC961Mm4SD4GjgnSbsTccCiW8lrWgXwY0MUgCGAfyaOCDyNB2i5OZ9N8vwp5RqL/iXZOOkZ9Ok+IkArO0eH5H6U/+t1XFmuP3jC8PNvW6QAqhGB/2fvapoUx2Fo0wy9s9PNwVvlKu4+6EBD/v+/W0j8IdlykBO2NwkS6ZA4Dsw4svT0ZJuvhvkATxZxAqAUJQBfSy68Bn0LDcBzpSUCWBoFUI4EOEwwwj9nAFACwE0IwlQ2bQFkqYCn660Ufe6XCQAmDgb0McDPGoAr2/81AfCKRCCvQ9efNwDTI4BlmIAMAkhXBiyHZP33BuBc6f+aAFALIE8F/E8RwO5rgcMAWQjQRMX+pAE4888clAB8SSKwMh5899MGQOp+9gvMAbCDAf+3GGDiF2r/f02pQNCHePC5SgtrzwHQwYB9HkD6AOzPGoAOpkZ9Ktu0ADCpRz5Za6X6F5YCWBoAmL4ogI/CoN+cfxjokDyV+iWpAfAJgPxTNAHw6qkAyBQNLo8NADiJQqY6qWp+g5X2lv1iAcDkPMCl6PcQmy29soaD4mLcHpt79Nz8/ZoAeGkiEIg2gMgpJy2KChk3pJfgSEVsAmLV2yZ1QEvNAQQEMCUPcEZWMjOaji+CySGAJgBUBKmAoZuOpwIe6GoNB1RukDJQ5WJgb4uFAA0xADzE+FDDTuli2B4lACCPN8TzP1Q2mwpgYoAHeoH9PdVC+iFZcRbn+ncxAr1HAIdfSwQAM/IAl5wEAAzzi+ZzGFtBaRIaLL2/X/v/y1sAYPtwJycBgXNIXDHt/j74mB4BvC0MAeBFAaQxwA5Yj8/zfw8hgBtPAED5nDUBoHIFVtm6cQ6g6NICCOBKCCAfBMDkAP56WyoEEM8JPn7npB5UCvhLNAKAkQRAUff+0gSASp8dYpRtRDlKTSo4QHCj5fHNSBciW3QOgPmFIGkMcD1R+E9Z/8zS5l482+oI4ApM8ACaAFBBqQDIFKwOD+sqyCosjXCzMikGXXAOgM0DSNcF8tickCpMV6WGs7ZBPczjnoD2fxWvhKWy3f6qI8ThsQXgNbUsEOvg56JzANPXBTpeqOMHtrEyK1o1u5X+b9kP7ZQAVEmpAOyW/XHNAggAANv5mVJpELpbNgAo8wB76dqgO6g0Ts10jgQBUEV43Idq/1dBPiLvqffjyiARJ0QAOdwvC63UT/45LJwCyOcDfMhjAOtkcGmsIccQQJeTL8OmCQAVhiWKejJYgEoIAFNMAFMm/i2Cz0XnAGblAc43O+gb3b8Pmz8r9uCqL6gkACDdZzUBoFJRE6Igg67xajKiglXVjIcWFRvpYqCLzwEweQBpDHDsSAONpANpe5YbGwJcy5TifVMCUKVAopxzufIcADzcmLP4BeGomx4BLDENiMcCyYcDxzRsaSnLZstrZVaBSwDkAACayFeV17EAvHs5swig6uA5Va5Vkv8W0T5fC2iJCGDqlMCdpQ1U9mvGiubVKyHA2RaV+v6vBKBKqYe87p35ECDXqkzF2Dr5LVIA8L58AMD8PoB0OPA9EzjSr3MDWjOrwEwG2nXAVtX+r3J87C2GsxKnO0ar+C5eOjJ8mxgAfB1WQAFkeYBbDCCmASsRkqs0M2N7/VuJ6lizogkAFTYVYFm+qRtBAA74SJVnBTI4K/VDuzICWKIJKH4fQE4DsuFTtflqbGBhAIYEQPHhmgBQqdNRzHZhSEDHE1Nj+DQ3E2IiKlGAv5cMAAIJEJcGFA8FuBqI4vwfav9YMjAnDoBURzWYzE68N1b6VkVXqcj3ifT8oI+ZBcgUcKjpqxP1dPQgENvDsRyIfhIAsFAKoJwP8CEeCjBkAr1l9H8OtWJ4FKF1sWUlNcoEQHg48cOtJgBUxsAo6b9eH7PlQagCuqSbLhqEqJ2pFur8/YFYEVcxCIDNA8hpQMsigLKHx4di+xexDlkIcLbENIf7NQGgMtbZjMudS5kKSApoHXIy3kFF/SwQANXkGRTggklAPBRAvDqwn5CJLCqCALiLU9yf1yAhwJAASHjCDwPQJcBUHqQCGASQpQKSY8kCAHyGfJcrj6wzYny8jkEAs4YC9JnAHAFkbZeBAoSrbBxDXGC5ggPQBICKNBVANKjLEABjAhy4zAS4CFVzCNAwFv19LQCAGQogpgHPGN7zCIAeuAx0Dc2c/P8FSIQWphdoAkDlcSqAQQAEsVNddZluWke9WNBTalXkUPTzsBoKoBgKcNhJcU5nY+AEwXBW+j7keQEmCxBIBRSTAWgCUEUIRzH4DEDzkmcBXMlZFQgg4/5ToTgXFVcCWPYgAG5K4KFhNOA5NFAPmaINtvWDkEzBwgVy6IP1NwBUZIzUXc1yHTpdkwFwwOirLYoYRfZHJzEA+FrLIAB+NKA8/5JI1XoilUb0fVuTyiP9nx3TqaJS46Qh10WIk3exA0pa68g4AI9hLanhj257eTJ6T9YCWzQFkA0FaJsUfCVtSuzr/Tw1o8WNShsYkgUHIJfvJlkTACryVIB1hReJCBIg10+KW/nrPJp4ZIve18QAMHkAMQ0YIIAt7ABtPZcMb9nevv9zj0KXAFJpSAWYIXLPOm+HDEAJWJ0tXqUWDuVyAPC5nhxAMRSgaX3wDALYqiVF57wB6AnA4lEYJQBVGohA3sVcMgQwUazYGb2XFODbOiDA79bRgLvTiDXNr1Sq0iwO8+hUVKSpAC7GHNSoKB/1+yG1ha4b8T+jnwd0WA0AmDMa8D4CQ/qCCtjqPyVr7OFMCUCVRiKQDerN3XfXFTDh1UQQlgyBfDhKNg1gBRRAyQKIacA7BBgaqqfs3JCJ6Y8Blw5n6DRtx+P5FE/wVe3/Ks0WwBb6eDu8pwIgXQka6eygsC7oZtRgf3O82uSNOADw19vyIUAaDXhogACXrL2p6Uxt69IDodyA9QkASG093GQ0AaDSngpIjsgFf9T7EgCsfqV6+vw0uYZvkIej+7XlAMhQgNYJATtTNBU9o6YBufjQ1MfO2mSeIUIF7f8qU1IBgBQxKlR39EfEq6c3/Fe6tPufGABw0wDWQALSoQDyTOAFtSFBALkpRg8AD74yMQEY4Vl/kxKAKpMsQIoykY//55uWEEQKlhYULq1JHT/XCADKCQFyCGBTt00BfGxbEvdjnJ+Cscgb3E6iEdH+rzIxFYDSzskCGItLiMNHXR77KxK3NgCA/eoYAHZhoK+GBkcO3FEEQMkYyDAXMCHXsDdKAKpMJwIzCg/8pDXIejcDU1EQS4hsuT/6WicAKNYGFC8PPECA1OXzOCpHXDkd4FKCIJkJ7f8q81IBKZiMuJR4fZsnBTFaLYNZeW84rGMtwEcTAg4f4kzgPRFAXtCTetamd//mLKqGr+UvTQCozEoFgPUOPOmkLwra5y+jP1dRxvtLDgCY3wN7WxUEiDRgAwQwQKKqhKVotGXLlAACBWDTp2j/V5ltASBHmZZqIwWeySg4pIphL+8L+3VNA3jKnMCBdgmGFfVmi87vLQ7YqFqCBOKTue10BoDKXCLQYXcPQRGJdjoMRgdjEUECPrPuNQDAjDmBO4vtKhkQFLF/av48zPJWOAzEsjoDQOUJqQBL0ebQowkKIAyg5wBsshzh7HZNzkh9rnEQwOw5gT0ESIG+C6YT+XVIlpZDANEK3176GwAq86XLwCh2OwlzehcVfI8bAlWUCugvyz3SCucBjswJbIAAJkX9yc6iAdeJGLAM1QrJ7moCQOVZqQDq5At4apM63sef2EF3gw2AlBgwLwEAmOWBWyDA4PAtCvutNwW1A0buTa+/AaLyHCKwA6xsMQAgJWjn4i4SWEPlBkrqvcwBvq0MAUwcD+wHX0BEAIkScDg2iEEWHm3hYpbgZm21/6s8KxVgM9IfQ4LITMfoNZmASBr2FRsg6ed+xQCAgwDy//oFWVJIzRgMb4QEDsEAKBHASQlAlWcFAVeXlAxs6uOACtLOYRjgkHaKVXK3WzkAKOcEfsktgCddbN7rHW3WyAK6mDR0NvIFOgNI5ZmpAJNofaR+iP5zSEtJEJDQQwMA8KOAP1YKAFIeIEKAD/l//moR7U/aNHX7aHhDiqA/6KKRNpoAUHl6KmBQtc7m+hiu5d0fyEUjXgmQAIC/VwkAGAjQ0thpbKWzxJhCMg4otgp1zl0wGpoAUHlyKuDkFa47e50jgUAYf5IjgDhwpSkp/XVYNQPAjgY8tECAMKoPm9E0OBA1b4YVkhk2VkVlpgSNMtYYA2WeiSIAKLIABAGc5OvS7/ZrnQc4BgH+NECAk+wBuQcleJ6Q7nTXuGMNAjzKQPMVmgDAn9UDgJkQ4GwcRf9jHd1lR0ASsCoq0/0/oMmoGcGPvD2OBxwDIPojeVZ6tw0AUK4M1AABLqQJHdo4vmUoN6VJUEemu6e5/wfYM7uINbeX79cCAHMhgDVuYvM7mxGGKioT3T/ZHI7wSe+O3okqLYGm/8iHpfkUwOoBwCwW4GIYSIX9/P3AUSTgSG3gH6Nuukk2ng0UOCPHe6jLBADwKy0EtFYScDIE2HUM4eqKJq/hBPdwsoCKiogCSGQSJaZKzeP8f7jltJuTAlgrAqCLA06AADiwJxgg+f/C3jqKAIrFxMDqqZ6On5YMMmDwmasadk6GuX6Ta+MYgAP5ObAVk4CTIcCxs3w23xQHtJYOAFD5T8RUDwxVO6Zi95oAAEGAuwU4tKwNdryeVOdUNiLXRgbg8CswAOulALj1gdshgIrK6uXUMAZoWwBgFguwUwigsglpWZnmKwAAzACsmQScwQJcVHVUtgAALtMAwO8NAICMBWibFHjslNBT2QAA2DUDgI9tAIC5EOCqyqOyfgDQwAC+b4wB4FiAzxYIoDSAyuoBwLERAHx8/NoKAOAgwF6+QPDxXBkHYIrcKyuG/hmuRE9f51T8N6ZZrP4Zy3+SsebUwAC+H7bGAHAsQAsEuJzubdgvyBAOUl8edukCesWapC53NlKkVzd4VfTud4+UyhKlrHziZQoA+LUVAMBAgI8WCLDrYmNiu2uizU1v9KHjOvi9OBsp0qsbvPr4ve40uI83xUYutYwBJADg780AgHkQ4HoyvjF5606fDDEMigD06hQEwHfux9/ElzUwgPjHgH5vBQBwEKDhZ4J8KtCM21zOWBvBXTUTboS3673ru1esGAKlYovIWcsYwM0CgHJdgH3LaqwnM/KMZM/Omnk3z6uo37uk75UrwsSPI1dPLYtT77kfA9oGCZiPBfjTwgNO6P9WZL1/RKllmEW/9//93sm3jt/V9OtUfzYLAOZBgGN3MgMFe5e4x5spjsdqFJfs6GZEteofZ/R7F/G9hv+6ql7Vq+PC8X9ZSwDAzQLaDgk4BwKcY4PGXAxtcFLCXS4LyQ2jemYltSofN3qrfu9Pfm9xHX8f+9316nVdo3WahgBgAPB7awCg/LHglgHBx0vu1v9l78qWE9lhaAiTTGYmXSVcdQs9pfJOAf//dzfs1mrL3VkAOxBou215lY5kuZEi/hJTP4XoBGpmEeHiOt1voCtyaMXw8gq3FxsSUQCUJ4HelhHwshX4HD0TNNty1sqZ/6jl/587wxoK7XR/Hl2RQ4UJpiwvRcqGfLzTbKQT8MPDDUOAyFbgJgkEwL+ag1ErSioYerC4cmU63S+jqy3QogLi6BtUAdAJbkZuAd6YEXDEmaDdToDS3xnT/m8x5lWYSF8oETvdKelaOqMBERxtPmjX3KdFFICLD9DFCfjhtoKEAAGAtAIfAYwRGuVpOIFkMgVFp/updFUJry/khQNVWjhQyAVAOwV0UyyAWgH2zwedRzpos+ihh2sKaTNiC/AGAQCFANHHAx53Anro4VrCetboA3STAEDZCAhuBc6wz6kerifAaoQF8CYBwAUCvOwhwIcSELID7nYCeujhSkJEATj9FtAtA4ATBGjfChy2fVb1cC3yP+IDfMOnAHUIcNkKDNnYX637AAAgAElEQVQBZ299YvVwHWE7C1sAb+anAEIQIGQH7DsBPVwJAAgpAH/ndwIAlGcDheyAw7obAnu4ih2AYcQhgFsFADkEeDlDgJAdcLYzA2D2zv5dvn7RGxff8r4vslOQ1iNY1CVMUGOYhX0A7wQAcAgQtQOu0nFGYOHfF3x+IakfQPqKW2tEikvEqabQahi5BXizLEA5EhCzA64xFwrnj2yuLL7q8wtJ/QDSV9paMjH0i4whTEMu9BSgYZgrTwJ/eLhpCDDCDjhsk7Pmu0zsrbWKYC8WcZhD05AL7QAYPoC3bAQ8QoCXRiUAvUUvGP1k1+o8Ks22T7v+bJLf2NoK0oEiTRYgGcIULdgbAMYrAA8P9wMBnoJ2wGGdSszd5/WN6eWkTyNN5ujXkPzG1oaS2klWxYWL3/2LKQD/7gsAyFOBDUrAlyz4+OvTeZEmtm63tZO8Jr67Ij3mAihcAF5uXv6P9gccZtuEO4Mt5v/zF/nKUvJ0LaeV36JF71l8Kmklu3ZnRZF1JBfl1uLXd3SJJL10RkTmrB8/I/3jM2YAOLgAPPEdgJs3Ap6VgOOxwJgSsMLzlg2e/uWvy6DQRJpB5hQFZt8tWvSezyUtsrulekX66Wo720lP1NGLQqks48IZKKMy1eNnkkd828QUgPlx/d+FC4ACAU5mgMegGYBw9wVqo6pPpQX6Ly2CEtDI6Snysom0kDlOs0okK9IXxXa2kR7f0T5JmbHcozI+2FkiJmYAuCsXAPdIQEwJGLaUG1vTC+XIerJNLSvAQqyymknrMg5VfaNA0khXSTpgRwXQhaIn62iTZJnRO0R1eV/dWSRTihkAjoeA7sUH0HUGeI0pAW+aQNARQFkieYt4gXVy0JJQLTKxlMNHAP7iaSRZhwB0SpN1tEFCY08u0WpgFO6sFJNjr08XBeBODADySECTM8CwqZqV/qh7CyqycE0JVRDoQf7hSuIiLVcwLiq6oro26Cnxozo60AFVRG2Nv2ocZDmxM4DD43EH4Pl+XABMZ4Dn2I8F7s4FViymAALA8RxAVUDcYjR8byLQsEa9KAs/lWTlwo9RMkqv62hf8pYtwVgmZymQC8TK4f54rZsUgLsDANIZ4NfODhhTAmbbL0MAYQCwKIhbYwbWofY6htTIxBoUl+pa13R00yhUKOhVBttFpCkK90zbJgXgnnwAHWeAsBKwesceevhBIa2aFIB7BADGTsAQ9QbooYdrXf/D/e4AmM4Ar0PUG6CHHn5KiBkAhtc5PQPwck/yX/oD7jHAPKYE7LwBeujhR4TgEYDMBejXn5e7BACaM0BQCZi99YnXw88IQQPgMD8BgD83+VvArc4Ar90M0MM1hvfN0HcAxkGAljMBwxr63Ovh+gwAj09z7QzA7/tb/vRYYPhMwN4fqIcevnkDILj+1TMAdwgAxE5AXAmYbTsG6OHaDAD5GYD7BQAUAvw67gU+B5WA1RZT/+t/3/m3DHoA/O07AJQHnH4w+PnwU0ExdrrabQWk/u7vb3uvplAA7pIFHJY/cweKPR1oZwZIuOfEP/6zlFa659Y/a/rI6zeWPmo86j+DRwDlDwHdMwBQdwL+DmGPwL1P4HHY80804ms/sfF+7fM8L5U8fG6NrXe0XTgy3xT9TNetk56lJWXN0/T68ahtG49fz1oVgPs2AKhnAg6PCA2aAQ4egWzapNO8aJyWbfkTy0evzwUrNMgUG1HvaLtq26nflybt54tINtJF/2XlZawgZeW444FeG+ri34IegMczQH0HwNsJ+BfkqbOllAg4ElG35UeWLxcX5/oJGnzKI5nt0yJt3q7adur34WT9bKFyt/8SQfq8Tkq9kdFLeedXto3EhzcAdAXgjlnAFA6Bu60AZ+2E3wmb81Pxo0kRWmY2eeW0nvpttKu2ndp9qbmf0UYAeX3N/mOrm2RITGAb49HYtjz3e9AA2F0AvZ2AMwOIOgQOmw8M8BHw8D5+x/PF5aPijWPy4znjqUJIi2KFZbFIblcKHvmW7Yq007iPtjdQT1Ys6a88Kk8n/Zf/F3mzGBQxl8L4ONS1LSssRQ2Aj0/3+xSgMgS4/FrgUxRYbXL9LB2+R/dzD/nItIn/af+8Ei8ySURO/KdUI9hP7IKWF+1n2m6lFN6Po5tt0zEKV4aR3vke9QCcnZ8C2AGAvhPQagYY1sAFaC7oKqZPIsInnl+dMcaySzxBAAA5/yfhABrNynaq2ZxCa/rZ6DBt5Usqagv8r2pbUO8DnYnTiOD6PxkAnn51A4BvBmjYCxy2ZHi1qViCyBmIMKZlWQEwJpi1ypIqRdX5PZESQGAsBtppy2OdZZnlUIu833AUCQYDM+th8lg0b9cZt1Ao8D26AZAZAH51+V/YCQibAWbbd2s1VcrRlFzYHgKchrD3pL7GEAr6QxMGMCFLmY7QyD1AbfayDyX0RecgD2OMLO6GBndGf5QUfSK8/g9nAE9PAfrTAYC7ExA9FzisgBlzVFAnUWGebAmOqtwefizyFHOaJReIhz9N+akDEoOHeqK1XN8KVULF704Wyo08dKNrE8pYSwBGC4meAJAuwB0A2BjgqcEMsHozxYGD61AzOutgtGqVGRJKBZGqcqCUYEHw6CfalXUqV1jM7j3VKo7dmx5QqYQANiiUFw6QoTlWQ/cAmBgCsMeEh80Aq5hdzkJ9aO1BOXe7ljYXR2Nx/lpxNm7FkrT2xTfLbwAA1wLgyuq6O5z+KPCEohHANWHaHJzcsxplAOgugJ9hBhg276mHHr4ibMYZAPYAoLOAghkg7A0wrKccY+zTvHeD3iXv4Q1AegTgTzcAFB4NcDADzIcwBwBUpi/m8zi/QHmfPvmRpvK7UYtHffFgoq5sShWN+qCoUrFOKOmivEbqUFfIimqLkSdh0nPQLGjUTCkBjbxKg8SIO86IyAe44Ie5C+H1fzYAPP/pLoAVEKDxp0L27gDaFFDFGerrFGkUikzK3VJUolIgCo4j1hoqfEPEOXWouq4W66WMWAMbMEYYSyUEcUpNHWO0cBk+ASQ8AH53AFBnBvgb5wBLdKS4M9BYHv8oBhgFoE0MkFoxgF8nNJZf9a1ocFgDA3g97FQDA4v8E7SXXZFhB4DjMwD6DkCDN0DYEDjb+gseaxco2plGac+YyqDhs5R51KGJL6VRByZNyCCZwKhcPjLQhgY8Q3WQeRodAl2bQO0MUFrO4gaAefcAaDEDtBwKGFZLpnxakgcNpdydy5oGz76hrmygI+zQV7aRlY5S3dbrhC7cKSpIaHJFvXjBWOXZvwrmgAqlVhUAw3mK9OL4X/cA6jygwgzwHH9E4O7pAN1O3cNnhbAD4DD8mzMPgA4Aqh0CW/yB9hgAdoMFhzGD0+ABGUoQsSDvAjb+/GYaAXop4JQkqIHMBqx0sMooXZvNSmqdQbtBtlHrX1AjoGaJAenNygChaCexQPRtNd4A0OV/zBvgMc4B3rIpd/6A8+fpKrHYy7W4CUQRSu7LGqG0svkPMj8rPfFswJgVaRBvoHVNGqHF8NjE6wba8ofE+5cUpTUGaDdYtTCq6GTSox1iaqJPtmH9Pz71IwANZoCRHADyZWMiADARAPCbqhBATlVHAFBGAMlCACDYQT0CkPADVOkH1QiAIxOWB3gBoIMusxYQAgAeAgAvD6SqnjklNqz/OfsZoN8dAFQdCsieEhw+GDgMGzFTgUBLKrFZemJR5zz8ZhC56fIHphdA0vJnQjGpwGESBHChS5t1pi7qfF6GPgLQegAoGAKaTaIhkJ1AhwoSrajIptSVsWMaD6L6HMcphS3DDsAXA2DmAtwXf70ZoNUQOGyWVCCCFEtyTlPZw9Z4UlczB/islGzO8xqAYokABhwE4ypIeOdaaykpCATz0hV5UFZ44uqGKEpf36ocBw8xgCbvQcNTwBGFCsd4RzAcRwuLr/+jAfCJegB3FhA1A8Q9Aoe1seJyOK3Bcy6m2EwxlxGopdB8YOYHAT7oXAYp+CW7Uheh3VLN2ibhN0hYIKGyFPDeYmd1EPhKsRlkfcChHO9fUldQEJmhjQkcx7HRMu4AfPQA3CsA/SFAo8wAsyYMAI7tWl2QlkwGQ5Jqkkq1AUBKunQT4AE4OTBkmq5wGNdgsB4gukHibTXtfsAqCFrPSmsij0kqVrBsI6pQ1+yOJmMC3gkge0YjvbutQf7/nesPAe48oNYMMMIQuD8ayKcnk7lCRQUudpLJGEhuuxQg8kiqwKaiT/UXxZYBRNiBIcNBXf7J53f6XiSYHAwUbAUWtzPAFeg4DfTtnKRZCiFZ+yjWCCo4LjGLwzG9Rf6fDYDPRAHoizxqBtgdDJzFMcB6mZuKhMkJ3NRj1Pkzv+sSQ4xKopjsi0JMo0JuNHejuDXrFC0aBZIOoUQJ6S2n1T31xCUlgdqbsr/yfhAlkWjZg4TehRhpiVJXZYRlb7PhNfq8Yf1nBsDzBmBnAXEzQOMzAg/PCldWoxphmqS1Kzk3S8VIkzIvl1m73T1vJ0H1NWDGb8OarhbGOIiENqBwoqQVkN3rD4m2E29cgm6uB3+8WQX1QaJ/y/b1f1IA+jMARmKAhq2AYf1eNZUii0zzJjEn6Ii/aCnqZQlEeLWt7JFIyyujoa5HnAIjw5mK4uHj1bD+zz8C8Nw9ANrNACO3AigGqF5HkRyTrvoyRgiW04QibID0WU30SDf8xeg6WY4f7y3r/5V7AHX033gwcMTDAY4YYNy8snIaSQE1o33VVGZuk8pTg5koSadza0bJFeXhnm3U/+1HAHQWUL38uRmgZStg7w8ANeixZr4ZIMGfVGIShia3HxXGwlCsa9W619qk2RcqVl0YlNXypWrWV1BnmvT/7BmA/QjAZGaANg6wrDeaObKgRQUPztJ6LdktStmU+J+9q+uNG9ehyO12b7C9BQi+zBuh9yLN//93t2OL5OGHJ6lm0nYBp2kyY8sSKYs8hxQ9OXA874Dht93Pz4QVb5OxhdTHYzjIcYMV/P/P+READ04DrG8FfP3+DmJ5Pzt/H8l8p43cWNs/lVl7VKJj2dLed/3PYvoNV3Qw1gHOv4PzLNT/5w2AE/8fVxG45AFucIAHgMWDXMdPdvhQsLvj/MdkCVZ81Tsu/8nM53bg5Q77/+t8BPCxWwFLHxG2cQDad5dkKzMhLZnRIz9+yqwLwd/bz3zi4NsvotJ4vrs9TpbQf0vsDprrARgcxIjihJ8w2CaTcOnV1JpzAHqUs51SUX382bcAGaioK1GtPF02V3aCykm4l+lukSmIZ/bvNfzXjwD6+9wAeNBWAHCAlXKAr98vWzgsHhXPl3arde2khdou7HZNY+2ccLfiOfdffQpICILiqIzmJ2HApFASJ1fMUSdYUWs/DQ0EVdCznVJlHoWbFvm6PEcqQlTLxo5CYituNHB9Y8tYIokCyIr9awHAmQB46FbAXeUA188ICkutYI1aQgF3ySjVMYBpRYaodABwVCtRA06GnqyvDPjhQADwA4KRXwR5jQ+0xIYC7Can4fBalOo8KEyMVJki1HO4IzgcsBFXo0wJRZeDQ7kuwVOJ66IdjW8ra+1/n88NgA/bClgtB7h+TiAVy0xgVghuY04NoKLxphVWnUAyuoST0da9r7CSc+fc0OiWyNCB5fXmD+Qg+iUQMsFrP23VCrvZlEwUiAoDcNaRnZoksbVvnPbkn/NMoi77L/n2tFQA8OkA/08fcEca4L6PCLt6gMEVyLp1k9AjUVQpLKKSycxind0KIle/3gsOAshXkI0nI7BnMymeBYaraQJOOQKQ3C+IvzjzfEmhhnAJMPqgIKF19CDSEJk6SLH0MIXF/pOO1xeXJfz/58T/D08DLHqA10u3ArPFZpTPrLyCOScmXJcchBsFydugOsItdxky4cbi6ICCRzZw5NU6szAGIDXRiPJ2xKdOZSXm0YDzfCQvkXWLZL6ENPl0vol9Z3rgdcn+awHQif8PLgdY9gBPryUb5cs2LGdquHhacimhj7mwYuAI3SFclky2FW8lAma2OeowsTKAEPiWMCQygNhlPi/5WWKQXLJPo1uuJZEJNNTOdaBHrlnF6EBKqJAYQAx5JCdr0yxcnu6w/8/nBsBHlQPMTwdY8wCXUVeKcMg2UZNo7/C12lQkD6mJ7UQFlOIj9hHhtPB1ihZZzFe4c3VNkrKYKXGzQwG7a4mDhKC82DdlGp8NU+Kj+MkrJw9EdU8kOh/KUU843ZH9rAfEaq932f9ZAPCh5QCrBUHXvx2Mq05iSOuRfIYhqkyVSlqZGziM2cNwHNlHeB+MJAX59okZSFy60D5KkN3FoUOIbEOCfBFaqSb6pO6jJ0HyxPjdKOmRNO3AF6rrET5yyQf5Fwm5lYAC+xRcXpcA5unTWQDwoVsBz/gJQUse4OXCQnK9x7LD/f7O/8tW17L9DCftrX7vzfYT1s/8muf0uu2nNrBxvQ/CQayJeGO7QoX33lnCmdyBNdLx9L+OC+pGmecZlw+b6HwEFX/8hjmZOtsRG7CoKd6h90pBHVMc5wnvjd6fNBheH5VV2cL8m9IvS4vrqeP/pwt4LAW4kwM8vVAItB124T1tlWH5ZE5Ai5kIN02F6z9y7HaEJaxb667qeoH3lBUqI+2NYgvvYu/OVcbfYSRsguPOmQIjjocbmZsbcFv3XBB43E7qnSmKBy2aNpeXpwfY/7kB8MHlAF9WOUCEIgTZCQUOZgm1Ar5x4AAIRWYgcFWEVLiwLMVod3g9uTF772UZ40CGeAjuRfatP1bF9SSIM1/ofypjUTIyVAbPZn5BQCMiK6lsyrEb/Wa6eXUa6lkC31u6ugP/v7QPAJ0E4EO2Au7wAN/fhNgGGzJSNCtOi82PEYpaIKTYJ3KIo8YUBIX22fYP1Di2luxCIqMpcUFC+urn4hWZX7w1NT1Kv0GUwiTSAXfqPdc2p0vl/7EA+EwAfPxWwPJjAdeiwAQjBZoSfxZFR5bOMKGX/bvpNkBqHMkC5mLmiPSA1ZQbdZ5CxYisgjqHQl2cEHwJHdsngnKNSzKdcIWps/CYUCiRDtyLPLFd4iLzjhwQUeJSe5u18p9s/yf+f2RJ4F93PRZwLQk6MhouqEjHdp8XaTnwJpa1xuQEJMTk1Roip+98TQbEMAY1rObwWmA9reqYXqPITOhImpQh7GlRcT7kXWNm4gD1s5JFuHT28rpq//ETQM6/AfBrOMCiB/j6eslx4iH0HHmGhphXCE/koolP33Ya+vs9TotvoN4NxkxRB7rtu9q8hWF70zv4Bg69dAGREpcjb+SDc2YvlDMkOdtx6GOMD7wuLqj6ANCJ/x/LAf6+zwO8ULMQDpZFF343XqOBcLnJuA8ssVplsgbKXiY5LjoMiqULTYJ01AgasonKTIiqt6M0T4HapyxDH/S8GdaXfGZKRcS9DKI30i5CyCPo8nKv/Z8FAL/ssYBZFLzsAS43cJ2OUPiwxe2c1PHyfk/PJSHRhO1EDfd4Z/xBx9tiB5nI6ljiuUbisitRPFv1PWbn/Ma8E9AkTD6UDQI6mKFJH+60/24D4DTbh1KA5/IJQcse4LtsX7R9y16oo++I5hH93t/P2hZobS1Cazji7exqPe4jYSv/7X1ZhziwD6GNyEXcXkzNsB/sRtKI8xUOvL2jrCrPttAhBfVRrMF1AsLs2dX7WWvvPdmM+52JWuRJ007CbJFg3/nm/Rh+rKb/7S8AnPn/X1UO8PwIDvDtEmLaSrJzUm1bLQW6Yn0Z1T01u0QoJrrTFvlxFBI24RtcRgVMjpiWyJsFx7t+1CbYUQ4TnPqcRyIXfkyROqcECCdXSqhwHCRQs2+y/RttKYQepm6vQ1bT/z3+P58E4KPSAPmxgLUPCNmeDgSkukIAI1Rd341tsSpyTTMWw0HaWij88H5hOkIOxaw4t/cZ4HF7JQmR4xWzSxo+iCgxERX3ar671OzgqKitdjbHxZ8uMUWVYUSQeYrLJrL3TzBHcL2rLYRzJDrqti0wfYSKapQL5tfeR+7C4tzE3k+hXVJCaQM9u6w9/dPi/3/PAsB/BwfYngywf0MAqiZeTYswiBKNcRXOAOAG7ReOcITEAtNB3rUAJM22TUgtcIUfGRS5iMCZzcjGND4ETgIOoi9ULwbFGVS2V2OOSjg5xKJVD6F/AYh2as9G9KeEOPMaQejJoBS2OuQAAuL7+20m2G4FmWesXbys2v8/n8sDAGcC4JdxgHs+JGzzAB4o/1gV5LHjhH5/NiisaQoWZEhqiz0cMQaA9s+G+z6m4ttgDOidASDGBi4ysXLvShsoOLKPbL/NDAjR2yHU+jdKQQim7ACtKG+2Phh4gSo6x1W1A01Q4S1DMJw4IX/aBEjUR2dqMIi/t2UxN+t9KnthTyrsc7ac/s/8/0wA/LpygOdHcIBvwAEQmdTodKmwcUbEHANHfd5uHrNzJAhiDlMGQohy++WOzwwoKBjcigii2HDqPVmEgMdSGoJMYPqAEWF/Nsb+RSnFJENsLHvvW6dKqbt1nXUWDufAoRIR+MYkT/C88Q4FBjXML9nt2xMmNjKF6Ut5gfHt6338Hz4A4CwA+IWPBdy/F3BNBFiwjMg0k1ZjrtKBtXTkfGF42OsI5UjFnj0UhCkI0Q3MKz5rHH01NM+pD7etCYXA5U1W3V4Ybn2G2TsUY+TsiQRzLU5BdvT3Js4/Al9gxHzfgQDNk6pzUkIcg/kKywKo5/Ugw1mBzThuvmz3aXaNek92xpjwIFmu/sv7/88n/v8LOcCTJwIgPAzLVTjsygW+MCbW63qdGONQDVgslgt3tCcE84TPJooTj0k4Is46nzfHgXsPloEMnSIlcbZhkbMg/JqD8zQbYrwmCriJsFFz+y1smZEQEnAQgmI+3xgGJ9Vz4sH9MSZbgtOEY7Qe/v+w/0+Z/5/4/6/jANeqwAkzw0PG7dVIOSUEP115GiBb4M3ADmbtuqBD2c5rlsFBCnBKxza0Jkh/T5cTIu0ptw3vIXRA6I1BhH0ODbd1n4H8kshNdjIUGLknKpQjOeaHEgsMyYOqlMIflrgzr56FNVTHVpA54QEpEZv5SQ5sO2DmS3TudILXw/+npv7vxP/fxwG+fP16d0WAB6ukUbLisXFeNCgH5T0Q9e267ahtL2LnwO+Ra0AWe/iq5mwpEy9HcUkzGSC2IRAjBfKtDcjXp9QEDoKYPLPzrOQlRNEmEgcEbzIBXFXNvpHjFgLoRimNANUZKSUCOQGbCOciJLZncf2xHv57/u/8CwC/nwPc5wH2RIDAlgAJGryFrSwQ/dYvBW7OGFg79a2BpsfQcHA4QihUuWKUzganYsLSCbWKNINYb3hicNfBe78cpOWwG7rxTmKS9kar7paM9d3/8vz/Gf//ARxg/W6+XCAz1ab/4yIKG/oeb+5mMyDDJCHKhSIg5RRo2tdjoe4XtvL2c5zMMlTEutlO8gHLfXaBWU4cn/x6CrZPEiuE8BLGRGDULlYhA4tBVYP2jD7Rth+A6EcJJw+ikI7EezaFGV4MJbVQ+2UdM76c+P/n5QHu8ADfkz0EQ4PcGg0w9QZowjr2ArbafCChYHMQmraXnBiQGOYKZrswzW2b5hqY+w5+KDAMvo6DTOZJBjujcUcCu+iBE3FhHayMQTuaIxC8kKQEg4A4nVANIFUhnbk0WXgzVRy7fr34f7P/T/j5Hyf+/xkc4NO6B/j2eikox4c0mbEKRkJ0gBUyiumwtA2amqWandA1qh/i7feLMB8BLoKjLwh8BEUiM+7OKegVTlGaoINnM66z4R3jbI3Sw0isJ9i6iNUzAh1DxmGzO5tRdtZ4TzhP7p4jWN/9s8//xA8APfH/t3KA+/5egJUFCmbGYGMcigMK5oUVb/n7+WIAuA6OzTnZbug8UVtBMIdnFIoX4RLEk+Riv9FUykc4p8yDGPMgzYDFd7k2HOWKOuRkBzwzEIStIg4UYcSOS688cgZnPft/tf/6/N+J/7+ZA8woYO1vBs0w4JLgNZhNPJN47//Zu7bm1HkYeHKDBMhMJy+8MX5nAv//3x1ycyRbCbR2Qi4rej6+FtpCml2tVrLTpMNCzOhCvi+MdMYTe0FW0kg/s7CVSJcydSvCUA301RcDfh/RCq30KNhDxYAK6l+qGrLfihGbsRBZ7+2vU+ZxtA75j/TX7PoZ6u/yn1z/C/X/AjWAAwPcn8YkGtOzqqASU4mnLVHvBU9XSkieuuJXhXmS21Aw6nOW6cjrNH0G8nt7AaEKms3pDL1pyxVGNlWFgbvCICS9FlHpguCH+v0F0zQmJ6gGn/x4FKa/YHQfCubEGl2J7hHanlEOw38V/ln+R/2/IA2QHNwYoO4G9IBhOYMWvxY4FUm4P2YBbNe+7TI1u0jvvkO1dz+m4FCkPLYKElr7KsMKsOtv+w0IqkKv6e1eFXkPnUXRKyDFf4v+3BJBPcQVq4WUfNi631fctDL5Uf2REtO8Ldv6g+cg/638j/p/aRogcWGAanXQzbKZbU1qsgLLy1bKYVa3Mt0FDb4+96lCVr7kEUubjOr7m9K5v3+p9huwfHQpTRvfogpRqf9IP1IVYnml1ZDhDGjTXwkFgdGsUJ36UIXlAfDq38H9zwN6/V/U/4vRAGx/gL8vD266AW0BzE8dkqoK2+BusKveu99GapXrY2W47DeqiY36npXrN/qNlhVQiPlYGd/GfkD3vQSFJHkX3ZBkoThM2Trhm1A0KO5RGEeOP4OLB+OrA3NZ2pMhQqSdGC6eDmcHWf6P+n9RGoDtD+CwMKAqA9StOmO6/96a00fd9Gf0bFX6Xt0sNar4c9jTb+wHC99Gf5HiP0qRH6D0Hfl2Zbxi/hz2FtTN+qqyv7c/IPS1VA8oeqzMt9c8ar0ZehyVcAz4M/iLNb6qBiYM6XP716vU1cX9t8Z/kf8XqAEaBghcRQBik+Hi/pHlf7gA4LI0gLAwIHASAUDKJsMt/Zvjv8j/i9QA7kOBtRcIDbBB/Dulfz3+F2P/n3lDLGUAAA34SURBVDVoAKd2YB5ABGwv/TvlBKn9h/y/IBLwOhL0YoDH9QrQbChcZv8I/hv9H/Ptf0EB34e/sDjQqR1IdwlArB79Liv/zd2/+fV/Af5lDQWygQCndmC1OAAiYCPy3y39691/Wfsf+/8v0Qfg7UC3ZkCeQwQg/Rv2vx7/xfV/FqoBUsoAUQARgPTvdg4EkW7/C5f/AQcsUQP4agZU7QB1w23FN0fz37T/YP+vaSCgWRvkLgKAo/Xi3zH952GSsKv/IP+vTQM4NgPqmQAgaZU39/RPpv+x/G9dGsCjFZjfr1egaYU3t8n/2v6LkpHyHxyw8KFAX1Zgu0QQtzXdHBf+VfBnm3/27X/4/2sbCnTbJKQdC4IKWNft6cz6r/J/aPdPUMDKBgKcjYDKDASq1uP9OZt//fRfffFPXP1nrc2AjgEuzgkhL0EBa7k5m3/19E8krf7BBPDKmgHaCnQuA/L7E9haQ/HvbP5V5T/d/C+m03/A/kqbAZE7A2AoYA+tf9r9Z/Y/6v8VaQCxDHA/M/JSAWPLbv17+CPTvf+Mzf+B/XU1A1K2QPgcuDsB9/KqEEsNd++/v/Rnnf+zrLf/QAGrbQZ0C4R9lAHBHQywzLhe7x7Sfz/8Tzf/Qvm/DSPAQz+wtQIQi8P/w8ff9kTK/wNJ/8j/GzECzh5EYrVIELGw7F96+cOeE2PxH9n9A8harxHguQyorQCogAVF6UP9V/I/khb/YPef1WsA72VANRWAWEj2f3qBf34yh/8z2P+bNAK8lAG1FQAVsATr30vxz+Q/X/wHClh9M6A3AjytDtILBBDfTv9+4M+3/mmGf7NK/aP834YRwDcM9jIUhIbAVqz/V/q/MPeflP//UP5v0gg4exIBOQaD1m79V+mfDP/QtX9o/2/ECDj2DKC7ASdPDBCgIfAt698T/PvZ/ySm6R/D/5s0AnwuEdYUUOUj/Jvxn7/sz2Z/Yyv/A0XbMQLMMiDyVQY0KqC6NR+4n/reH/x7989c+4/u/6aMgKPUDfAmArpCoDlFcT/pvcfsz9w/uvM3Wn8bnQhIeRngTwTUFIDUPMO9R/i/0n80sPN3ivS/i25AcspzvyoAMJ3y3mf2z4NTJOd/2P/bNwJ6ERD4O6NyogIg2Ce4vz48/rFCPvtnuf+AzXa7AVOJgDx/PLUXgIzt9f7qberPGP3nG/937j/wvx8RcA69UsD12p+8qrcG8bnb556W/Iykfzr9A/zvwAiYSATk95KdwVc1/oHH3z1+9bbir0//8tI/yP99dANIGTCFCKj3CxjMaHaCGwXE7h+v+n5+4d+n/yQWZn9f+h8MsAcRwJ2AwOs5FjzepzZ9vo9K4P09zp/g1fhvtv21zX+o/10aAYwBIr8ioPYD2YDgiABweXzjCsCz9qe9/ySOheYf8L9XJyC6eM409SbiV/Pjan7q4fHR56/rcfLZ1bv2r3f9t2Z/KP6Bkh2KgCkGA+l8oHGCK+tT5fK4+SWbctb1OHnKwzcj99v+WfA/Yu3frjTAQDvg7P2UazYQHfiwwPzLxwl6lPhkxhELfHzg/V79+/582y/L/Ef6370TMElHsO8J6BN7glDW/6zrceG5pf8/Q36i6v+A9A8RIIuAcIJz71FeER/HBMmfrvs10z/yP0QAo4BLMMH517gBCuh+i/4pkn8eXOjCv0MmXfUXFLDPboAtApIpRIAuBRAjUd4nOfQnkv5jI/0D+xAB6Sx1QDcbgBhK/o9pjnp4ptv+kIv+If1DBAyJgEnqgHrJMDhgQPpPdMSDC6/+M6R/xAciIDpNxABtKQA7YAbpb6j/ZtvPOKUX/QIFoB1gioCJ6wDYAbOh3/L+2eQ/zH/EuzogAAesF/15cI6i0dEfpH+gf3QsyPciQXDAfOjPg1MipP8U2/4hPhEBk1sBu+eASdHfFP/RAPxR/SNkESCogAmtgJYDdtgXeE6Mfrrql1X/GdI/4q0IMOqAqSkgD/Y1H1CWwcQHtL/cp5X+j+j9I34rAqabCthfMVDeJz+WwcWEv73pJ8CPkGjAGgqYkQK2XwxMLvxb+AvL/rT59w/4R7wVAUJLMDrNQAFbJoE5wN9c7sdo/UnuH855xKgIkOqAiRsCxBHYXDVQPoJ5jh2Z+2u2/IP3j3C0AuL5KaASAuV2wH+f66idIr7qp4W/dv8w+4/4Qz+ALhCIwiCfjQTWrwRmBL/Z+asX/RPzD+kf8QsRMDgYNMHOoW/KgSdk/ycHikz9d6t++uzfX/AbZzniV1ZAKlHAnGf2GuuBsrzPe4TqRT8RW/NP1D/J/SAAxB9EgEkB51M+d9xX0h54zpv47exP1vzz2h8nN8LNCiAMML8K6AqCctF5//6Fg0KH/quL/fWTP5j8Q3hRATIFnPLvRPCqCJ7Lw37wpcNB+/506h/L/hDuNJCaVkDMKOBbJ31TEpSLUPxfSvt67Ccyd/wRd/wDByA8WQGLoYCOBspvJf2vQr+b+kv4dr/mfv8pkI/wYwXIhcCkmwb9qioo58v5j28jX8/8s87fQbjaB7I/woMKSEdUQHIJ86XE/f4opzIIFgN8veDXyv4ZXfKPVX8IjzSQjngB0+8X8AdJ4IUKXqCvYR8s7f1VO/338j/Wm/232R+rfhATWQFklRDlgPNpcRihuuBFBxUfVHVC+Xyxgk0Mz9etvNZPeZSPF+bvC35DvPQ/9MW/seQf+EdMoQLEQiA6BQuGzIaius5HZO72Gack/WPDX8QMKiC2/cAQ8Jy39KfOvyX+gX7EPCqAmAEnQHTq9X7m1I92/jO65gcEgJhWBWRyVzC6oBCYUPsLtT/b7DcF+BGzqgCbAhbYE9ii9j+YUz+88Q8GQMyqAkxDEIj1P/IXDSd/ZH/El1UAZMCkyT8a0v6psdsvGAAxf0egrwTgBvhGP1vsa8A/g/OP+L4K4F1BKgPQFHCV/udh489GPxgAMa8KsMYDzUoAswEuyf8SfQB/TP0gvskDrQgwKIBwABxBB9/PXO3HL/NhJH9QAOKLKiAblgFncMCvpX8iVv7NwD9f7g/oI76tAo7vKCA5h+CAT9FPL+1LrvHB2n5U+/87YrNfxJdVAN03qOWA2OIAgPsD9LNtPuSmP67xi1ioGcApwHADkgiW4Fvbz0a/3uevv8gXdvtBLL0lAA7wgX66zx8Z+gHyEUtWAZoCMoECKg6AH2Ar/yiR4Z9lQxv9gQMQi1MBkgw4WJZgckFfgMTJrPsTnvtTJH/ECmVAOlIKVL1BFANtxy8aQz+9vDeSP2JVMmDUDkii3RsC4ckU/gL8kfwR65UBzA6wS4EdFwPBySr7e/AP2H5I/oj1yoB2OiC2SOC8O1cwkFK/mftT7PGNWDkRyBRwEITAjhyBsF7iFyXRmPDn4If6R6xQBqTjMsAkgWgH1UAYniOx7B+CP2b+EFuRAZIOMIXAlkmgKvpl8B9E8LOBv39gAMRq3YCeA9K3OqAeFNpaORA0jl80jP4R+ONsQmxLB6SUA6TOwAsqG/IEwsbuF+Z82RJ/Dn74fojN6oDM0AHSqGCFl/Pa64EgCC9nwe4nVX+mLX8G/xTgR2zSFzT9AFYM2EqglgKrZIEgPMnY73L/4ZCZs34U/FAAiE3KAL11gNUYGLAEVscCwTD29fJeXfIz9BPTH+cNYgc6wBICLQfILLACczDsNP+A3d8N+hHPb2h/P3AAYss6YIQEBuuBempwoWIgDJsu34jsN8FPyv4U0z6I/eqAASEwwAEtDYRLg/4A+A9a9lPDn2K/Rn57ZR+cIIgd6QCZBLK+ORCP0UBU80DwVeQPFfuC7O/BTwb9sLEvAkLA6g+S7kA8rgVaHphTEAQv4GvkRyOaPyaZ3+7143K+CKDfJgHKAaQiiN/QQFV9N4pgKknQ4b4f6olG876U+Bn8jxj2Q4AKPlQCxBc4jJBAt9PI+VKrgjAIHBt6Neo17Jt8P6j6D82iPu32sWYfwz6p+oF/BHSALQRkKaBLgrGaoIVopNngRQcvPqgZ4cUJ1a2ODuV1hEH96KkC/CvRn/tVe1H3MVbsc5+f5f028bPdPUjhD/gjwAUDJEClANEC8UHXBIe3PDDw2cDTo4Ql+bff0031xRT8Q1M+dq8f6R8B9L+VArIY0EXBOx74LKJfPl//8pjm/TiTK/7W8ksBfATiHRekMgmkAzRQ1wWxLyL4ROqTaX5B8svYPyL9IxC/EgI2CdCSgPPAIW55gJiFh2lgH5sxgn1L9qPmRyB+RQYGoEwW4HLAqA3ingsOn8O9eT79CQLs+YuoySkV8z7d1gfwRyD+IAXqZXKjNDBABVQWxPpGgd2A+2B+LRZzPR3p4et5RkU//qgIhAcySFNBDqQ2DYhU0BsGbcnQO/eHeCwaay+2CSezXo5Q7SPpIxBe0G/vKPBGEdSojVtlkMUfR9aYekOwt+t8PdVvNvkRCIRfNkjFLsGIIhgL7t7H40+muDdm+mHzIxAz2wLHYRqgbPAbPpAwP4D7Y/fvX3o0GvxAPQIxDx+MlQWZ/fn/9u0gB0EYiAJodzPc/8IuJAK2ozGaWMh7rFgQkpL5bQfoEyGPE/ySg+X9aKe/FXw2e37452Igu/cFkV9YXpd9y/6mXvLBBImQjwwou4WfiKdfd6Lc7HsOMFFvYFSruTvWZUJsc/t6ergs3xW+RwDzx0JWFZzVR0d1X18MwClqv8XPGWG4WloUQXFv6skEuHAINN17YL8mMBAAAAAAAAAAAAAAAAAAAAAAAAAAAAAAAAAAAAAAAAAAAAAAAAAAAAAAAADAid0AusM1UEmf17UAAAAASUVORK5CYII=;" vertex="1" parent="1">
          <mxGeometry x="1230" y="-350" width="80" height="80" as="geometry" />
        </mxCell>
        <mxCell id="23ATxNzAXolhElHc7mPV-87" value="" style="endArrow=classic;html=1;rounded=0;exitX=0.994;exitY=0.377;exitDx=0;exitDy=0;exitPerimeter=0;" edge="1" parent="1" source="23ATxNzAXolhElHc7mPV-54" target="23ATxNzAXolhElHc7mPV-86">
          <mxGeometry width="50" height="50" relative="1" as="geometry">
            <mxPoint x="770" y="-219" as="sourcePoint" />
            <mxPoint x="864" y="-320" as="targetPoint" />
          </mxGeometry>
        </mxCell>
        <mxCell id="23ATxNzAXolhElHc7mPV-88" value="Message" style="edgeLabel;html=1;align=center;verticalAlign=middle;resizable=0;points=[];" vertex="1" connectable="0" parent="23ATxNzAXolhElHc7mPV-87">
          <mxGeometry x="-0.0777" y="-2" relative="1" as="geometry">
            <mxPoint as="offset" />
          </mxGeometry>
        </mxCell>
        <mxCell id="23ATxNzAXolhElHc7mPV-89" value="Web3 Agent" style="ellipse;whiteSpace=wrap;html=1;aspect=fixed;dashed=1;dashPattern=8 8;" vertex="1" parent="1">
          <mxGeometry x="1030" y="-180" width="80" height="80" as="geometry" />
        </mxCell>
        <mxCell id="23ATxNzAXolhElHc7mPV-91" value="" style="endArrow=classic;html=1;rounded=0;exitX=1;exitY=0;exitDx=0;exitDy=0;entryX=0.003;entryY=0.67;entryDx=0;entryDy=0;entryPerimeter=0;" edge="1" parent="1" source="23ATxNzAXolhElHc7mPV-12" target="23ATxNzAXolhElHc7mPV-54">
          <mxGeometry width="50" height="50" relative="1" as="geometry">
            <mxPoint x="670" y="200" as="sourcePoint" />
            <mxPoint x="468" y="35" as="targetPoint" />
          </mxGeometry>
        </mxCell>
        <mxCell id="23ATxNzAXolhElHc7mPV-92" value="Unexpected behaviour" style="edgeLabel;html=1;align=center;verticalAlign=middle;resizable=0;points=[];" vertex="1" connectable="0" parent="23ATxNzAXolhElHc7mPV-91">
          <mxGeometry x="-0.0777" y="-2" relative="1" as="geometry">
            <mxPoint as="offset" />
          </mxGeometry>
        </mxCell>
        <mxCell id="23ATxNzAXolhElHc7mPV-93" value="Hedger" style="swimlane;startSize=0;" vertex="1" parent="1">
          <mxGeometry x="-130" y="-460" width="1310" height="1020" as="geometry" />
        </mxCell>
      </root>
    </mxGraphModel>
  </diagram>
</mxfile>
